<?xml version="1.0" encoding="UTF-8" standalone="no"?>
<!-- Creator: CorelDRAW -->
<!-- https://commons.wikimedia.org/wiki/File:Aguila_explayada_2.svg -->
<svg clip-rule="evenodd" fill-rule="evenodd" height="820.0097" image-rendering="optimizeQuality" shape-rendering="geometricPrecision" text-rendering="geometricPrecision" viewBox="0 0 500 450" width="662.2735" xmlns="http://www.w3.org/2000/svg">
  <g transform="matrix(2.6333489 0 0 2.6450079 -693.25737 -701.87976)">
    <g stroke="#646464">
      <path d="m299.645 302.598c-9.9922 5.9554-18.6829 12.1923-32.642 14.9505-.6921.1368-1.533.717-.2526.7214 13.157-1.3475 25.5607-8.9497 34.1952-14.7476" stroke-width=".4128"/>
      <path d="m302.377 294.163c-10.7677 4.6637-20.2867 9.7677-34.5205 10.7718-.7057.0498-1.604.516-.3552.6835 13.2339.2946 26.6307-5.7024 36.0301-10.3783" stroke-width=".4128"/>
      <path d="m265.431 325.094c1.5609-.9623 3.1462-1.8966 4.7841-2.7975 3.114-1.7353 6.4453-4.074 9.6948-5.5946 4.9611-2.7352 8.366-5.4002 12.8527-8.5161.9082-.6728 3.0069-2.4422 3.5919-2.243.1158.6175 2.0783 2.7657 2.3181 2.9722-5.5991 6.3263-15.6162 12.7809-22.6574 13.6294 7.3874-.9396 17.2561-7.6086 22.6574-13.6294 2.5097 1.0194 3.0072.9155 4.4223 2.0583-5.8696 5.2491-13.3557 11.015-21.0254 13.2314-5.0069 1.2331-10.1804 2.3671-16.2169 2.2025-1.0299-.206-1.1815-.6379-.4216-1.3132z" stroke-width=".4128"/>
      <path d="m265.394 311.246c1.6222-.6924 3.2652-1.3583 4.9564-1.9904 3.2174-1.2214 6.7079-2.9462 10.0362-3.969 5.1229-1.9201 18.2402-9.2982 18.2402-9.2982s-1.4048 1.7022.8773 4.2549c-6.1076 4.9776-16.5453 9.6632-23.511 9.7567 7.3132-.1409 17.6274-5.0261 23.511-9.7567 2.3499 1.1134 2.8465 1.0687 4.1143 2.1893-6.2635 4.0184-14.1587 8.3375-21.8762 9.5605-5.0167.6127-10.1861 1.1244-16.0683.4307-.9855-.2727-1.0903-.6612-.2799-1.1778z" stroke-width=".4128"/>
      <path d="m324.805 338.116c.5371 9.0729.2469 16.8788-2.9101 27.7481-.1589.5471-.0822 1.2535.6047.469 3.9015-9.2203 5.1344-20.5709 3.9953-28.6847" stroke-width=".3955"/>
      <path d="m333.413 334.959c1.3756 10.2134 3.5593 19.5507.2867 31.4297-.1623.589.0553 1.4177.5679.5034 4.2541-10.6585 2.3509-23.4268.5536-32.5325" stroke-width=".3907"/>
      <path d="m327.055 368.691c-.0571-1.8312-.0809-3.6602-.0549-5.5039.0318-3.5213-.3145-7.6333-.0524-11.1.0741-5.5887-.4967-9.9882-.9364-15.5023-.1222-1.1463-.574-3.9488-.1538-4.2345.5394.3573 3.1171.4585 3.3878.4309 2.4721 8.626 2.7865 17.5011.5597 26.3383 2.2226-8.8977 1.7603-18.0757-.5597-26.3383.302-.173-1.5542-4.1767-1.3276-4.3188 1.2244-.7671 3.8051-.8526 4.9734.3093 1.5007 8.0531 2.6492 19.9051.9474 27.105-1.2796 4.5471-2.7125 9.1453-5.5579 13.4457-.6258.6062-1.0347.4081-1.2257-.6314z" stroke-width=".3718"/>
      <path d="m312.878 369.68c.2993-1.9013.6348-3.7946 1.0284-5.6946.7319-3.6318 1.1627-7.9385 2.1384-11.4746 1.1876-5.7603 1.4273-10.4022 2.0321-16.1731.0917-1.205.1468-4.1771.6679-4.4003.5255.4612 3.3549 1.0063 3.6596 1.024 1.0261 9.3326-1.2864 20.6535-4.5926 27.3017 3.3959-6.7645 5.5224-18.3704 4.5926-27.3017.3681-.1271-.8916-4.5799-.613-4.688 1.5053-.5832 4.375-.2305 5.4366 1.1694.0655 8.5748-1.01 21.0136-4.3157 28.1599-2.3142 4.4783-4.808 8.9831-8.8043 12.939-.8117.5193-1.2246.2447-1.23-.8617z" stroke-width=".4032"/>
      <path d="m334.905 314.35c.1278 1.6905-.8077 6.6519-2.5869 5.5561-1.2571-.7742-.4923-3.7837-.5551-4.2156" fill="#ed1c26" stroke-linecap="round" stroke-width=".4071"/>
      <path d="m332.961 318.605c.2654-.8858.3729-2.1913.715-3.1781" fill="#ed1c26" stroke-linecap="round" stroke-linejoin="round" stroke-width=".4071"/>
      <path d="m331.276 313.108c.5125 1.6271.736 6.659-1.254 5.9364-1.4061-.5106-1.3489-3.6014-1.5093-4.0112" fill="#ed1c26" stroke-linecap="round" stroke-width=".414"/>
      <path d="m330.352 317.647c.0562-.9176-.1381-2.2145-.0301-3.2459" fill="#ed1c26" stroke-linecap="round" stroke-linejoin="round" stroke-width=".414"/>
      <path d="m328.87 313.129c.3541 1.6626.0929 6.6926-1.8199 5.8098-1.3516-.6237-.9974-3.6975-1.1177-4.1188" fill="#ed1c26" stroke-linecap="round" stroke-width=".411"/>
      <path d="m327.514 317.574c.1442-.9093.0754-2.2169.2821-3.2354" fill="#ed1c26" stroke-linecap="round" stroke-linejoin="round" stroke-width=".411"/>
      <path d="m326.659 334.821-.0332-.0074c.0044.0145.0187.0111.0332.0074z" stroke-width=".4128"/>
      <path d="m302.692 304.376c-1.4204 2.1656-2.673 3.6957-4.7108 5.3508-2.7396 2.0157-6.1563 3.4245-9.8587 4.0119-1.3312.2168-2.288.0748-1.5507-1.1736 1.1413-1.8868 5.0888-6.131 6.6335-7.168 3.0296-2.0258 4.9935-2.614 7.2848-3.7844z" stroke-width=".4128"/>
      <path d="m304.043 273.23c-3.7316-8.4697-8.0393-16.0415-7.6653-26.7939.0186-.5331-.2536-1.2666-.6678-.3249-1.6105 9.8914 3.2323 20.4458 7.1116 27.8913" stroke-width=".4128"/>
      <path d="m305.032 280.188c-7.2203-6.9522-14.5037-12.8416-19.311-23.3817-.2384-.5225-.9522-1.1954-.7244-.0908 3.3424 10.1208 12.5042 18.7197 19.362 24.6304" stroke-width=".4128"/>
      <path d="m306.936 281.848c-9.7575-3.3667-19.0471-5.7449-28.4535-13.3423-.4664-.3767-1.2435-.6659-.6802.2119 7.9147 7.8125 20.1861 11.8827 29.1128 14.453" stroke-width=".4128"/>
      <path d="m305.754 285.25c-10.3861-.7393-20.0259-.6483-31.3448-5.5424-.5611-.2426-1.5128-.4038-.5899.3777 9.9501 5.4822 22.9629 6.2544 32.3117 6.4408" stroke-width=".4128"/>
      <path d="m306.515 288.578c-11.6307 2.2982-22.1527 5.2855-36.2644 3.2959-.6996-.0987-1.6351 0-.5133.5918 12.8198 3.0462 27.3379-.0026 37.6388-2.5978" stroke-width=".4128"/>
      <path d="m316.377 337.42c-1.4508 10.8966-1.8334 21.0516-8.4856 32.71-.3298.578-.3395 1.4842.4381.6412 7.3114-10.1859 8.938-23.8467 9.6497-33.6805" stroke-width=".4128"/>
      <path d="m310.833 335.446c-3.874 10.222-6.642 19.9716-15.2177 29.7334-.4252.484-.6368 1.3919.2268.7221 8.7953-8.1834 13.485-21.0428 16.4619-30.4055" stroke-width=".4128"/>
      <path d="m305.409 330.63c-6.3814 9.2648-11.4531 18.2833-22.886 26.1736-.5669.3912-.7846 1.0695.0971.7528 11.343-6.2993 19.1696-17.9904 24.389-26.5884" stroke-width=".4128"/>
      <path d="m300.029 321.479c-7.0264 8.8583-12.7284 17.5501-24.6976 24.7308-.5935.356-1.2518 1.2469.0434.757 11.7664-5.5985 20.4074-16.7903 26.2268-25.0536" stroke-width=".4128"/>
      <path d="m298.975 311.949c-8.6149 7.5698-15.8943 15.1923-29.052 20.3031-.6523.2534-1.3985.8991-.1025.7521 12.6545-3.5868 23.3061-13.1894 30.6189-20.3709" stroke-width=".4128"/>
      <path d="m268.777 340.736c1.3859-1.3067 2.804-2.5903 4.2854-3.8516 2.8106-2.4205 5.6971-5.4971 8.7025-7.7297 4.4851-3.8266 7.3667-7.2486 11.2628-11.3581.7781-.8743 2.5228-3.1117 3.1818-3.0359.2747.5991 2.855 2.3487 3.1563 2.506-4.2535 7.5911-14.2892 14.4927-20.1999 18.6251 6.4254-4.1196 16.076-11.3849 20.1999-18.6251 2.8687.492 3.3609.2803 5.1202 1.1316-4.8041 6.561-11.1632 13.9904-18.5992 17.8734-4.9078 2.3187-10.0139 4.5732-16.3429 5.7007-1.1241.0124-1.3898-.3913-.7669-1.2364z" stroke-width=".4128"/>
      <path d="m267.8 298.158c1.6152-.3973 3.2448-.7673 4.9124-1.0997 3.176-.6495 6.6945-1.7185 9.936-2.1709 5.0525-1.0117 8.7174-2.3177 13.4476-3.7313.9681-.3189 3.2589-1.2222 3.724-.9365-.0527.5054 1.1371 2.613 1.2965 2.827-6.5134 3.6568-15.2786 5.3098-23.3599 5.504 8.5018-.1872 17.0971-2.04 23.3599-5.504 1.9543 1.3539 2.2263 2.0695 3.1859 3.2739-6.4818 2.7599-14.3242 4.8739-21.6314 4.8759-4.7168-.1648-9.5554-.4438-14.8287-1.9243-.855-.3908-.8804-.7601-.0423-1.1141z" stroke-width=".4128"/>
      <path d="m269.298 284.368c2.6919-.7236 17.1075 1.6876 28.2467.0691.8617 1.6352 1.0399 2.5375 3.0322 3.449-6.5195.5697-13.2482.8822-20.1412-.2321 6.893 1.1143 13.6216.8017 20.1412.2321.6604.253 2.1827 1.9091 2.9915 2.3234-8.3856 1.5367-15.3621 3.1712-25.2993.1617-2.7099-1.1146-5.5852-2.239-8.5845-4.072-.9596-.7207-1.2396-1.3877-.3866-1.9312z" stroke-width=".4128"/>
      <path d="m273.506 271.657c1.4795.6187 2.5909 1.0601 4.7329 1.547 3.0909.91 5.1404 1.244 8.4362 2.5704 3.9046 1.7037 13.8241 6.2542 17.9889 7.2988-.4063.3844-1.9288 1.1379-1.9613 1.3987-7.0486-1.0986-14.8046-3.7069-21.0178-7.3278 6.3081 3.7052 14.0352 6.2817 21.0179 7.3279.4493.5203-.2058 1.8744-.326 2.5874-6.9774-1.2437-12.7904-2.555-19.6611-6.272-4.3053-2.6069-7.004-4.4482-9.7876-8.3241-.4004-.552-.1982-1.0872.5779-.8063z" stroke-width=".4128"/>
      <path d="m280.551 259.765c4.5628 3.1934 8.1951 6.6074 12.4658 10.1386 3.638 3.1443 13.3492 10.1143 17.5951 12.6525-.6442.2658-2.7332.5361-2.8936.8003-7.5023-3.5896-15.0957-9.0165-20.4542-14.9802 5.4268 6.0854 13.0022 11.4688 20.4542 14.9803.2652.7041.7645 2.0503.2905 2.7614-7.3526-3.7181-13.6956-6.0736-21.2947-13.541-3.6667-4.2357-5.8672-7.1095-7.202-12.1601-.1946-.7206.2885-1.2158 1.0389-.6518z" stroke-width=".4128"/>
      <path d="m290.712 249.074c5.5516 12.1639 12.0387 21.4147 17.7792 32.4638-.6436.0421-2.6924-.5878-2.9257-.3807-5.0261-6.0769-9.0741-13.2378-11.544-21.053 2.5036 7.8218 6.5236 14.9928 11.5441 21.0531-.0351.7906-.1919 1.7341-.8557 2.2772-4.8552-6.2249-9.9403-11.4713-12.7524-19.8079-1.5426-5.4696-3.0989-8.7871-2.3659-14.2629.101-.7827.6929-1.1081 1.1204-.2896z" stroke-width=".4128"/>
      <path d="m309.621 235.012c.9039.5309-4.6193 10.2479-3.4675 22.0601.2862 2.9355.5616 5.8562 1.7199 8.6297.6741 1.6143 1.8064 2.3223 2.3244 3.9499.1236.6368.1685 2.7487-.3356 3.1189-.4327.5649-3.8787 2.2082-4.8004 3.0795-2.5459-2.0379-5.2361-11.5749-5.4625-19.0035-.5926-10.678 6.8618-23.8031 10.0217-21.8346z" stroke-width=".4128"/>
      <path d="m274.404 354.212c1.2377-1.4722 2.5113-2.9246 3.8517-4.3609 2.5398-2.7534 5.0725-6.1792 7.8337-8.7633 4.0577-4.3571 6.541-8.1322 9.965-12.7125.677-.9691 2.1593-3.4223 2.8373-3.4164.3554.5771 3.1962 2.0715 3.5218 2.1984-3.3402 8.1445-11.1766 17.8704-18.0958 21.0324 7.2407-3.3665 14.8422-13.2573 18.0958-21.0324 2.9719.1898 3.444-.0775 5.337.5955-4.0305 7.1605-9.5264 15.3675-16.569 20.099-4.6794 2.8757-9.5682 5.7076-15.8413 7.5299-1.1384.1335-1.4596-.2469-.9362-1.1697z" stroke-width=".4128"/>
      <path d="m284.449 365.832c1.0086-1.7054 2.0535-3.3942 3.1645-5.0741 2.101-3.2168 4.1154-7.143 6.4484-10.2077 3.3617-5.095 5.2875-9.3844 8.0169-14.6384.532-1.106 1.6578-3.8774 2.3067-3.9533.4083.5666 3.3018 1.8012 3.6282 1.8957-2.2258 9.0095-8.5625 20.2346-14.802 24.4138 6.5226-4.4343 12.6151-15.805 14.802-24.4138 2.8639-.1597 3.2835-.4992 5.1733-.0177-3.0028 8.0535-7.2822 17.3903-13.4532 23.2427-4.1322 3.6052-8.4697 7.1896-14.2508 9.875-1.0724.2791-1.4247-.0839-1.034-1.1222z" stroke-width=".4249"/>
      <path d="m299.108 370.785c.6544-1.9227 1.343-3.8319 2.0903-5.7393 1.408-3.6491 2.6465-8.0408 4.277-11.5549 2.2597-5.7838 3.3729-10.5505 5.0597-16.4312.318-1.233.9337-4.2995 1.49-4.4535.4314.5546 3.1201 1.5358 3.4174 1.599-.7503 9.8059-4.7952 22.4273-9.6878 27.5659 5.1058-5.4413 8.9183-18.1893 9.6878-27.5659.3871-.0771-.0148-4.8693.2806-4.94 1.5953-.3812 4.3601.4069 5.1431 2.0117-1.5549 8.8802-4.9654 21.5893-9.5767 28.4944-3.1292 4.2914-6.4405 8.5838-11.1306 12.0866-.8989.4174-1.2544.0725-1.0508-1.0728z" stroke-width=".4128"/>
      <path d="m321.549 322.633c-1.0409 8.6178-3.5993 17.45-9.9429 24.0066-1.0301.9936-1.9967 1.4615-2.2831-.0222-.4088-2.2586.3479-7.5603.9465-9.3629 1.1804-3.5288 2.0594-5.84 3.2269-8.2096l3.7592-9.2891 4.2934 2.8771z" stroke-width=".4128"/>
      <path d="m315.196 323.391c-.2257 3.2325-1.8612 6.702-3.0341 9.7316-1.6992 3.8411-4.4647 7.4079-8.0106 10.2326-1.2717 1.0218-2.3599 1.4266-2.3154-.3891.0956-2.7597 2.0638-8.9648 3.0801-11.0204 1.9979-4.0227 4.1576-8.1552 5.8802-10.7969z" stroke-width=".4128"/>
      <path d="m321.039 315.399c.1706 2.4484.0026 3.4423-.7837 5.9503-1.2043 3.2268-3.4901 6.4867-6.6334 9.3691-1.1262 1.0403-2.147 1.582-2.3238.225-.241-2.0687.6532-7.2002 1.4028-8.9509 1.4759-3.4277 1.2746-2.7151 2.6474-5.0573z" stroke-width=".4128"/>
      <path d="m326.853 322.247c.4797 8.6599-.5006 17.758-5.6143 25.1753-.8428 1.1343-1.7149 1.7404-2.257.3189-.7983-2.1679-.9788-7.5128-.7031-9.3811.5478-3.6587 1.011-6.0707 1.7488-8.5835l2.0855-9.7281z" stroke-width=".4128"/>
      <path d="m327.358 313.782c.525 2.405.5018 3.4109.0886 5.9936-.7241 3.3471-2.5151 6.8611-5.2107 10.1077-.9648 1.1706-1.8975 1.8341-2.27.5113-.5398-2.02-.3998-7.216.0883-9.0438.9641-3.5799.8683-2.8488 1.8881-5.3401z" stroke-width=".4128"/>
      <path d="m333.319 322.543c1.0688 8.6149.7104 17.7519-3.8878 25.4519-.7638 1.1811-1.5929 1.8367-2.2308.4496-.9444-2.1172-1.4887-7.441-1.3409-9.3216.2974-3.6833.5954-6.1175 1.1605-8.6682l1.4185-9.8301z" stroke-width=".4128"/>
      <path d="m310.719 321.2c-.3994 2.7945-2.8687 5.6172-4.1722 8.3189-1.8593 3.4053-4.7421 6.456-8.3452 8.745-1.2926.829-2.3738 1.1026-2.2337-.5782.2402-2.5521 2.4874-9.1537 3.5866-10.966 2.1597-3.5458 4.4859-6.546 6.304-8.836z" stroke-width=".4128"/>
      <path d="m315.179 313.92c.2317 1.0483-.0053 2.0076-.5872 3.8448-.9099 2.9697-2.7604 6.3895-5.912 9.3566-1.1282 1.0697-2.2069 1.6927-2.5971.5477-.5627-1.75.0675-6.2827.67-7.9085 1.1891-3.1847.7233-2.5737 1.948-4.8051z" stroke-width=".4128"/>
      <path d="m306.47 313.848c-.3487 2.8416-2.9341 6.2461-4.3393 8.8474-2.0195 3.2845-4.4848 6.7715-8.5457 9.039-1.4567.8209-2.6893 1.1084-2.5858-.4929.1889-2.4323 2.5801-7.7881 3.7809-9.5389 2.3599-3.4255 5.974-8.559 7.9844-10.7822z" stroke-width=".4128"/>
      <path d="m310.655 310.913c-.0039.8375-.2319 2.3401-.7719 3.4894-1.1976 2.8037-3.5672 5.5763-6.8797 7.9653-1.1866.8626-2.2756 1.2876-2.5131.0703-.3312-1.8541.7807-6.2727 1.5349-7.7884 1.4854-2.9673.9762-2.4417 2.3865-4.4489z" stroke-width=".4128"/>
      <path d="m303.554 299.125c-1.6869 1.9962-3.4044 3.0369-5.6392 4.4589-2.9777 1.7039-6.5504 2.7315-10.3019 2.9123-1.3497.0706-2.2818-.1744-1.3902-1.3341 1.374-1.7495 5.6561-4.8648 7.3224-5.7266 3.2669-1.6825 5.4718-2.7233 7.8964-3.6364z" stroke-width=".4128"/>
      <path d="m305.255 308.758c-.8687 2.5895-5.0628 5.8428-6.6451 8.0269-2.1758 2.7157-5.145 4.9375-8.5799 6.3548-1.2338.5154-2.1895.5721-1.7674-.9032.6641-2.2352 3.5582-6.8183 4.8081-8.2447 2.453-2.7888 6.5543-7.486 8.4933-9.2138z" stroke-width=".411"/>
      <path d="m291.681 319.859c3.4005-3.2086 6.5994-6.9253 8.7118-11.0737" stroke-width=".411"/>
      <path d="m305.442 302.841c-2.237 1.0797-3.5319 2.309-5.2391 4.0249-2.0787 2.3309-3.8128 5.1313-4.4116 8.5268-.221 1.2203-.072 2.1315 1.2178 1.5854 1.949-.8508 6.1082-3.8491 7.1774-5.1748 2.0883-2.6009 1.6555-2.3102 2.6813-4.435z" stroke-width=".4128"/>
      <path d="m307.398 298.246c-.8311 2.1065-1.8551 4.1487-3.4506 5.9121-2.2031 2.1892-5.072 3.4477-8.6425 4.5538-1.2823.4027-2.2866.434-1.8897-.7674.6272-1.8197 3.7469-5.7921 5.2601-7.2742 2.2443-2.1017 5.2809-3.1148 7.2666-4.4989z" stroke-width=".4128"/>
      <path d="m296.784 306.268c1.9505-1.8693 4.6289-4.0066 8.037-6.6582" fill="none" stroke-width=".4128"/>
      <path d="m307.445 294.112c-2.39-.9226-3.1348-.8037-5.7446-.8731-3.3904.0876-6.9953 1.1516-10.3717 3.1158-1.2172.7014-1.9242 1.4629-.6131 2.0494 2.0031.868 6.9957.684 8.8512.5486 3.0382-.2277 4.8497-.4561 6.9706-.8277l.7223-3.8416z" stroke-width=".4128"/>
      <path d="m291.209 303.674c2.8067-1.6355 5.2422-2.4929 8.0154-3.4628" fill="none" stroke-width=".4128"/>
      <path d="m307.502 279.746c-1.8393-1.8934-3.0485-3.4813-4.1092-5.8849-1.1986-3.1864-1.4925-6.9222-.7902-10.7681.2464-1.384.7472-2.3147 1.837-1.3051 1.6371 1.5529 4.1091 6.1919 4.6768 7.967 1.1045 3.4798 2.8568 7.8755 3.299 10.4294z" stroke-width=".4128"/>
      <path d="m310.867 287.719c-2.2089-.7109-6.6562-4.1628-8.5238-5.5767-2.3231-1.9576-4.0574-5.5363-5.2815-8.7618-.4451-1.1582.0188-1.4626 1.2771-1.1273 1.9063.5315 5.3059 2.4809 6.5266 3.6117 2.3867 2.2199 6.0338 5.564 7.5147 7.3412z" stroke-width=".4128"/>
      <path d="m300.81 287.707c-2.9734-1.0004-5.8676-2.9051-8.3118-5.5273-.8829-.9395-1.2983-1.7918.022-1.9422 2.0099-.2056 6.7261.7725 8.3293 1.3958 3.1384 1.2271 6.5854 2.5491 8.6925 3.6923l-1.3032 3.324c-2.2159.2235-5.294-.4228-7.429-.9426z" stroke-width=".4128"/>
      <path d="m307.816 292.884c-2.1332.9905-3.6598.454-6.0187.5959-3.0701.0064-6.5898-.2954-9.7064-2.1691-1.1234-.6688-1.7869-1.4118-.6195-2.0355 1.7849-.925 6.4539-1.5706 8.1369-1.4866 3.2968.172 5.4857.3788 7.8044.8276z" stroke-width=".4128"/>
      <path d="m304.542 266.762c1.1115 4.101 3.0399 8.9653 5.7245 12.4872" fill="none" stroke-width=".4128"/>
      <path d="m300.536 275.663c2.591 2.9529 5.9395 6.0345 9.503 8.042" fill="none" stroke-width=".4128"/>
      <path d="m297.051 282.907c3.5662 1.8958 6.4407 2.7562 9.9487 3.6699" fill="none" stroke-width=".4128"/>
      <path d="m295.844 290.106c4.0049.6947 7.1247.9733 10.5945 1.0636" fill="none" stroke-width=".4128"/>
      <path d="m295.966 296.706c4.5316-.4167 6.1638-.5953 10.1447-.4479" fill="#ed1c26" stroke-width=".4128"/>
      <path d="m298.988 313.129c2.6046-3.3977 3.1407-3.4772 6.0371-7.4704" fill="none" stroke-width=".4128"/>
      <path d="m303.435 318.815c2.3988-3.7446 3.8343-5.5196 4.7167-9.7613" fill="none" stroke-width=".4128"/>
      <path d="m308.944 322.909c1.4372-3.7716 1.9603-5.034 3.3389-9.3987" fill="none" stroke-width=".4128"/>
      <path d="m300.253 332.45c1.679-1.8902 4.7309-6.7569 5.8157-9.5217" fill="none" stroke-width=".4128"/>
      <path d="m294.977 327.568c1.2911-1.6963 4.7091-6.0173 5.7385-7.9704" fill="none" stroke-width=".4128"/>
      <path d="m305.295 337.472c1.3812-2.258 3.9671-5.8413 6.2131-10.3313" fill="none" stroke-width=".4128"/>
      <path d="m311.97 341.482c1.8451-3.3713 4.8376-12.2596 6.1301-15.9594" fill="none" stroke-width=".4128"/>
      <path d="m314.075 328.796c1.5502-3.4955 2.7722-7.4273 3.5751-11.3031" fill="none" stroke-width=".4128"/>
      <path d="m304.966 242.434c-2.4802 6.8062-2.7881 13.5446-2.0915 17.6228" fill="none" stroke-width=".4128"/>
      <path d="m311 284.092c-.783-.9711-4.0598-3.7603-5.1707-2.5646-.8583.9238 1.2812 4.5232 4.3566 5.6061" stroke-linecap="round" stroke-linejoin="round" stroke-width=".4297"/>
      <path d="m307.269 282.788c2.0661 1.636 1.9965 1.6703 3.3141 2.6543" fill="#ed1c26" stroke-linecap="round" stroke-linejoin="round" stroke-width=".4297"/>
      <path d="m311.714 285.567c-1.5248-2.0812-3.7691-5.9149-2.8938-6.8026.6314-.6403 1.2555-.864 4.3876 2.586" stroke-linecap="round" stroke-linejoin="round" stroke-width=".4297"/>
      <path d="m309.87 280.106c.8077 1.5233 1.6794 1.9065 2.039 2.6154" fill="#ed1c26" stroke-linecap="round" stroke-linejoin="round" stroke-width=".4297"/>
      <path d="m305.53 298.86c-1.824.1873-6.9431 1.9274-5.4578 3.3471 1.0495 1.0031 4.1194-.2316 4.5908-.2521" stroke-linecap="round" stroke-width=".4248"/>
      <path d="m301.344 301.389c.8964-.4 2.2681-.732 3.2585-1.2198" fill="#ed1c26" stroke-linecap="round" stroke-linejoin="round" stroke-width=".4248"/>
      <path d="m306.315 295.424c-4.0087.4463-6.1425 1.5273-6.2608 2.412-.187 1.3971 2.7411 1.6919 5.7379 1.4483" stroke-linecap="round" stroke-linejoin="round" stroke-width=".4201"/>
      <path d="m301.885 297.755c1.4674-.2087 2.3798-.5084 4.0046-.5972" fill="#ed1c26" stroke-linecap="round" stroke-linejoin="round" stroke-width=".4201"/>
      <path d="m307.817 291.955c-2.5996.4359-7.0308.4769-7.0463 2.4523-.0093 1.167 2.6028 1.6803 4.9655 1.5791" stroke-linecap="round" stroke-linejoin="round" stroke-width=".4128"/>
      <path d="m307.959 293.433c-.9285.485-3.3607.5897-5.1284.9195" fill="#ed1c26" stroke-linecap="round" stroke-linejoin="round" stroke-width=".4128"/>
      <path d="m309.246 289.772c-3.3871-.8234-7.1055-1.0477-7.2283.1068-.1357 1.2755 2.9264 2.8717 6.1567 3.0612" stroke-linecap="round" stroke-linejoin="round" stroke-width=".4297"/>
      <path d="m308.791 291.394c-1.5985-.2393-3.0165-.731-4.8983-1.0657" fill="#ed1c26" stroke-linecap="round" stroke-linejoin="round" stroke-width=".4297"/>
      <path d="m310.455 286.778c-.5441-.1543-6.0356-2.8113-7.1359-1.2856-.8105 1.2308 1.8639 2.9549 4.7013 4.4387" stroke-linecap="round" stroke-linejoin="round" stroke-width=".4297"/>
      <path d="m305.169 286.44c2.9933 1.3627 2.9539 1.5732 5.228 2.0806" fill="#ed1c26" stroke-linecap="round" stroke-linejoin="round" stroke-width=".4297"/>
      <path d="m290.639 310.726c1.1202-.7431 1.6793-1.1889 2.782-2.0136" fill="none" stroke-width=".4128"/>
      <path d="m305.045 301.594c-1.7658.4615-6.5054 2.9547-4.7874 4.1297 1.2139.8302 4.0221-.8535 4.4834-.9452" stroke-linecap="round" stroke-width=".428"/>
      <path d="m301.366 304.725c.8129-.5306 2.1069-1.0662 2.9969-1.6976" fill="#ed1c26" stroke-linecap="round" stroke-linejoin="round" stroke-width=".428"/>
      <path d="m305.382 304.439c-1.7184.5946-6.2184 3.441-4.401 4.4809 1.284.7348 3.9318-1.1576 4.3833-1.2842" stroke-linecap="round" stroke-width=".429"/>
      <path d="m301.996 307.839c.7626-.5908 2.0042-1.2233 2.8346-1.9205" fill="#ed1c26" stroke-linecap="round" stroke-linejoin="round" stroke-width=".429"/>
      <path d="m306.077 307.082c-1.6451.7509-5.8128 3.9998-3.8915 4.8661 1.3575.612 3.786-1.5161 4.2215-1.6839" stroke-linecap="round" stroke-width=".4296"/>
      <path d="m303.077 310.778c.6945-.6584 1.861-1.4028 2.6114-2.1734" fill="#ed1c26" stroke-linecap="round" stroke-linejoin="round" stroke-width=".4296"/>
      <path d="m307.094 309.118c-1.4758 1.007-4.9569 4.8838-2.9001 5.4236 1.4532.3813 3.4368-2.109 3.8333-2.3451" stroke-linecap="round" stroke-width=".4292"/>
      <path d="m304.848 313.245c.5577-.7613 1.5636-1.6839 2.1548-2.5647" fill="#ed1c26" stroke-linecap="round" stroke-linejoin="round" stroke-width=".4292"/>
      <path d="m308.491 310.422c-1.2274 1.2594-3.7969 5.7011-1.6647 5.8498 1.5065.105 2.9096-2.7015 3.2469-3.0061" stroke-linecap="round" stroke-width=".4264"/>
      <path d="m307.187 314.881c.3812-.8489 1.1666-1.9388 1.5548-2.9111" fill="#ed1c26" stroke-linecap="round" stroke-linejoin="round" stroke-width=".4264"/>
      <path d="m310.654 312.012c-1.1615 1.3116-3.5006 5.8604-1.3632 5.9159 1.5102.0391 2.768-2.8254 3.0894-3.1444" stroke-linecap="round" stroke-width=".4255"/>
      <path d="m309.579 316.522c.3374-.8646 1.066-1.9875 1.404-2.9756" fill="#ed1c26" stroke-linecap="round" stroke-linejoin="round" stroke-width=".4255"/>
      <path d="m312.858 312.901c-1.0308 1.4016-2.9232 6.1241-.789 6.0042 1.508-.0847 2.4854-3.041 2.7748-3.3851" stroke-linecap="round" stroke-width=".4234"/>
      <path d="m312.222 317.482c.2529-.8888.8706-2.067 1.1123-3.0789" fill="#ed1c26" stroke-linecap="round" stroke-linejoin="round" stroke-width=".4234"/>
      <path d="m315.052 313.558c-.8888 1.4821-2.3093 6.3437-.1956 6.0455 1.4935-.2106 2.1762-3.2366 2.4306-3.6035" stroke-linecap="round" stroke-width=".4209"/>
      <path d="m314.869 318.173c.1645-.9064.6639-2.1315.8051-3.1594" fill="#ed1c26" stroke-linecap="round" stroke-linejoin="round" stroke-width=".4209"/>
      <path d="m318.227 313.53c-.8927 1.458-2.3303 6.2875-.2211 6.0551 1.4903-.1643 2.1843-3.1767 2.4396-3.5365" stroke-linecap="round" stroke-width=".4155"/>
      <path d="m318.024 318.152c.1679-.9036.6713-2.1161.8165-3.1423" fill="#ed1c26" stroke-linecap="round" stroke-linejoin="round" stroke-width=".4155"/>
      <path d="m320.696 342.278c1.2313-3.6025 2.4907-11.1844 3.5224-15.0226" fill="none" stroke-width=".4128"/>
      <path d="m321.876 326.467c1.0279-3.6564 2.1962-6.249 2.4282-10.1893" fill="none" stroke-width=".4128"/>
      <path d="m321.889 313.015c-.9087 1.4345-2.4112 6.2447-.3152 6.0917 1.481-.1081 2.2171-3.1163 2.476-3.4689" stroke-linecap="round" stroke-width=".4098"/>
      <path d="m321.614 317.663c.1809-.9038.6994-2.106.8597-3.1343" fill="#ed1c26" stroke-linecap="round" stroke-linejoin="round" stroke-width=".4098"/>
      <path d="m333.354 313.142c.6255 2.3931.6445 3.3998.3404 5.993-.5826 3.3652-2.2238 6.9227-4.7797 10.2342-.9143 1.1938-1.818 1.8797-2.2456.5655-.6239-2.0077-.7024-7.2085-.2917-9.0484.8125-3.6037.7476-2.8701 1.6614-5.3864z" stroke-width=".4128"/>
      <path d="m328.803 342.76c.5865-3.9315 1.4985-11.892 2.2667-15.7825" fill="none" stroke-width=".4128"/>
      <path d="m324.108 312.539c-.5965 1.5867-1.0891 6.6117.9257 6.0598 1.4235-.39 1.533-3.4935 1.7143-3.8904" stroke-linecap="round" stroke-width=".407"/>
      <path d="m324.781 317.169c-.0064-.9247.2562-2.208.2045-3.2513" fill="#ed1c26" stroke-linecap="round" stroke-linejoin="round" stroke-width=".407"/>
      <path d="m327.748 311.896c-.7553 1.5175-1.7584 6.4659.3022 6.1226 1.4559-.2426 1.8816-3.3187 2.1025-3.695" stroke-linecap="round" stroke-width=".407"/>
      <path d="m327.944 316.57c.088-.9205.4803-2.1703.5354-3.2135" fill="#ed1c26" stroke-linecap="round" stroke-linejoin="round" stroke-width=".407"/>
      <path d="m328.209 326.398c1.0932-3.8077 1.5529-6.6399 2.283-11.3062" fill="none" stroke-width=".4128"/>
      <path d="m330.759 312.807c-.7415 1.5243-1.6995 6.4817.3579 6.1196 1.4537-.2559 1.8514-3.3357 2.0688-3.714" stroke-linecap="round" stroke-width=".407"/>
      <path d="m330.998 317.48c.0797-.9214.4606-2.1747.5062-3.2183" fill="#ed1c26" stroke-linecap="round" stroke-linejoin="round" stroke-width=".407"/>
      <path d="m334.061 313.668c-.9155 1.4266-2.4495 6.237-.3638 6.1192 1.4737-.0832 2.2306-3.0949 2.491-3.4451" stroke-linecap="round" stroke-width=".407"/>
      <path d="m333.75 318.336c.1874-.9056.7129-2.1054.8809-3.1364" fill="#ed1c26" stroke-linecap="round" stroke-linejoin="round" stroke-width=".407"/>
      <path d="m339.306 312.731c-1.0579-4.3684-6.6017-7.6631-11.5949-5.8267-2.4859.9142-6.6398 5.7279-11.931 5.4221-8.2481-.8266-9.0977-10.4406-7.0071-16.3411 3.1585-8.9144 9.0086-12.1778 3.6519-23.2831-2.7789-5.7614-2.69-14.2901-2.1459-18.0009.2447-1.4319-.6071-1.4674-1.2748-.0446-1.4494 3.1581-1.9317 9.6207-1.4581 12.4002.2441 2.3473.8905 4.6444 1.754 7.0353 4.1478 7.941.1784 11.5282-3.3741 19.2988-3.8402 8.3998-3.7693 20.3225 7.4849 23.2741 8.1228.809 13.4734-5.6982 20.8455-.0304" stroke-width=".4128"/>
      <path d="m323.967 345.224-.0384-.0084c.0051.0167.0217.0127.0384.0084z" stroke-width=".4128"/>
      <path d="m416.557 302.54c9.9922 5.9554 18.683 12.1923 32.642 14.9505.6921.1367 1.5331.717.2526.7213-13.157-1.3474-25.5606-8.9497-34.1952-14.7476" stroke-width=".4128"/>
      <path d="m413.825 294.105c10.7677 4.6637 20.2866 9.7676 34.5204 10.7718.7058.0497 1.604.516.3552.6835-13.2338.2945-26.6306-5.7025-36.0301-10.3784" stroke-width=".4128"/>
      <path d="m450.771 325.037c-1.5609-.9623-3.1463-1.8965-4.7842-2.7974-3.1139-1.7354-6.4453-4.074-9.6948-5.5947-4.9611-2.7351-8.366-5.4001-12.8526-8.516-.9082-.6729-3.007-2.4422-3.592-2.2431-.1158.6176-2.0783 2.7658-2.3181 2.9723 5.5991 6.3262 15.6163 12.7808 22.6574 13.6293-7.3874-.9395-17.256-7.6085-22.6574-13.6293-2.5097 1.0194-3.0072.9154-4.4223 2.0583 5.8696 5.2491 13.3557 11.015 21.0254 13.2314 5.0069 1.233 10.1805 2.367 16.217 2.2025 1.0298-.206 1.1814-.6379.4216-1.3133z" stroke-width=".4128"/>
      <path d="m450.807 311.188c-1.6221-.6925-3.2652-1.3584-4.9563-1.9905-3.2174-1.2213-6.7079-2.9462-10.0362-3.9689-5.1229-1.9202-18.2403-9.2983-18.2403-9.2983s1.4049 1.7023-.8772 4.255c6.1075 4.9775 16.5453 9.6631 23.511 9.7566-7.3132-.1409-17.6274-5.0261-23.511-9.7566-2.35 1.1134-2.8465 1.0686-4.1143 2.1893 6.2635 4.0183 14.1587 8.3375 21.8762 9.5605 5.0166.6127 10.1861 1.1244 16.0683.4307.9855-.2728 1.0902-.6613.2798-1.1778z" stroke-width=".4128"/>
      <path d="m391.397 338.059c-.5372 9.073-.247 16.8788 2.91 27.7482.1589.5471.0823 1.2535-.6047.469-3.9015-9.2203-5.1343-20.5709-3.9953-28.6848" stroke-width=".3955"/>
      <path d="m382.788 334.901c-1.3755 10.2134-3.5593 19.5507-.2866 31.4297.1623.5889-.0553 1.4177-.5679.5034-4.2542-10.6585-2.3509-23.4268-.5536-32.5325" stroke-width=".3907"/>
      <path d="m389.146 368.633c.057-1.8313.0809-3.6602.0549-5.5039-.0319-3.5213.3144-7.6334.0523-11.1-.074-5.5888.4967-9.9883.9365-15.5024.1222-1.1463.574-3.9488.1537-4.2344-.5393.3572-3.1171.4585-3.3877.4309-2.4722 8.626-2.7866 17.5011-.5597 26.3382-2.2227-8.8976-1.7603-18.0756.5597-26.3382-.302-.173 1.5541-4.1767 1.3275-4.3188-1.2243-.7671-3.8051-.8526-4.9733.3093-1.5008 8.0531-2.6492 19.905-.9475 27.105 1.2796 4.5471 2.7125 9.1453 5.558 13.4457.6257.6062 1.0347.408 1.2256-.6314z" stroke-width=".3718"/>
      <path d="m403.324 369.623c-.2994-1.9013-.6348-3.7947-1.0285-5.6946-.7319-3.6318-1.1627-7.9385-2.1384-11.4746-1.1876-5.7603-1.4272-10.4023-2.0321-16.1732-.0916-1.2049-.1467-4.177-.6678-4.4002-.5255.4612-3.355 1.0062-3.6597 1.0239-1.0261 9.3327 1.2865 20.6536 4.5926 27.3017-3.3958-6.7644-5.5223-18.3703-4.5926-27.3017-.368-.127.8916-4.5798.613-4.6879-1.5052-.5832-4.375-.2305-5.4365 1.1694-.0656 8.5748 1.0099 21.0136 4.3156 28.1599 2.3143 4.4783 4.808 8.9831 8.8043 12.939.8118.5192 1.2246.2447 1.2301-.8617z" stroke-width=".4032"/>
      <path d="m381.297 314.292c-.1278 1.6905.8078 6.6519 2.5869 5.5562 1.2571-.7742.4923-3.7837.5551-4.2156" fill="#ed1c26" stroke-linecap="round" stroke-width=".4071"/>
      <path d="m383.241 318.547c-.2653-.8858-.3729-2.1913-.715-3.1782" fill="#ed1c26" stroke-linecap="round" stroke-linejoin="round" stroke-width=".4071"/>
      <path d="m384.926 313.051c-.5126 1.6271-.7361 6.659 1.254 5.9365 1.4061-.5106 1.3488-3.6015 1.5092-4.0112" fill="#ed1c26" stroke-linecap="round" stroke-width=".414"/>
      <path d="m385.85 317.59c-.0562-.9176.138-2.2145.0301-3.246" fill="#ed1c26" stroke-linecap="round" stroke-linejoin="round" stroke-width=".414"/>
      <path d="m387.332 313.071c-.3542 1.6626-.093 6.6927 1.8198 5.8099 1.3516-.6237.9974-3.6975 1.1178-4.1188" fill="#ed1c26" stroke-linecap="round" stroke-width=".411"/>
      <path d="m388.688 317.516c-.1441-.9093-.0753-2.217-.282-3.2354" fill="#ed1c26" stroke-linecap="round" stroke-linejoin="round" stroke-width=".411"/>
      <path d="m389.543 334.764.0332-.0074c-.0045.0146-.0188.0111-.0332.0074z" stroke-width=".4128"/>
      <path d="m413.51 304.318c1.4204 2.1657 2.673 3.6958 4.7108 5.3508 2.7396 2.0158 6.1563 3.4246 9.8587 4.012 1.3312.2168 2.2881.0748 1.5507-1.1737-1.1412-1.8868-5.0888-6.1309-6.6335-7.1679-3.0295-2.0259-4.9935-2.614-7.2847-3.7844z" stroke-width=".4128"/>
      <path d="m412.159 273.173c3.7317-8.4697 8.0393-16.0416 7.6653-26.7939-.0185-.5331.2537-1.2666.6678-.3249 1.6106 9.8913-3.2323 20.4458-7.1116 27.8913" stroke-width=".4128"/>
      <path d="m411.169 280.13c7.2202-6.9523 14.5036-12.8417 19.3109-23.3817.2384-.5226.9522-1.1954.7244-.0908-3.3424 10.1208-12.5041 18.7197-19.362 24.6304" stroke-width=".4128"/>
      <path d="m409.266 281.79c9.7574-3.3668 19.047-5.7449 28.4534-13.3423.4664-.3768 1.2436-.6659.6803.2119-7.9147 7.8125-20.1862 11.8827-29.1129 14.4529" stroke-width=".4128"/>
      <path d="m410.448 285.193c10.3861-.7393 20.0259-.6483 31.3448-5.5424.5612-.2427 1.5128-.4038.59.3776-9.9502 5.4823-22.963 6.2545-32.3117 6.4409" stroke-width=".4128"/>
      <path d="m409.687 288.52c11.6307 2.2982 22.1528 5.2855 36.2644 3.2958.6996-.0986 1.6351 0 .5133.5919-12.8197 3.0462-27.3379-.0027-37.6387-2.5978" stroke-width=".4128"/>
      <path d="m399.825 337.363c1.4508 10.8966 1.8335 21.0516 8.4856 32.7099.3298.5781.3396 1.4843-.4381.6413-7.3113-10.1859-8.9379-23.8467-9.6496-33.6805" stroke-width=".4128"/>
      <path d="m405.369 335.389c3.8739 10.2221 6.6419 19.9717 15.2176 29.7335.4253.484.6369 1.3919-.2267.7221-8.7954-8.1835-13.485-21.0428-16.4619-30.4055" stroke-width=".4128"/>
      <path d="m410.793 330.573c6.3815 9.2648 11.4532 18.2833 22.886 26.1735.5669.3912.7846 1.0696-.0971.7528-11.3429-6.2992-19.1696-17.9903-24.3889-26.5883" stroke-width=".4128"/>
      <path d="m416.172 321.421c7.0264 8.8582 12.7284 17.5501 24.6977 24.7307.5934.3561 1.2518 1.247-.0434.7571-11.7664-5.5985-20.4074-16.7904-26.2269-25.0537" stroke-width=".4128"/>
      <path d="m417.227 311.891c8.6148 7.5698 15.8942 15.1923 29.0519 20.3032.6524.2533 1.3986.8991.1025.7521-12.6545-3.5868-23.3061-13.1894-30.6189-20.3709" stroke-width=".4128"/>
      <path d="m447.425 340.678c-1.3858-1.3067-2.804-2.5903-4.2853-3.8515-2.8106-2.4206-5.6971-5.4971-8.7025-7.7297-4.4852-3.8266-7.3668-7.2486-11.2628-11.3581-.7781-.8744-2.5229-3.1117-3.1818-3.0359-.2748.5991-2.8551 2.3487-3.1563 2.506 4.2535 7.5911 14.2892 14.4927 20.1998 18.6251-6.4254-4.1196-16.076-11.3849-20.1998-18.6251-2.8687.4919-3.361.2802-5.1203 1.1316 4.8042 6.5609 11.1633 13.9904 18.5993 17.8734 4.9078 2.3187 10.0139 4.5731 16.3428 5.7006 1.1242.0125 1.3899-.3912.7669-1.2364z" stroke-width=".4128"/>
      <path d="m448.402 298.101c-1.6152-.3973-3.2448-.7674-4.9123-1.0998-3.176-.6494-6.6945-1.7185-9.936-2.1709-5.0526-1.0116-8.7175-2.3176-13.4477-3.7312-.9681-.3189-3.2589-1.2222-3.724-.9365.0528.5054-1.1371 2.613-1.2965 2.827 6.5134 3.6568 15.2786 5.3098 23.36 5.5039-8.5019-.1872-17.0972-2.04-23.36-5.5039-1.9542 1.3539-2.2263 2.0694-3.1859 3.2739 6.4818 2.7599 14.3243 4.8739 21.6315 4.8758 4.7167-.1648 9.5554-.4437 14.8286-1.9242.855-.3908.8804-.7601.0423-1.1141z" stroke-width=".4128"/>
      <path d="m446.904 284.31c-2.6919-.7236-17.1075 1.6876-28.2467.0691-.8617 1.6351-1.0398 2.5375-3.0322 3.449 6.5195.5696 13.2482.8821 20.1413-.2321-6.8931 1.1142-13.6217.8016-20.1413.232-.6604.253-2.1826 1.9092-2.9915 2.3234 8.3857 1.5368 15.3621 3.1712 25.2993.1617 2.7099-1.1146 5.5853-2.2389 8.5845-4.0719.9597-.7207 1.2397-1.3877.3866-1.9312z" stroke-width=".4128"/>
      <path d="m442.696 271.599c-1.4795.6187-2.5908 1.0601-4.7329 1.547-3.0908.91-5.1403 1.244-8.4361 2.5704-3.9047 1.7036-13.8241 6.2541-17.9889 7.2987.4062.3845 1.9287 1.1379 1.9613 1.3988 7.0485-1.0987 14.8046-3.7069 21.0177-7.3278-6.3081 3.7052-14.0352 6.2817-21.0178 7.3279-.4493.5203.2058 1.8743.3259 2.5874 6.9774-1.2437 12.7904-2.555 19.6611-6.2721 4.3053-2.6069 7.004-4.4481 9.7876-8.324.4004-.552.1982-1.0872-.5779-.8063z" stroke-width=".4128"/>
      <path d="m435.65 259.707c-4.5628 3.1934-8.195 6.6073-12.4657 10.1386-3.6381 3.1443-13.3493 10.1142-17.5952 12.6525.6442.2658 2.7333.5361 2.8936.8003 7.5023-3.5896 15.0957-9.0165 20.4542-14.9803-5.4267 6.0855-13.0022 11.4689-20.4541 14.9804-.2653.704-.7645 2.0502-.2906 2.7614 7.3526-3.7181 13.6956-6.0736 21.2947-13.541 3.6667-4.2358 5.8673-7.1095 7.2021-12.1601.1946-.7206-.2886-1.2158-1.039-.6518z" stroke-width=".4128"/>
      <path d="m425.49 249.016c-5.5516 12.1638-12.0388 21.4146-17.7793 32.4637.6436.0422 2.6924-.5877 2.9257-.3806 5.0261-6.077 9.0741-13.2379 11.544-21.053-2.5036 7.8218-6.5236 14.9927-11.5441 21.0531.0351.7905.1919 1.7341.8558 2.2772 4.8552-6.225 9.9402-11.4714 12.7523-19.8079 1.5427-5.4696 3.099-8.7872 2.366-14.2629-.1011-.7828-.693-1.1081-1.1204-.2896z" stroke-width=".4128"/>
      <path d="m406.581 234.955c-.9038.531 4.6194 10.248 3.4676 22.0602-.2863 2.9354-.5617 5.8562-1.7199 8.6297-.6742 1.6143-1.8064 2.3223-2.3245 3.9499-.1236.6368-.1685 2.7487.3357 3.1188.4326.565 3.8787 2.2083 4.8004 3.0796 2.5458-2.038 5.236-11.5749 5.4625-19.0035.5926-10.678-6.8619-23.8032-10.0218-21.8347z" stroke-width=".4128"/>
      <path d="m441.797 354.154c-1.2378-1.4722-2.5113-2.9246-3.8518-4.361-2.5398-2.7534-5.0724-6.1791-7.8337-8.7632-4.0576-4.3571-6.541-8.1323-9.9649-12.7125-.677-.9692-2.1594-3.4223-2.8374-3.4164-.3553.5771-3.1961 2.0715-3.5218 2.1983 3.3402 8.1446 11.1766 17.8705 18.0959 21.0325-7.2407-3.3666-14.8423-13.2574-18.0959-21.0325-2.9719.1898-3.444-.0775-5.337.5955 4.0305 7.1605 9.5265 15.3676 16.5691 20.0991 4.6794 2.8757 9.5681 5.7076 15.8413 7.5298 1.1383.1335 1.4596-.2468.9362-1.1696z" stroke-width=".4128"/>
      <path d="m431.753 365.775c-1.0085-1.7054-2.0535-3.3942-3.1644-5.0742-2.1011-3.2167-4.1155-7.1429-6.4485-10.2077-3.3617-5.0949-5.2875-9.3843-8.0168-14.6384-.532-1.1059-1.6579-3.8773-2.3067-3.9532-.4084.5666-3.3019 1.8012-3.6283 1.8957 2.2258 9.0095 8.5625 20.2346 14.802 24.4137-6.5225-4.4342-12.615-15.805-14.802-24.4137-2.8639-.1598-3.2834-.4992-5.1733-.0177 3.0028 8.0535 7.2822 17.3903 13.4532 23.2426 4.1322 3.6053 8.4697 7.1897 14.2508 9.8751 1.0724.279 1.4248-.0839 1.034-1.1222z" stroke-width=".4249"/>
      <path d="m417.093 370.728c-.6544-1.9227-1.343-3.8318-2.0902-5.7392-1.4081-3.6492-2.6466-8.0409-4.2771-11.555-2.2597-5.7837-3.3729-10.5505-5.0596-16.4311-.3181-1.2331-.9338-4.2995-1.4901-4.4536-.4314.5546-3.12 1.5358-3.4174 1.5991.7504 9.8059 4.7953 22.4272 9.6878 27.5659-5.1058-5.4413-8.9182-18.1894-9.6878-27.5659-.3871-.0771.0149-4.8693-.2806-4.94-1.5953-.3813-4.36.4069-5.143 2.0116 1.5549 8.8802 4.9653 21.5893 9.5766 28.4945 3.1293 4.2914 6.4405 8.5837 11.1306 12.0866.899.4174 1.2544.0725 1.0508-1.0729z" stroke-width=".4128"/>
      <path d="m394.653 322.576c1.0409 8.6178 3.5994 17.4499 9.9429 24.0066 1.0301.9936 1.9967 1.4615 2.2832-.0223.4087-2.2586-.3479-7.5602-.9466-9.3628-1.1804-3.5289-2.0593-5.8401-3.2268-8.2097l-3.7593-9.289-4.2934 2.8771z" stroke-width=".4128"/>
      <path d="m401.005 323.334c.2257 3.2325 1.8613 6.7021 3.0342 9.7317 1.6992 3.8411 4.4646 7.4078 8.0106 10.2326 1.2716 1.0218 2.3598 1.4265 2.3153-.3892-.0955-2.7597-2.0637-8.9648-3.0801-11.0204-1.9978-4.0226-4.1575-8.1551-5.8802-10.7969z" stroke-width=".4128"/>
      <path d="m395.163 315.341c-.1706 2.4484-.0026 3.4422.7838 5.9502 1.2042 3.2269 3.49 6.4867 6.6333 9.3692 1.1263 1.0403 2.147 1.582 2.3238.225.2411-2.0687-.6532-7.2003-1.4027-8.9509-1.4759-3.4278-1.2747-2.7151-2.6475-5.0573z" stroke-width=".4128"/>
      <path d="m389.349 322.189c-.4797 8.66.5007 17.758 5.6143 25.1754.8429 1.1343 1.7149 1.7404 2.257.3189.7983-2.1679.9788-7.5128.7032-9.3811-.5478-3.6587-1.0111-6.0707-1.7489-8.5835l-2.0855-9.7281z" stroke-width=".4128"/>
      <path d="m388.844 313.725c-.5251 2.405-.5019 3.4109-.0887 5.9936.7241 3.347 2.5151 6.8611 5.2108 10.1076.9648 1.1706 1.8974 1.8342 2.27.5114.5397-2.02.3998-7.2161-.0884-9.0438-.9641-3.58-.8683-2.8488-1.888-5.3401z" stroke-width=".4128"/>
      <path d="m382.883 322.486c-1.0689 8.6149-.7104 17.7519 3.8877 25.452.7639 1.1811 1.5929 1.8367 2.2308.4496.9444-2.1172 1.4887-7.441 1.3409-9.3217-.2973-3.6832-.5953-6.1174-1.1604-8.6681l-1.4185-9.8302z" stroke-width=".4128"/>
      <path d="m405.483 321.143c.3994 2.7945 2.8688 5.6172 4.1723 8.3188 1.8592 3.4053 4.742 6.4561 8.3451 8.745 1.2927.829 2.3738 1.1027 2.2337-.5781-.2402-2.5522-2.4874-9.1537-3.5865-10.9661-2.1598-3.5457-4.4859-6.5459-6.3041-8.8359z" stroke-width=".4128"/>
      <path d="m401.023 313.863c-.2316 1.0484.0053 2.0076.5872 3.8448.9099 2.9698 2.7605 6.3895 5.9121 9.3567 1.1281 1.0696 2.2069 1.6926 2.597.5476.5627-1.7499-.0675-6.2827-.67-7.9085-1.189-3.1846-.7233-2.5736-1.948-4.8051z" stroke-width=".4128"/>
      <path d="m409.732 313.791c.3487 2.8415 2.934 6.2461 4.3392 8.8474 2.0195 3.2844 4.4848 6.7715 8.5458 9.0389 1.4567.821 2.6892 1.1085 2.5857-.4929-.1889-2.4322-2.58-7.7881-3.7808-9.5388-2.36-3.4255-5.9741-8.559-7.9845-10.7822z" stroke-width=".4128"/>
      <path d="m405.547 310.855c.004.8375.2319 2.3401.772 3.4894 1.1975 2.8037 3.5672 5.5763 6.8797 7.9653 1.1865.8626 2.2755 1.2875 2.513.0703.3312-1.8541-.7807-6.2728-1.5349-7.7884-1.4854-2.9674-.9762-2.4418-2.3865-4.4489z" stroke-width=".4128"/>
      <path d="m412.647 299.067c1.6868 1.9961 3.4043 3.0369 5.6391 4.4589 2.9778 1.7039 6.5505 2.7315 10.302 2.9123 1.3496.0705 2.2817-.1744 1.3902-1.3341-1.3741-1.7496-5.6562-4.8648-7.3224-5.7267-3.267-1.6824-5.4718-2.7232-7.8965-3.6363z" stroke-width=".4128"/>
      <path d="m410.947 308.701c.8687 2.5894 5.0627 5.8427 6.6451 8.0269 2.1757 2.7156 5.1449 4.9375 8.5799 6.3547 1.2337.5155 2.1895.5721 1.7673-.9031-.6641-2.2352-3.5582-6.8184-4.808-8.2447-2.4531-2.7888-6.5543-7.486-8.4934-9.2139z" stroke-width=".411"/>
      <path d="m424.521 319.801c-3.4005-3.2086-6.5994-6.9252-8.7118-11.0737" stroke-width=".411"/>
      <path d="m410.76 302.784c2.2369 1.0798 3.5318 2.3091 5.2391 4.0249 2.0786 2.3309 3.8127 5.1314 4.4115 8.5269.221 1.2202.072 2.1315-1.2178 1.5853-1.949-.8507-6.1082-3.849-7.1773-5.1747-2.0884-2.6009-1.6556-2.3102-2.6814-4.435z" stroke-width=".4128"/>
      <path d="m408.804 298.189c.8312 2.1064 1.8551 4.1487 3.4507 5.9121 2.2031 2.1892 5.0719 3.4476 8.6424 4.5538 1.2823.4026 2.2867.4339 1.8897-.7674-.6271-1.8197-3.7469-5.7922-5.2601-7.2742-2.2443-2.1017-5.2809-3.1148-7.2666-4.4989z" stroke-width=".4128"/>
      <path d="m419.418 306.211c-1.9505-1.8693-4.629-4.0067-8.0371-6.6582" fill="none" stroke-width=".4128"/>
      <path d="m408.757 294.054c2.39-.9227 3.1348-.8037 5.7446-.8731 3.3903.0876 6.9952 1.1515 10.3717 3.1158 1.2172.7014 1.9241 1.4629.613 2.0493-2.003.868-6.9957.6841-8.8512.5487-3.0382-.2278-4.8496-.4562-6.9706-.8277l-.7223-3.8417z" stroke-width=".4128"/>
      <path d="m424.993 303.616c-2.8068-1.6354-5.2423-2.4928-8.0154-3.4627" fill="none" stroke-width=".4128"/>
      <path d="m408.7 279.689c1.8392-1.8934 3.0485-3.4812 4.1092-5.8848 1.1986-3.1864 1.4924-6.9222.7901-10.7681-.2464-1.384-.7471-2.3147-1.837-1.3051-1.6371 1.5528-4.109 6.1918-4.6767 7.967-1.1046 3.4798-2.8569 7.8754-3.2991 10.4293z" stroke-width=".4128"/>
      <path d="m405.335 287.661c2.209-.7108 6.6562-4.1628 8.5238-5.5767 2.3231-1.9576 4.0574-5.5363 5.2815-8.7617.4451-1.1583-.0188-1.4626-1.2771-1.1273-1.9063.5314-5.3058 2.4808-6.5265 3.6116-2.3868 2.22-6.0338 5.5641-7.5147 7.3413z" stroke-width=".4128"/>
      <path d="m415.392 287.65c2.9733-1.0004 5.8675-2.9051 8.3117-5.5274.883-.9394 1.2983-1.7917-.0219-1.9422-2.01-.2055-6.7262.7726-8.3294 1.3958-3.1383 1.2272-6.5854 2.5492-8.6925 3.6924l1.3032 3.324c2.216.2235 5.2941-.4228 7.429-.9426z" stroke-width=".4128"/>
      <path d="m408.385 292.826c2.1332.9905 3.6597.454 6.0186.5959 3.0701.0064 6.5898-.2954 9.7065-2.1691 1.1233-.6688 1.7868-1.4119.6194-2.0355-1.7848-.9251-6.4538-1.5707-8.1369-1.4866-3.2968.172-5.4857.3787-7.8043.8276z" stroke-width=".4128"/>
      <path d="m411.66 266.705c-1.1114 4.1011-3.0398 8.9654-5.7245 12.4873" fill="none" stroke-width=".4128"/>
      <path d="m415.666 275.606c-2.5909 2.9528-5.9395 6.0345-9.5029 8.0419" fill="none" stroke-width=".4128"/>
      <path d="m419.151 282.849c-3.5662 1.8958-6.4407 2.7562-9.9487 3.6699" fill="none" stroke-width=".4128"/>
      <path d="m420.358 290.048c-4.0048.6948-7.1247.9734-10.5945 1.0637" fill="none" stroke-width=".4128"/>
      <path d="m420.236 296.649c-4.5317-.4167-6.1638-.5953-10.1448-.4478" fill="#ed1c26" stroke-width=".4128"/>
      <path d="m417.214 313.072c-2.6046-3.3977-3.1406-3.4772-6.0371-7.4705" fill="none" stroke-width=".4128"/>
      <path d="m412.767 318.758c-2.3987-3.7446-3.8343-5.5195-4.7166-9.7613" fill="none" stroke-width=".4128"/>
      <path d="m407.258 322.852c-1.4371-3.7716-1.9602-5.0339-3.3389-9.3986" fill="none" stroke-width=".4128"/>
      <path d="m415.949 332.393c-1.679-1.8901-4.7309-6.7568-5.8157-9.5217" fill="none" stroke-width=".4128"/>
      <path d="m421.225 327.511c-1.2912-1.6964-4.7092-6.0173-5.7386-7.9704" fill="none" stroke-width=".4128"/>
      <path d="m410.907 337.415c-1.3812-2.2581-3.967-5.8413-6.213-10.3313" fill="none" stroke-width=".4128"/>
      <path d="m404.232 341.425c-1.8451-3.3713-4.8375-12.2595-6.1301-15.9594" fill="none" stroke-width=".4128"/>
      <path d="m402.127 328.738c-1.5502-3.4955-2.7722-7.4274-3.575-11.3032" fill="none" stroke-width=".4128"/>
      <path d="m411.236 242.376c2.4801 6.8061 2.7881 13.5446 2.0914 17.6228" fill="none" stroke-width=".4128"/>
      <path d="m405.201 284.034c.783-.9712 4.0599-3.7604 5.1708-2.5646.8582.9238-1.2813 4.5232-4.3567 5.6061" stroke-linecap="round" stroke-linejoin="round" stroke-width=".4297"/>
      <path d="m408.933 282.73c-2.0661 1.636-1.9965 1.6703-3.3141 2.6544" fill="#ed1c26" stroke-linecap="round" stroke-linejoin="round" stroke-width=".4297"/>
      <path d="m404.487 285.51c1.5248-2.0812 3.7692-5.915 2.8938-6.8027-.6314-.6403-1.2555-.8639-4.3876 2.586" stroke-linecap="round" stroke-linejoin="round" stroke-width=".4297"/>
      <path d="m406.332 280.049c-.8077 1.5233-1.6793 1.9065-2.039 2.6154" fill="#ed1c26" stroke-linecap="round" stroke-linejoin="round" stroke-width=".4297"/>
      <path d="m410.671 298.802c1.824.1872 6.9431 1.9273 5.4578 3.3471-1.0495 1.0031-4.1193-.2317-4.5907-.2521" stroke-linecap="round" stroke-width=".4248"/>
      <path d="m414.858 301.332c-.8964-.4-2.2681-.7319-3.2585-1.2197" fill="#ed1c26" stroke-linecap="round" stroke-linejoin="round" stroke-width=".4248"/>
      <path d="m409.887 295.367c4.0087.4463 6.1425 1.5273 6.2609 2.412.1869 1.397-2.7412 1.6918-5.7379 1.4483" stroke-linecap="round" stroke-linejoin="round" stroke-width=".4201"/>
      <path d="m414.317 297.698c-1.4674-.2087-2.3798-.5084-4.0045-.5973" fill="#ed1c26" stroke-linecap="round" stroke-linejoin="round" stroke-width=".4201"/>
      <path d="m408.385 291.897c2.5996.436 7.0308.477 7.0463 2.4524.0092 1.167-2.6029 1.6802-4.9656 1.5791" stroke-linecap="round" stroke-linejoin="round" stroke-width=".4128"/>
      <path d="m408.243 293.376c.9284.485 3.3606.5897 5.1284.9194" fill="#ed1c26" stroke-linecap="round" stroke-linejoin="round" stroke-width=".4128"/>
      <path d="m406.955 289.715c3.3872-.8234 7.1055-1.0477 7.2284.1068.1357 1.2754-2.9265 2.8717-6.1568 3.0612" stroke-linecap="round" stroke-linejoin="round" stroke-width=".4297"/>
      <path d="m407.411 291.337c1.5985-.2392 3.0165-.7309 4.8984-1.0657" fill="#ed1c26" stroke-linecap="round" stroke-linejoin="round" stroke-width=".4297"/>
      <path d="m405.747 286.721c.5441-.1543 6.0355-2.8113 7.1358-1.2856.8105 1.2307-1.8639 2.9548-4.7013 4.4387" stroke-linecap="round" stroke-linejoin="round" stroke-width=".4297"/>
      <path d="m411.033 286.383c-2.9933 1.3626-2.9539 1.5731-5.228 2.0806" fill="#ed1c26" stroke-linecap="round" stroke-linejoin="round" stroke-width=".4297"/>
      <path d="m425.563 310.669c-1.1202-.743-1.6793-1.1888-2.782-2.0136" fill="none" stroke-width=".4128"/>
      <path d="m411.157 301.537c1.7659.4615 6.5054 2.9546 4.7874 4.1297-1.2138.8302-4.022-.8536-4.4834-.9453" stroke-linecap="round" stroke-width=".428"/>
      <path d="m414.836 304.667c-.813-.5305-2.1069-1.0661-2.997-1.6976" fill="#ed1c26" stroke-linecap="round" stroke-linejoin="round" stroke-width=".428"/>
      <path d="m410.82 304.382c1.7185.5946 6.2184 3.441 4.4011 4.4809-1.2841.7347-3.9318-1.1576-4.3834-1.2842" stroke-linecap="round" stroke-width=".429"/>
      <path d="m414.205 307.782c-.7626-.5908-2.0041-1.2233-2.8345-1.9206" fill="#ed1c26" stroke-linecap="round" stroke-linejoin="round" stroke-width=".429"/>
      <path d="m410.125 307.024c1.6451.7508 5.8127 3.9998 3.8915 4.866-1.3575.6121-3.7861-1.516-4.2216-1.6838" stroke-linecap="round" stroke-width=".4296"/>
      <path d="m413.124 310.721c-.6945-.6585-1.861-1.4028-2.6114-2.1735" fill="#ed1c26" stroke-linecap="round" stroke-linejoin="round" stroke-width=".4296"/>
      <path d="m409.108 309.06c1.4757 1.007 4.9568 4.8838 2.9001 5.4235-1.4532.3814-3.4368-2.1089-3.8334-2.345" stroke-linecap="round" stroke-width=".4292"/>
      <path d="m411.353 313.188c-.5577-.7613-1.5636-1.684-2.1549-2.5648" fill="#ed1c26" stroke-linecap="round" stroke-linejoin="round" stroke-width=".4292"/>
      <path d="m407.71 310.365c1.2274 1.2594 3.7969 5.7011 1.6648 5.8497-1.5065.105-2.9097-2.7014-3.247-3.006" stroke-linecap="round" stroke-width=".4264"/>
      <path d="m409.015 314.824c-.3813-.849-1.1666-1.9389-1.5548-2.9111" fill="#ed1c26" stroke-linecap="round" stroke-linejoin="round" stroke-width=".4264"/>
      <path d="m405.548 311.954c1.1615 1.3116 3.5006 5.8604 1.3633 5.9158-1.5102.0392-2.7681-2.8254-3.0894-3.1444" stroke-linecap="round" stroke-width=".4255"/>
      <path d="m406.623 316.465c-.3373-.8646-1.066-1.9876-1.404-2.9757" fill="#ed1c26" stroke-linecap="round" stroke-linejoin="round" stroke-width=".4255"/>
      <path d="m403.344 312.844c1.0308 1.4015 2.9233 6.1241.789 6.0042-1.508-.0848-2.4854-3.0411-2.7748-3.3851" stroke-linecap="round" stroke-width=".4234"/>
      <path d="m403.98 317.424c-.2528-.8888-.8706-2.067-1.1122-3.0789" fill="#ed1c26" stroke-linecap="round" stroke-linejoin="round" stroke-width=".4234"/>
      <path d="m401.149 313.501c.8887 1.4821 2.3092 6.3436.1955 6.0455-1.4934-.2107-2.1762-3.2366-2.4306-3.6035" stroke-linecap="round" stroke-width=".4209"/>
      <path d="m401.333 318.116c-.1644-.9063-.6639-2.1314-.805-3.1593" fill="#ed1c26" stroke-linecap="round" stroke-linejoin="round" stroke-width=".4209"/>
      <path d="m397.975 313.473c.8927 1.458 2.3303 6.2875.2211 6.055-1.4903-.1642-2.1843-3.1766-2.4396-3.5364" stroke-linecap="round" stroke-width=".4155"/>
      <path d="m398.178 318.094c-.168-.9035-.6713-2.1161-.8165-3.1422" fill="#ed1c26" stroke-linecap="round" stroke-linejoin="round" stroke-width=".4155"/>
      <path d="m395.506 342.22c-1.2313-3.6024-2.4906-11.1844-3.5224-15.0225" fill="none" stroke-width=".4128"/>
      <path d="m394.326 326.409c-1.0278-3.6563-2.1962-6.2489-2.4281-10.1892" fill="none" stroke-width=".4128"/>
      <path d="m394.313 312.958c.9087 1.4345 2.4112 6.2447.3152 6.0917-1.4809-.1082-2.217-3.1163-2.476-3.469" stroke-linecap="round" stroke-width=".4098"/>
      <path d="m394.587 317.606c-.1809-.9038-.6994-2.1061-.8597-3.1343" fill="#ed1c26" stroke-linecap="round" stroke-linejoin="round" stroke-width=".4098"/>
      <path d="m382.848 313.085c-.6255 2.3932-.6445 3.3999-.3403 5.9931.5826 3.3652 2.2238 6.9227 4.7796 10.2341.9144 1.1939 1.818 1.8798 2.2457.5655.6238-2.0077.7024-7.2084.2916-9.0483-.8125-3.6038-.7475-2.8701-1.6614-5.3864z" stroke-width=".4128"/>
      <path d="m387.398 342.703c-.5866-3.9315-1.4985-11.892-2.2668-15.7825" fill="none" stroke-width=".4128"/>
      <path d="m392.094 312.482c.5965 1.5867 1.0891 6.6116-.9256 6.0597-1.4236-.3899-1.533-3.4934-1.7144-3.8903" stroke-linecap="round" stroke-width=".407"/>
      <path d="m391.421 317.112c.0065-.9247-.2562-2.208-.2045-3.2514" fill="#ed1c26" stroke-linecap="round" stroke-linejoin="round" stroke-width=".407"/>
      <path d="m388.454 311.838c.7553 1.5176 1.7583 6.466-.3023 6.1226-1.4559-.2426-1.8816-3.3186-2.1025-3.695" stroke-linecap="round" stroke-width=".407"/>
      <path d="m388.257 316.513c-.088-.9206-.4803-2.1703-.5353-3.2135" fill="#ed1c26" stroke-linecap="round" stroke-linejoin="round" stroke-width=".407"/>
      <path d="m387.993 326.341c-1.0932-3.8076-1.5528-6.6398-2.2829-11.3061" fill="none" stroke-width=".4128"/>
      <path d="m385.443 312.75c.7415 1.5244 1.6995 6.4817-.3579 6.1196-1.4537-.2558-1.8513-3.3356-2.0688-3.7139" stroke-linecap="round" stroke-width=".407"/>
      <path d="m385.203 317.422c-.0796-.9213-.4606-2.1746-.5061-3.2182" fill="#ed1c26" stroke-linecap="round" stroke-linejoin="round" stroke-width=".407"/>
      <path d="m382.141 313.61c.9154 1.4267 2.4494 6.2371.3637 6.1193-1.4736-.0832-2.2305-3.095-2.4909-3.4451" stroke-linecap="round" stroke-width=".407"/>
      <path d="m382.452 318.279c-.1873-.9056-.7129-2.1054-.8808-3.1365" fill="#ed1c26" stroke-linecap="round" stroke-linejoin="round" stroke-width=".407"/>
      <path d="m376.896 312.674c1.058-4.3684 6.5476-7.5089 11.5949-5.8268 2.1146.7047 5.093 5.2528 11.9311 5.4221 8.248-.8265 9.0976-10.4406 7.007-16.341-3.1585-8.9145-9.0085-12.1779-3.6519-23.2831 2.7789-5.7614 2.69-14.2902 2.146-18.0009-.2448-1.4319.607-1.4674 1.2747-.0446 1.4494 3.1581 1.9317 9.6207 1.4581 12.4001-.244 2.3474-.8905 4.6444-1.754 7.0354-4.1478 7.941-.1784 11.5281 3.3741 19.2987 3.8402 8.3999 3.7693 20.3226-7.4849 23.2742-8.1228.8089-13.4734-5.6983-20.8455-.0304" stroke-width=".4128"/>
      <path d="m392.235 345.167.0384-.0085c-.005.0167-.0217.0127-.0384.0085z" stroke-width=".4128"/>
      <path d="m346.487 258.918c0 .298-.2632.5395-.5879.5395s-.5881-.2415-.5881-.5395.2634-.5396.5881-.5396.5879.2416.5879.5396z" fill="#e6e6e6" stroke-width=".4572"/>
      <path d="m344.722 257.685c-.3783 0-1.0052.0135-1.4455.1304" fill="none" stroke-width=".4572"/>
    </g>
    <path d="m329.134 264.482c.066.1893.2027 3.4484 3.5265 4.2543 3.1426.7265 7.5094-1.3928 11.5054-1.5746 3.0987-.3141 6.4455 1.3298 9.4352 1.9439l-.1846.6934c-2.3021-.4804-6.6608-1.8856-8.7379-1.7595-4.9887.5938-8.5287 3.3921-13.1893 2.0697-5.052-1.8101-2.9782-4.565-2.3553-5.6272z" fill="#eac102" stroke="#000" stroke-width=".4395"/>
    <path d="m373.234 300.685c.0307-3.4213-1.9271-4.4861-2.9406-5.4607-.3282-.0049 1.8682.1909 3.832-1.3578-6.0415-1.6737-4.4375-4.8825-6.711-7.4959.5838-.6519 2.8079.4491 3.384.3128-1.261-1.2034-2.7624-3.4407-3.3506-4.8464 1.9574 1.2857 4.2341-.6334 4.7749-3.1896-1.761 2.1298-5.0197.689-4.6841-2.3914.2808-2.0255.0936-1.8494-.5936-3.9076.9173.0737 1.1552.4708 1.9584.8341-.1847-.9605-.9961-2.4905-1.8397-3.036-.0865-1.6766-1.9552-4.0035-2.6767-5.599 1.0008.032 2.2409.6249 2.8629.9626-1.25-2.7301-3.9946-5.6006-7.0129-7.4982 1.2657-.5079 1.8708-1.368 2.1632-2.2539-.9292.4067-3.7098 1.0665-4.7869 1.0219-3.8352.0188-5.466-.3249-9.0394-.6492-3.3577-.1926-5.0218.3923-7.399 2.7652l1.1449 1.9094 2.9186 5.7131c1.1154.4057 7.4808.4933 6.1168 3.7202l-2.8299.0184.4142 1.8268c5.4426.067 1.5638 9.5679-3.0644 6.6331 1.1611 2.6037 2.5973 3.5526 4.3275 2.8415-.5256.7073-1.9514 1.7003-1.8578 2.8401-.8613.7548-1.3382 1.341-1.4683 2.272-.1135.3637-1.5533.7969-2.4849.697 1.4242 1.4161 2.818 1.738 4.283.7305-1.264 1.0681-4.4072 3.2445-4.0445 5.2703.2654 3.3755-1.1081 3.7101-3.6384 5.7268 2.7587.3302 5.0706.1756 5.7237-3.0207-.1557 1.4174-1.0621 2.8348-2.5873 4.2521-2.2823 2.2873-5.8266 2.3654-7.3169 5.7008-9.864 10.5381-4.2753 26.1274.7463 40.9411 4.6755 8.8676 6.4491 25.6724 8.2086 34.54.0501 6.3715 8.1616 9.7475 12.3339 14.5351 4.1723-4.7874 12.2838-8.1635 12.3338-14.5349 1.7596-8.8676 3.5331-25.1433 8.2087-34.0109 5.0216-14.8137 10.6102-30.9322.7463-41.4703-5.5805-5.8291-9.6736-5.4409-11.6727-9.2913l.1036.0541c1.8229.704 3.7014 2.5305 5.4143 3.8948z" stroke="#646464" stroke-linejoin="round" stroke-width=".3969"/>
    <path d="m341.784 269.176c-.5844 3.3684 5.628 2.3226 8.3122 3.1234l1.3894-2.0527c-3.483-.8195-5.2274 1.2345-9.7016-1.0707z" fill="#eac102" stroke="#000" stroke-width=".4395"/>
    <path d="m341.382 258.83c-3.6138.2772-10.8628 3.7654-5.9582 7.0476 1.2499-3.7105 5.1118-2.1954 7.3667-.4656 1.4764 1.3108 4.439 1.2974 6.5038 1.855 1.1222-2.2088-5.9036-5.1927-7.9123-8.437z" fill="#eac102" stroke="#000" stroke-width=".4395"/>
    <path d="m350.017 266.273c1.4963.1473 2.5369.5593 3.0738 1.2365.561.7137.9605 1.4388 1.1982 2.1751.2668 1.0409.3065 1.9554.0772 2.7163.2293-.7609.1896-1.6754-.0772-2.7163-.2377-.7363-.637-1.4614-1.1982-2.1751-.5369-.6772-1.5775-1.0892-3.0738-1.2365z" fill="#ed1c26" stroke="#646464" stroke-width=".4395"/>
    <path d="m358.815 270.024c.6801.4897 1.0911 1.0104 1.2336 1.5621.6114-.838.6946-1.7666.2398-2.7435.4548.9769.3719 1.9053-.2398 2.7435-.1425-.5517-.5535-1.0724-1.2336-1.5621z" fill="#ed1c26" stroke="#646464" stroke-width=".4395"/>
    <path d="m361.47 273.443c.9114.7452 1.4667 1.5988 1.6854 2.5904.695-1.1961.9091-2.4155.5759-3.5837.3332 1.1682.1191 2.3876-.5759 3.5837-.2187-.9916-.774-1.8452-1.6854-2.5904z" fill="#ed1c26" stroke="#646464" stroke-width=".4395"/>
    <path d="m358.726 278.299c.708-.619 1.0329-1.307 1.0048-2.0553.0281.7483-.2968 1.4363-1.0048 2.0553-.0647-.4335-.2913-.7819-.6798-1.045.3885.2631.6151.6115.6798 1.045z" fill="#ed1c26" stroke="#646464" stroke-width=".4395"/>
    <path d="m362.585 298.235c1.2439.5582 2.0692 1.254 2.4761 2.0869.7014-1.536.5312-3.0435-.5125-4.4522 1.0437 1.4087 1.2142 2.9159.5125 4.4522-.4069-.8329-1.2322-1.5287-2.4761-2.0869z" fill="#ed1c26" stroke="#646464" stroke-width=".4395"/>
    <path d="m364.113 302.659c-.5811.447-.9426.9682-1.0971 1.5813-.4105-.7574-.5213-1.5205-.2923-2.2416-.229.7211-.1182 1.4842.2923 2.2416.1545-.6131.516-1.1343 1.0971-1.5813z" fill="#ed1c26" stroke="#646464" stroke-width=".4395"/>
    <path d="m357.753 300.375c-.8378.8099-1.2457 2.0127-1.2503 3.5842-2.0806-2.5239-1.7885-4.6016-.151-6.4262" fill="none" stroke="#646464" stroke-width=".4395"/>
    <path d="m358.632 290.061c-.2497 1.0037-1.4415 3.2559.7273 5.2901.1319-.7182-.1938-.9178 1.3857-3.2762" fill="none" stroke="#646464" stroke-width=".4395"/>
    <path d="m358.987 284.923c1.1002.3084 1.429.9459 1.0183 1.8511.4107-.9052.0819-1.5427-1.0183-1.8511-.1554 1.1608-.7416 2.0304-1.7806 2.6143.3947-1.0613.4291-2.138.1032-3.2302-.4909.1245-.9534-.1054-1.3555-.751-1.3868.2449-2.3277-.3709-2.8006-1.853-.3544-.9247-.269-1.8008.2184-2.592-.4874.7912-.5728 1.6673-.2184 2.592.4729 1.4821 1.4138 2.0979 2.8006 1.853-.3128-.4814-.6098-1.1804-.875-2.1277.2652.9473.5622 1.6463.875 2.1277.4021.6456.8646.8755 1.3555.751.3259 1.0922.2915 2.1689-.1032 3.2302 1.039-.5839 1.6252-1.4535 1.7806-2.6143.092-.6641.0181-1.4198-.1768-2.2781.195.8583.2688 1.614.1768 2.2781z" fill="#ed1c26" stroke="#646464" stroke-width=".4395"/>
    <path d="m363.597 287.433c1.8466 1.0003 2.7689 2.2883 2.8177 3.8779-.5646-.4441-1.1771-.6092-1.8909-.4282 1.0782.8747 1.5792 1.8157 1.5192 2.7921.06-.9764-.4412-1.9174-1.5192-2.7921.7138-.181 1.3263-.0159 1.8909.4282-.0488-1.5896-.9711-2.8776-2.8177-3.8779z" fill="#ed1c26" stroke="#646464" stroke-width=".4395"/>
    <path d="m359.183 261.015c.9685 2.0982.7536 3.3797-.6986 3.9444 1.4522-.5647 1.6671-1.8462.6986-3.9444z" fill="#ed1c26" stroke="#646464" stroke-width=".4395"/>
    <path d="m356.093 260.937c1.5663 2.4291 1.3952 3.74-.486 3.8826 1.8812-.1426 2.0523-1.4535.486-3.8826z" fill="#ed1c26" stroke="#646464" stroke-width=".4395"/>
    <path d="m352.863 292.348c-1.6479 1.3024-2.3359 2.7298-2.1118 4.3042.4802-.5346 1.0553-.8024 1.7895-.7466-.9123 1.0469-1.2447 2.06-1.0184 3.0116-.2263-.9516.1062-1.9647 1.0184-3.0116-.7342-.0558-1.3093.212-1.7895.7466-.2241-1.5744.4639-3.0018 2.1118-4.3042z" fill="#ed1c26" stroke="#646464" stroke-width=".4395"/>
    <path d="m363.179 278.572c.4179.9459 1.9778 2.9601.1896 5.3366-.253-.685.0337-.9375-1.9264-2.9897" fill="none" stroke="#646464" stroke-width=".4395"/>
    <path d="m353.526 286.067c-.1975.7939-1.1401 2.5751.5752 4.1838.1044-.568-.1532-.7258 1.096-2.5911" fill="none" stroke="#646464" stroke-width=".4395"/>
    <path d="m353.995 273.976c-.1975.7938-1.14 2.575.5752 4.1837.1043-.568-.1533-.7259 1.0959-2.591" fill="none" stroke="#646464" stroke-width=".4395"/>
    <path d="m362.386 264.232c.3139.7104 1.4853 2.2231.1424 4.0078-.1901-.5144.0252-.704-1.4467-2.2452" fill="none" stroke="#646464" stroke-width=".4395"/>
    <path d="m345.883 259.974c1.4423-.3287 3.9933 1.0048 5.8247.3642-.5969.9539-1.0463 2.4604-4.1214 2.1564-1.5899-.1728-2.5599-1.3797-1.7033-2.5206z" fill="#e6e6e6" stroke="#646464" stroke-width=".4395"/>
    <path d="m346.11 259.937c-.6057.0053-1.0573.0909-1.3869.2393" fill="none" stroke="#646464" stroke-width=".4395"/>
    <path d="m347.242 260.179c-.5457-.0079-.9945.4256-1.0025.9689-.0082.5431.4276.9901.9732.9982.5457.0079.9946-.4257 1.0026-.9689.0082-.5432-.4278-.9901-.9733-.9982z"/>
    <path d="m346.882 260.636c-.2818-.0041-.5135.2198-.5177.5002-.0041.2804.221.5112.5027.5154.2816.0041.5133-.2197.5175-.5002.0041-.2805-.2208-.5112-.5025-.5154z" fill="#e3e4e5"/>
    <path d="m345.623 325.999c-1.7121 1.0269-3.2098 2.2337-3.0089 4.8647.6039-.4401.9537-1.0975 2.6923-1.5693-2.2166 2.197-1.4265 4.3942-1.5838 6.5911.6863-.891 1.3725-1.0823 2.0588-1.4123-.6893 2.4975.3644 4.0083 1.742 5.3356" fill="none" stroke="#646464" stroke-width=".3969"/>
    <path d="m340.712 322.851c-1.3214.1183-2.3708.7756-2.7996 2.6631" fill="none" stroke="#646464" stroke-width=".3969"/>
    <path d="m340.152 327.511c-3.2021 2.2149-1.8813 4.8029-1.7357 5.5482" fill="none" stroke="#646464" stroke-width=".3969"/>
    <path d="m350.701 304.305c-3.0256 1.5434-4.2156 4.4859-3.3593 8.9883.9-1.2925 1.9523-2.5096 4.0313-3.218" fill="none" stroke="#646464" stroke-width=".3969"/>
    <path d="m354.061 312.634c-.5332 2.8799.9142 5.3671 3.3595 7.6566" fill="none" stroke="#646464" stroke-width=".3969"/>
    <path d="m342.285 343.201c-1.0907.6502-2.0448 1.4141-1.9169 3.0795.3847-.2785.6075-.6948 1.7151-.9933-1.4119 1.3907-.9088 2.7815-1.0089 4.1723.4372-.5642.8745-.6853 1.3116-.8942-.4392 1.5812.2321 2.5375 1.1096 3.3776" fill="none" stroke="#646464" stroke-width=".3969"/>
    <path d="m343.668 354.869c-1.7431 2.3017-.7821 4.6032-.3167 6.9049.4887-1.1509.5899-2.3017 2.0588-3.4525-1.8337 3.5647-.0153 8.3147-.2375 11.6913.3479-1.3576.6532-2.7364 1.8211-3.6879-.7172 3.1081 1.5769 6.3384 1.4254 9.2589l1.4253-3.0601" fill="none" stroke="#646464" stroke-width=".3969"/>
    <path d="m350.991 344.856c-3.0255 1.5436-4.2157 4.4861-3.3594 8.9883.9002-1.2925 1.9523-2.5095 4.0313-3.218-2.6682 2.8809-2.0635 5.5121-.8959 8.1006" fill="none" stroke="#646464" stroke-width=".3969"/>
    <path d="m354.35 354.4c-.5334 2.8799.914 5.3671 3.3594 7.6566" fill="none" stroke="#646464" stroke-width=".3969"/>
    <path d="m354.35 330.719c-.5334 2.8799.914 5.3671 3.3594 7.6566" fill="none" stroke="#646464" stroke-width=".3969"/>
    <path d="m350.586 319.999c-1.223.5097-2.0218 1.4513-1.853 3.3788" fill="none" stroke="#646464" stroke-width=".3969"/>
    <path d="m351.479 324.609c-2.3738 3.0726-.3233 5.142.0434 5.8085" fill="none" stroke="#646464" stroke-width=".3969"/>
    <path d="m352.414 365.193c-.8894 3.8317 3.4991 7.8251 3.9353 11.3559" fill="none" stroke="#646464" stroke-width=".3969"/>
    <path d="m332.772 330.86c.0659 2.8444-1.2779 5.0602-3.6032 6.8383 3.439.4639 5.3355.0774 5.5975-3.6589-.2837 1.3757.1089 1.3635-.9884 3.0535-1.9449 2.3624-1.4759 3.949-1.4099 5.6652.8072-.588 1.4283-1.2873 2.5585-1.6821-.9642 1.9709-1.7187 4.0779-.3639 7.5543l1.9151-2.9659c-1.1339 3.2411-.2857 5.7604 1.2083 8.0446 0-1.5179 2.4293-3.1508 1.6701-5.5531" stroke="#646464" stroke-width=".3969"/>
    <path d="m333.164 325.641c-.9393.7851-1.4584 2.0149-1.5834 3.6621-1.9858-2.8048-1.521-4.9606.3333-6.7485" stroke="#646464" stroke-width=".3969"/>
    <path d="m370.577 325.999c1.7122 1.0269 3.2098 2.2337 3.009 4.8647-.604-.4401-.9537-1.0975-2.6923-1.5693 2.2166 2.197 1.4264 4.3942 1.5838 6.5911-.6864-.891-1.3725-1.0823-2.0589-1.4123.6893 2.4975-.3644 4.0083-1.742 5.3356" fill="none" stroke="#646464" stroke-width=".3969"/>
    <path d="m376.048 327.511c3.2022 2.2149 1.8813 4.8029 1.7358 5.5482" fill="none" stroke="#646464" stroke-width=".3969"/>
    <path d="m365.499 304.305c3.0255 1.5434 4.2155 4.4859 3.3593 8.9883-.9001-1.2925-1.9523-2.5096-4.0314-3.218" fill="none" stroke="#646464" stroke-width=".3969"/>
    <path d="m362.14 312.634c.5331 2.8799-.9143 5.3671-3.3595 7.6566" fill="none" stroke="#646464" stroke-width=".3969"/>
    <path d="m373.915 343.201c1.0906.6502 2.0448 1.4141 1.9169 3.0795-.3848-.2785-.6076-.6948-1.7152-.9933 1.412 1.3907.9088 2.7815 1.0089 4.1723-.4371-.5642-.8744-.6853-1.3115-.8942.4391 1.5812-.2321 2.5375-1.1097 3.3776" fill="none" stroke="#646464" stroke-width=".3969"/>
    <path d="m372.532 354.869c1.7431 2.3017.7821 4.6032.3167 6.9049-.4888-1.1509-.59-2.3017-2.0589-3.4525 1.8338 3.5647.0154 8.3147.2376 11.6913-.3479-1.3576-.6532-2.7364-1.8211-3.6879.7172 3.1081-1.577 6.3384-1.4254 9.2589l-1.4253-3.0601" fill="none" stroke="#646464" stroke-width=".3969"/>
    <path d="m365.21 344.856c3.0256 1.5436 4.2157 4.4861 3.3595 8.9883-.9002-1.2925-1.9523-2.5095-4.0313-3.218 2.6682 2.8809 2.0635 5.5121.8958 8.1006" fill="none" stroke="#646464" stroke-width=".3969"/>
    <path d="m361.85 354.4c.5334 2.8799-.9141 5.3671-3.3595 7.6566" fill="none" stroke="#646464" stroke-width=".3969"/>
    <path d="m361.85 330.719c.5334 2.8799-.9141 5.3671-3.3595 7.6566" fill="none" stroke="#646464" stroke-width=".3969"/>
    <path d="m365.614 319.999c1.223.5097 2.0218 1.4513 1.853 3.3788" fill="none" stroke="#646464" stroke-width=".3969"/>
    <path d="m364.721 324.609c2.3739 3.0726.3233 5.142-.0434 5.8085" fill="none" stroke="#646464" stroke-width=".3969"/>
    <path d="m363.786 365.193c.8893 3.8317-3.4991 7.8251-3.9353 11.3559" fill="none" stroke="#646464" stroke-width=".3969"/>
    <path d="m375.556 322.863c1.3213.1183 2.3708.7756 2.7995 2.6631" fill="none" stroke="#646464" stroke-width=".3969"/>
    <path d="m335.333 308.036c-2.7698.6839-5.4168 2.3613-5.2549 7.0876 1.0938-1.8119 1.5521-2.3778 2.8834-2.5848-1.6524 2.6236-2.0654 6.5236-4.7011 8.6556 1.3859-.147 2.762-.3184 3.6585-1.6886" stroke="#646464" stroke-width=".3969"/>
    <path d="m340.167 303.276c-.2173-.1138-6.2835.7544-6.7336 3.9025.6909-.3345 1.2571-.7344 4.237-.8618" stroke="#646464" stroke-width=".3969"/>
    <path d="m383.487 330.86c-.0659 2.8444 1.2779 5.0602 3.6032 6.8383-3.4391.4639-5.3355.0774-5.5975-3.6589.2837 1.3757-.1089 1.3635.9884 3.0535 1.9448 2.3624 1.4758 3.949 1.4099 5.6652-.8073-.588-1.4283-1.2873-2.5585-1.6821.9642 1.9709 1.7187 4.0779.3638 7.5543l-1.915-2.9659c1.1338 3.2411.2856 5.7604-1.2084 8.0446 0-1.5179-2.4292-3.1508-1.67-5.5531" stroke="#646464" stroke-width=".3969"/>
    <path d="m383.096 325.641c.9392.7851 1.4584 2.0149 1.5833 3.6621 1.9859-2.8048 1.521-4.9606-.3333-6.7485" stroke="#646464" stroke-width=".3969"/>
    <path d="m380.927 308.036c2.7697.6839 5.4168 2.3613 5.2549 7.0876-1.0938-1.8119-1.5521-2.3778-2.8835-2.5848 1.6524 2.6236 2.0654 6.5236 4.7012 8.6556-1.3859-.147-2.762-.3184-3.6586-1.6886" stroke="#646464" stroke-width=".3969"/>
    <path d="m354.266 380.277c-1.3086 2.2363 3.2163 5.5544 3.1321 7.6284" fill="none" stroke="#646464" stroke-width=".3969"/>
    <path d="m361.934 380.277c1.3086 2.2363-3.2163 5.5544-3.132 7.6284" fill="none" stroke="#646464" stroke-width=".3969"/>
    <path d="m351.027 388.846c-.2927 8.3745-1.7968 13.9609-7.3347 16.7569 4.5557-.1357 7.9251-2.1975 10.1041-6.1741-1.2388 9.971-5.3466 16.8348-12.3315 20.5877-3.8133 1.7022-6.4079 1.383-7.7839-.9575-.803-2.0727-.5084-3.4411.8878-4.1051 2.2597-.7043 3.2967.6237 3.107 3.9877 2.6431-3.0706 2.7036-5.7853.1897-8.1515-3.6357-1.8562-6.1738-.3925-7.6103 4.4023-2.748-4.7508-5.9156-5.9467-9.5109-3.5768 4.2046.1174 5.2416 3.2062 3.107 9.2666-11.2823-2.1681-17.21.4623-17.7829 7.8983.1331 6.1375 3.8212 7.8836 11.0604 5.2423-5.7058.5099-8.3004-1.2803-7.7799-5.3743 1.3276-4.7618 9.285-2.4506 11.932 0 2.0378 1.6948 4.4266 2.047 7.1584 1.0528.105 2.7514-2.2112 3.8373-6.9526 3.2613.6215 3.5842 2.7682 4.9929 6.4321 4.2225.1049 1.4087-1.7997 2.3038-5.7057 2.689 3.0102 1.2473 5.6734.7704 7.9896-1.4381 1.0734 3.0706 3.5953 4.3509 7.574 3.8373 2.9417-.6383 3.7366-2.8174 2.3848-6.5263.0363 3.1036-1.6584 4.3509-5.0843 3.7419-1.7634-.7007-1.9369-1.9186-.5205-3.6465 1.9046-2.2084 4.0109-3.4557 6.3311-3.7455 2.4897-1.6619 3.1798-3.199 2.0741-4.604 6.7105-6.5887 10.3785-12.4143 10.9999-17.4695.6819 2.9789.1695 13.6652-2.3565 19.5605-1.4688 3.4191-3.7205 7.4288-5.9439 2.6707-.9724 5.7082 1.6908 7.0399 7.9897 3.9877.5407 4.2261-3.9666 7.8286-13.5259 10.8111-4.5557 1.4197-6.7347 3.8446-6.537 7.2746.7425 3.2944 3.3694 4.2078 7.8767 2.7441-3.2201-.1358-4.7575-1.0969-4.6082-2.8798.8918-2.1497 2.9739-2.9311 6.2424-2.3332-1.1379 2.4726-.5932 3.8446 1.6343 4.1161-.1009-3.2466 2.5784-5.6715 8.0259-7.271 1.1501 5.1616-.6012 8.4559-5.2497 9.8866 2.8448 1.1813 5.1206.2605 6.8275-2.7587.0686 4.5636 1.4203 7.88 4.0513 9.9453 2.6309-2.069 3.9787-5.3817 4.0513-9.9453 1.7069 3.0192 3.9827 3.94 6.8235 2.7587-4.6485-1.4307-6.3958-4.7287-5.2498-9.8866 5.4475 1.5995 8.1228 4.0244 8.026 7.271 2.2274-.2715 2.7721-1.6472 1.6342-4.1161 3.2685-.5979 5.3506.1835 6.2424 2.3332.1493 1.7829-1.3881 2.7477-4.6081 2.8798 4.5072 1.4637 7.1301.5503 7.8766-2.7441.1977-3.43-1.9813-5.8549-6.541-7.2746-9.5593-2.9862-14.0666-6.5887-13.5259-10.8111 6.2989 3.0485 8.9621 1.7205 7.9896-3.9877-2.2233 4.7544-4.475.7484-5.9438-2.6707-2.53-5.8953-3.0384-16.5816-2.3565-19.5605.6214 5.0552 4.2853 10.8772 10.9958 17.4695-1.1056 1.405-.4156 2.9421 2.0741 4.604 2.3162.2898 4.4266 1.5371 6.3272 3.7455 1.4203 1.7279 1.2468 2.9421-.5206 3.6465-3.4218.609-5.1166-.6383-5.0843-3.7419-1.3477 3.7126-.5528 5.888 2.3848 6.5263 3.9787.5099 6.5047-.7704 7.574-3.8373 2.3162 2.2085 4.9794 2.6854 7.9897 1.4381-3.9101-.3852-5.8107-1.2803-5.7058-2.689 3.664.7704 5.8107-.6383 6.4321-4.2225-4.7373.576-7.0575-.5136-6.9526-3.2613 2.7318.9905 5.1166.6384 7.1584-1.0528 2.5865-2.3919 10.6165-4.7104 11.932 0 .5165 4.094-2.0781 5.8842-7.7839 5.3743 7.2432 2.6413 10.9273.8952 11.0645-5.2423-.569-7.436-6.4967-10.07-17.783-7.8983-2.1346-6.0604-1.0976-9.1492 3.1071-9.2666-3.5913-2.3662-6.763-1.174-9.5109 3.5768-1.4366-4.7911-3.9747-6.2585-7.6104-4.4023-2.5139 2.3662-2.4533 5.0846.1897 8.1515-.1897-3.3604.8474-4.692 3.1071-3.9877 1.3921.664 1.6907 2.0324.8877 4.1051-1.38 2.3405-3.9746 2.6597-7.7838.9575-6.9849-3.7529-11.0968-10.613-12.3356-20.5877 2.179 3.9803 5.5484 6.0384 10.1041 6.1741-5.5414-2.7978-7.044-8.3868-7.3353-16.772" stroke="#646464" stroke-width=".3969"/>
    <path d="m344.75 299.887c-2.5344 1.953-7.3405.5204-8.3424 3.192.7544-.1415 2.0049-.2933 4.914.3653" stroke="#646464" stroke-width=".3969"/>
    <path d="m375.821 303.25c.2173-.1138 6.2835.7543 6.7336 3.9025-.6909-.3345-1.2571-.7344-4.237-.8618" stroke="#646464" stroke-width=".3969"/>
    <path d="m371.76 300.4c2.5344 1.953 7.3405.5204 8.3424 3.192-.7544-.1416-2.005-.2933-4.914.3653" stroke="#646464" stroke-width=".3969"/>
    <path d="m400.756 405.665c-.4915.9737-.8299 2.2837-.7337 3.2939.0139.1217.0184.2439.0411.3641.1472.7757.6972 1.3205 1.365 1.6397.6679.3189 1.4622.4262 2.1377.3041.6803-.1234 1.145-.6066 1.5115-1.0972.3664-.4904.6629-1.0072 1.0018-1.2967.6632-.5662 1.8046-.6149 2.6011-.4704 1.4185 1.596 2.9455 2.3449 4.5312 2.3949.929.0294 1.7132-.0516 2.4644-.0207.7509.0313 1.4701.1702 2.3084.6187.7833.4194 1.1401 1.3309 1.4696 2.3379.3295 1.0066.6203 2.0953 1.3549 2.7567.5921.533 1.3739.6294 2.0599.4776.6857-.1519 1.3034-.5625 1.6598-1.0443.6119-.4995 1.3339-1.6269 1.1533-3.1308-.0285-.2275-.0748-.4453-.1801-.658-.2928-.5917-.9333-1.0717-1.7525-1.4896-.8192-.4176-1.8329-.784-2.8813-1.1525-.357-.1255-.7113-.2629-1.0724-.3906.3501-.06.6417-.1452.9239-.2467.4159-.1494.7956-.3034 1.2847-.3918.1507-.0273.2665.0324.4241.1891.1574.1566.3274.3854.5337.6206.2065.2355.4595.4725.7847.6286.3255.156.7264.2407 1.2215.1511.8459-.1529 1.4492-.6567 1.7865-1.2529.1133-.2003.1836-.4124.2416-.6281.2307-.7509.0157-1.9424-.7115-2.5812-.5103-.4462-1.2178-.7096-1.9941-.5692-1.7382.3144-3.6112.9689-4.6094.9929-.0872.0025-.1864-.0008-.2777-.0027.2256-.059.4375-.1336.6238-.2192.3776-.1738.6518-.502.9069-.7749.2552-.273.4931-.4879.758-.5358.433-.0783.8686.0299 1.3066.1625.4382.1326.8776.2926 1.3164.2133 1.1798-.2134 2.0153-1.1851 1.9968-2.486.0236-.7132-.5793-1.7011-1.3625-2.0651-.5911-.2476-1.3172-.3196-2.0329-.1901-1.0695.1934-2.1646.952-3.2546 1.7044-1.0898.7519-2.1726 1.4978-3.147 1.6847-1.2663.2422-3.0715.0982-4.3266-.4395-7.4313-4.4494-14.1524-8.946-17.7736-12.6986-3.1084-1.107-4.9171-2.6014-6.079-2.3912-2.5636.4636-1.2478 3.9942-1.9972 7.3321.9405.7184 2.3323.9199 3.6099 1.0472.6762.0672 1.3308.1242 1.8672.1937.5363.0694.9574.1639 1.1699.3198 4.2137 3.0897 10.1612 5.8376 14.0494 8.5637-.5945-.2116-1.1612-.4264-1.8328-.5984-1.0392-.2661-2.0451-.4536-2.6984-.3355-.7466.1351-1.3332.5789-1.748 1.1664z" fill="#eac102" stroke="#000" stroke-linejoin="round" stroke-width=".4052"/>
    <path d="m415.18 407.014c1.181.694 3.0312 1.5775 4.6063 2.0894" stroke="#646464" stroke-width=".4052"/>
    <path d="m419.404 406.012c-1.865.0543-5.1524-1.6618-7.2153-2.9456" stroke="#000" stroke-linejoin="round" stroke-width=".4052"/>
    <path d="m419.796 409.102c-1.185-.4309-2.7403-1.0168-4.678-2.1219" stroke="#000" stroke-linejoin="round" stroke-width=".4052"/>
    <path d="m400.992 405.655c-5.1991-1.4168-7.0839 3.9988-3.6186 5.4717.013-2.4948 1.4309-2.6744 3.6073-1.6039 1.2988-.6938 1.846-2.6355.0113-3.8678z" fill="#eac102" stroke="#000" stroke-width=".4054"/>
    <path d="m424.266 412.606c5.411.1556 5.1172 5.8498 1.3373 6.249.8058-2.3774-.8826-3.4215-2.5895-2.8643-.7257-1.2895-.7907-3.0556 1.2522-3.3847z" fill="#eac102" stroke="#000" stroke-width=".4054"/>
    <path d="m426.226 405.278c4.5675-1.4441 6.9645 2.5944 3.9021 4.9022-.2835-2.3804-2.2739-2.6251-3.5944-1.472-1.2162-.8353-1.6639-2.0163-.3077-3.4302z" fill="#eac102" stroke="#000" stroke-width=".4054"/>
    <path d="m424.897 400.261c3.7897-2.3655 6.7241 1.1147 4.0298 3.177-.2572-2.1371-2.1228-1.629-3.2841-.598-1.0752-.7531-1.2567-1.652-.7457-2.579z" fill="#eac102" stroke="#000" stroke-width=".4054"/>
    <path d="m372.547 365.855c.7812.8502 1.7256 1.9123 2.9374 3.3016 1.088 1.2277 6.0867 6.0401 8.5367 6.3098-.248.7437-1.8075.9739-2.2941 1.0515 4.7509 3.7968 6.0949 2.6421 9.4437 4.457-1.7274.4414-2.1746.2339-2.9615 1.5143 1.7113-.1619 5.7595 1.3891 8.2633 2.5524-2.2057.2002-3.2966 1.4668-2.3896 2.0637.8857.5413 2.8021 1.2325 5.5748.7871-1.302 1.883-2.8072 2.0527-4.7052 1.9029.7949.8699 2.2722 2.287 2.2227 2.9744-1.8113-.1315-3.5488-.8268-5.2074-1.9834 1.593 1.2221 2.3279 2.5507 3.3438 3.7629-2.3345.2904-3.773-.1886-6.4117-2.5236.5932.6305 1.7314 4.2774 1.2547 6.0983-.682-.5639-2.1749-2.7809-3.522-3.2336.667 1.7025.7054 3.223-.7205 5.7358-.672-1.7631-1.1622-4.0453-2.5407-5.6505-.3726 1.0984-2.5088 1.9047-3.968 1.3007 1.2077-.4353 1.9923-3.2783-.7575-5.7982.17 1.2595-.8892 2.8012-2.8038 2.6294 1.6336-1.5934-1.4528-4.5106-8.1722-7.1657" stroke="#646464" stroke-linejoin="round" stroke-width=".4049"/>
    <path d="m379.757 381.684c.9925.3433 3.1501 1.7301 5.4565-.1869-.7154-.1999-.9542.0984-3.1768-1.6777" stroke="#646464" stroke-width=".4049"/>
    <path d="m385.814 386.304c1.0436.1566 3.4385 1.1252 5.3282-1.173-.7428-.0663-.9187.2696-3.4544-1.069" stroke="#646464" stroke-width=".4049"/>
    <path d="m381.874 386.624c.7781.6817 3.0636 1.8666 2.3544 4.708-.5168-.5132-.3507-.8537-3.0274-1.9135" stroke="#646464" stroke-width=".4049"/>
    <path d="m375.797 379.654c.7781.6816 3.0636 1.8665 2.3543 4.7079-.5167-.5132-.3507-.8536-3.0273-1.9134" stroke="#646464" stroke-width=".4049"/>
    <path d="m315.335 405.665c.4914.9737.8299 2.2837.7337 3.2939-.0139.1217-.0184.2439-.0412.3641-.1472.7757-.6972 1.3205-1.365 1.6397-.6679.3189-1.4621.4262-2.1377.3041-.6803-.1234-1.1449-.6066-1.5115-1.0972-.3664-.4904-.6628-1.0072-1.0017-1.2967-.6632-.5662-1.8047-.6149-2.6011-.4704-1.4185 1.596-2.9456 2.3449-4.5313 2.3949-.929.0294-1.7131-.0516-2.4643-.0207-.7509.0313-1.4701.1702-2.3085.6187-.7833.4194-1.14 1.3309-1.4695 2.3379-.3296 1.0066-.6203 2.0953-1.3549 2.7567-.5921.533-1.3739.6294-2.06.4776-.6856-.1519-1.3033-.5625-1.6598-1.0443-.6119-.4995-1.3339-1.6269-1.1532-3.1308.0284-.2275.0748-.4453.1801-.658.2928-.5917.9332-1.0717 1.7524-1.4896.8192-.4176 1.8329-.784 2.8814-1.1525.3569-.1255.7113-.2629 1.0723-.3906-.35-.06-.6417-.1452-.9239-.2467-.4158-.1494-.7955-.3034-1.2846-.3918-.1508-.0273-.2666.0324-.4241.1891-.1574.1566-.3275.3854-.5337.6206-.2065.2355-.4596.4725-.7848.6286-.3255.156-.7263.2407-1.2214.1511-.8459-.1529-1.4492-.6567-1.7866-1.2529-.1132-.2003-.1835-.4124-.2415-.6281-.2307-.7509-.0158-1.9424.7114-2.5812.5104-.4462 1.2178-.7096 1.9942-.5692 1.7382.3144 3.6112.9689 4.6094.9929.0872.0025.1864-.0008.2777-.0027-.2256-.059-.4376-.1336-.6239-.2192-.3776-.1738-.6518-.502-.9068-.7749-.2552-.273-.4932-.4879-.758-.5358-.433-.0783-.8686.0299-1.3066.1625-.4382.1326-.8776.2926-1.3165.2133-1.1797-.2134-2.0153-1.1851-1.9968-2.486-.0236-.7132.5793-1.7011 1.3625-2.0651.5912-.2476 1.3172-.3196 2.0329-.1901 1.0695.1934 2.1647.952 3.2546 1.7044 1.0899.7519 2.1727 1.4978 3.1471 1.6847 1.2662.2422 3.0714.0982 4.3266-.4395 7.4312-4.4494 14.1524-8.946 17.7735-12.6986 3.1085-1.107 4.9171-2.6014 6.0791-2.3912 2.5636.4636 1.2477 3.9942 1.9971 7.3321-.9405.7184-2.3323.9199-3.6099 1.0472-.6761.0672-1.3307.1242-1.8671.1937-.5364.0694-.9575.1639-1.17.3198-4.2137 3.0897-10.1611 5.8376-14.0494 8.5637.5945-.2116 1.1613-.4264 1.8328-.5984 1.0393-.2661 2.0452-.4536 2.6985-.3355.7465.1351 1.3331.5789 1.748 1.1664z" fill="#eac102" stroke="#000" stroke-linejoin="round" stroke-width=".4052"/>
    <path d="m300.911 407.014c-1.1811.694-3.0313 1.5775-4.6064 2.0894" stroke="#646464" stroke-width=".4052"/>
    <path d="m296.687 406.012c1.8649.0543 5.1524-1.6618 7.2152-2.9456" fill="#eac102" stroke="#000" stroke-linejoin="round" stroke-width=".4052"/>
    <path d="m296.295 409.102c1.185-.4309 2.7403-1.0168 4.6779-2.1219" fill="#eac102" stroke="#000" stroke-linejoin="round" stroke-width=".4052"/>
    <path d="m315.099 405.655c5.199-1.4168 7.0839 3.9988 3.6185 5.4717-.013-2.4948-1.4308-2.6744-3.6073-1.6039-1.2988-.6938-1.8459-2.6355-.0112-3.8678z" fill="#eac102" stroke="#000" stroke-width=".4054"/>
    <path d="m291.825 412.606c-5.4109.1556-5.1172 5.8498-1.3372 6.249-.8058-2.3774.8826-3.4215 2.5894-2.8643.7257-1.2895.7907-3.0556-1.2522-3.3847z" fill="#eac102" stroke="#000" stroke-width=".4054"/>
    <path d="m289.865 405.278c-4.5676-1.4441-6.9646 2.5944-3.9021 4.9022.2834-2.3804 2.2739-2.6251 3.5944-1.472 1.2161-.8353 1.6639-2.0163.3077-3.4302z" fill="#eac102" stroke="#000" stroke-width=".4054"/>
    <path d="m291.194 400.261c-3.7896-2.3655-6.7241 1.1147-4.0298 3.177.2572-2.1371 2.1229-1.629 3.2842-.598 1.0752-.7531 1.2567-1.652.7456-2.579z" fill="#eac102" stroke="#000" stroke-width=".4054"/>
    <path d="m343.544 365.855c-.7813.8502-1.7257 1.9123-2.9374 3.3016-1.088 1.2277-6.0867 6.0401-8.5367 6.3098.248.7437 1.8075.9739 2.2941 1.0515-4.751 3.7968-6.0949 2.6421-9.4437 4.457 1.7273.4414 2.1746.2339 2.9615 1.5143-1.7114-.1619-5.7595 1.3891-8.2634 2.5524 2.2058.2002 3.2967 1.4668 2.3897 2.0637-.8858.5413-2.8022 1.2325-5.5749.7871 1.3021 1.883 2.8073 2.0527 4.7053 1.9029-.7949.8699-2.2723 2.287-2.2228 2.9744 1.8114-.1315 3.5489-.8268 5.2074-1.9834-1.593 1.2221-2.3278 2.5507-3.3438 3.7629 2.3346.2904 3.773-.1886 6.4117-2.5236-.5931.6305-1.7314 4.2774-1.2547 6.0983.682-.5639 2.1749-2.7809 3.5221-3.2336-.6671 1.7025-.7054 3.223.7204 5.7358.6721-1.7631 1.1623-4.0453 2.5407-5.6505.3726 1.0984 2.5089 1.9047 3.968 1.3007-1.2077-.4353-1.9923-3.2783.7576-5.7982-.17 1.2595.8891 2.8012 2.8038 2.6294-1.6336-1.5934 1.4528-4.5106 8.1722-7.1657" stroke="#646464" stroke-linejoin="round" stroke-width=".4049"/>
    <path d="m336.334 381.684c-.9926.3433-3.1501 1.7301-5.4565-.1869.7153-.1999.9541.0984 3.1768-1.6777" stroke="#646464" stroke-width=".4049"/>
    <path d="m330.277 386.304c-1.0437.1566-3.4385 1.1252-5.3283-1.173.7428-.0663.9187.2696 3.4544-1.069" stroke="#646464" stroke-width=".4049"/>
    <path d="m334.217 386.624c-.7782.6817-3.0637 1.8666-2.3544 4.708.5168-.5132.3507-.8537 3.0273-1.9135" stroke="#646464" stroke-width=".4049"/>
    <path d="m340.294 379.654c-.7781.6816-3.0636 1.8665-2.3544 4.7079.5168-.5132.3507-.8536 3.0273-1.9134" stroke="#646464" stroke-width=".4049"/>
  </g>
</svg>
