<?xml version="1.0" encoding="UTF-8" standalone="no"?>
<!-- Created with Inkscape (http://www.inkscape.org/) -->
<!-- https://commons.wikimedia.org/wiki/File:Cl%C3%A9s_en_sautoir.svg -->
<svg height="250" width="250" xmlns="http://www.w3.org/2000/svg">
  <linearGradient id="fillColor">
    <stop stop-color="#fcef3c"/>
  </linearGradient>
  <linearGradient id="strokeColor">
    <stop stop-color="#000"/>
  </linearGradient>
  <g fill="url(#fillColor)" stroke="url(#strokeColor)" transform="translate(-28.911349 41.982535)">
    <g transform="matrix(-.70710678 -.70710678 -.70710678 .70710678 362.67006 132.42266)">
      <path d="m52.999999 107.08333c0 3.58986-2.910149 6.5-6.5 6.5-3.58985 0-6.5-2.91014-6.5-6.5 0-3.58985 2.91015-6.5 6.5-6.5 3.589851 0 6.5 2.91015 6.5 6.5z"/>
      <path d="m53.155025 105.31579c.193302 1.21355.198544 2.49962-.046875 3.69688.249809.3856.713274-.1817 1.01314-.27306.906206-.58681 1.930142-.95078 2.889985-1.40819.313212-.41864-.426807-.57968-.690625-.71875-1.074411-.3542-2.020966-1.01721-3.05625-1.40938l-.069707.0717-.039668.0408z"/>
      <g transform="matrix(.95569909 0 0 1 5.177301 0)">
        <path d="m79.633501 71.636215c-10.765403.166092-21.244556 5.613572-27.644532 14.242187-2.288414 3.138943-4.217275 6.613885-5.328125 10.34375-.519351 1.747785-.265621 3.762644.992188 5.140628.73993.79554 1.485742 1.57722 2.160156 2.41797 3.795088 3.14707 9.202265 3.54864 13.824219 2.29687 2.926067-.76714 5.432687-2.70198 7.101494-5.2061.159961-.36116.812767-.80878.480537-1.207962-.867515.078117-1.707792.503432-2.59375.593752-3.689131.71535-7.763674.7132-11.128906-1.128908-1.357408-.889977-2.608914-2.254886-2.585938-3.96875.032258-.695999.095206-1.427537.332032-2.082031 4.795001-8.506211 14.258246-14.031977 24.035063-14.278242 8.704704-.315811 17.415734 3.56986 22.926091 10.286998 1.25686 1.592569 2.72679 3.207394 3.30447 5.206088.4827 1.99906-.01242 4.363132-1.77734 5.574218-1.81253 1.399717-4.119033 1.288147-6.341049 1.227467-.393689.11024-1.848872-.43009-1.916166.1247 1.230695 2.11579 3.662722 4.43464 6.030645 5.19471 2.15027.77096 4.48144.51717 6.71875.4375 2.54738-.37988 4.84697-2.09076 5.85547-4.46875.42892-1.03804.89325-2.14077.99292-3.245168-1.48914-5.872642-4.26047-11.457596-8.42172-15.90112-5.12164-5.666698-12.147487-9.578659-19.653228-11.006057-2.42358-.443249-4.895748-.635657-7.363281-.59375z"/>
        <path d="m57.778032 107.5034c-2.757906.12518-5.484658 1.14491-7.652344 2.84375-.832514.84498-1.486951 1.85332-2.389744 2.64238-1.420459 1.37927-1.771641 3.56786-1.109494 5.39141 2.929177 9.27743 9.905939 17.20787 18.768769 21.25918 4.937182 2.27143 10.398588 3.55661 15.859342 3.31228 10.044331-.11544 19.859389-4.91423 26.308629-12.5779 3.81967-4.52558 6.52963-10.03848 7.66406-15.85157.07847-1.36703-.77028-2.58719-1.45618-3.70276-1.56515-2.14635-4.30367-3.15223-6.90703-3.03571-2.65436-.11214-5.42599.21647-7.660227 1.74629-.942255.67098-2.244802 1.85153-2.833834 2.84555.170778.52496 1.353703-.12555 1.783053.0021 2.674768.03278 5.681718.99291 6.988278 3.50391.96406 1.85399 1.0022 4.21453-.1914 5.99219-3.4633 6.10662-9.429952 10.75995-16.191409 12.64062-4.104064 1.24447-8.476449 1.39152-12.729105.93862-7.594052-.99701-14.706754-5.10591-19.173239-11.32534-.731738-1.14991-1.7365-2.23162-2.011719-3.60156-.250002-1.62603.064003-3.43526 1.386719-4.54297 2.19989-1.95512 5.302824-2.29196 8.128906-2.33984 2.16697-.03759 4.897536.71667 7.009916 1.10456.544-.21459-.749402-1.13336-.89582-1.42449-1.80159-2.59703-4.460235-4.66047-7.606283-5.30898-1.667222-.37038-3.380417-.55277-5.089844-.51172z"/>
        <path d="m115.47755 100.99168c-.72573.76824-1.22903 2.89867-1.96514 3.69532-.79456 1.12886-2.78613 1.70124-3.89934 2.45703-.16111.55872 1.44325.58566 1.77824.82422 1.62607.72347 3.0942 3.14559 3.9964 4.65504.27982.44549.47535-1.13734.41376-1.5027.2311-2.9076.30136-5.87864-.17969-8.75781-.04813-.17106.08635-1.42734-.14423-1.3711z"/>
        <g fill="none" stroke-linecap="round" stroke-width="1.022915">
          <path d="m45.990548 117.65054c5.68975 19.08084 25.716679 29.92042 44.73139 24.21088 19.014712-5.70954 29.816722-25.80613 24.126972-44.886976-5.68976-19.080844-25.716681-29.920422-44.731392-24.210884-11.47387 3.445253-20.48341 12.399835-24.02659 23.880059" stroke-linejoin="round"/>
          <path d="m46.0625 117.5c-1.224115-3.38815 4.057334-9.86509 11.375-10.37518 7.507587-.135 11.637492 2.45641 14.5 7.96235"/>
          <path d="m46.187499 96.74741c-1.217951 4.26315 4.076935 9.86509 11.429952 10.37518 7.543855.135 11.693711-2.45641 14.570048-7.962347"/>
          <path d="m115.8125 114.5651c-.99235-4.1155-3.1557-6.89516-8.84722-7.25169-5.83924-.09436-9.051383 1.7169-11.27778 5.56525"/>
          <path d="m115.4375 99.43491c-.99236 4.54093-3.1557 7.60795-8.84722 8.00133-5.83924.10411-9.051383-1.89438-11.27778-6.14056"/>
          <path d="m105.34201 120.4169c-4.62698 9.30575-14.042676 14.95811-25.217011 14.95811-10.811825 0-20.086305-5.6187-24.875907-14.43673m.200122-27.583495c4.881698-8.498746 14.103515-14.229782 24.675785-14.229782 10.751762 0 20.106831 5.927285 24.920661 14.665026"/>
          <path d="m71.875 99c-9.096063 3.28353-18.652942.32257-16.25-5.75"/>
          <path d="m55.25 120.75c-1.495787-6.10831 6.91876-8.3383 16.5-5.625"/>
          <path d="m95.625 112.75c7.54248-.71818 10.55605 2.90396 9.75 7.5"/>
          <path d="m95.25 100.875c7.79156 1.07832 11.24985-2.120264 9.75-7.25"/>
        </g>
      </g>
      <path d="m237.50607 116.56496c.12494 3.81442-.44993 8.23585-.0125 11.92083h21.16666c-.0625 3.48612-.025 6.27223-.0875 9.75834-6.99309.05431-14.08615.1135-21.07916.17708-.43737 3.68153.23749 8.5995.1125 12.41042 4.79264.43736 10.02165-.03733 14.94375.0875 3.59219-.12493 7.4914.2499 10.95416-.1875.05263-5.21535.21136-10.43063.27709-15.64584 3.43055 0 6.46111-.1 9.89166-.1.06578 5.21521.22449 10.63049.27709 15.84584 4.74105.43617 9.91676.06441 14.7875.1875 3.75379-.12878 7.91995.25513 11.54375-.1875-.1252-3.81084.55026-8.72905.1125-12.41042-6.99302-.06356-14.08607-.02275-21.07917-.07708 0-3.43056 0-6.46111 0-9.89167 6.9931-.05431 13.98615.18649 20.97917.12292.43736-3.68153.16251-8.3995.2875-12.21042-4.79608-.43746-10.42866.23747-15.35417.1125-15.77778 0-31.55556 0-47.33333 0l-.3875.0875z"/>
      <path d="m227.49811 98.015721c-.10022 5.377979-.47582 11.250549-.50451 16.641229-.32789 1.02959.20857 1.66356 1.00481 1.53846 23.75 0 48.57692.07692 72.32692.07692.427-.53264-.23752-2.02973-.12019-2.72596 0-4.95833.15385-10.37821.15385-15.336537-.53263-.426999-1.64511-.070168-2.34135-.1875-23.45833 0-46.76281.076923-70.22115.076923l-.49702-.02224.19864-.061295z"/>
      <path d="m130.50939 98.400337c-.10022 5.377973-.01428 10.789003-.04297 16.179683-.32789 1.02959.28549 1.58664 1.08174 1.46154h81.25c.427-.53264-.31445-1.79896-.19712-2.49519 0-4.95833.07692-10.30129.07692-15.259614-.53264-.426999-1.56819.314447-2.26442.197115-26.45834 0-52.91667 0-79.375 0l-.11241.054683-.41674-.138217z"/>
      <path d="m130.5 98.125h82.5v18h-82.5v-18z" fill="none"/>
      <path d="m304.10869 96.910554c-1.12611.022409-2.01405 1.013919-3.04027 1.397536-.26007 1.031591-.41605 2.20879-.48656 3.29685.01704 4.70183.18795 9.71135.20501 14.41318.75188.56706 2.04504.44365 2.94171.79778 1.57212.38893 3.42931-.00224 4.38281-1.40234 1.9002-2.42537 2.06429-5.70024 2.13039-8.62499-.00942-2.94383-.68449-6.21222-2.80617-8.437512-.85361-.849318-2.14499-1.500632-3.32692-1.440504z"/>
      <path d="m227.125 98.125h73.5v18h-73.5v-18z" fill="none"/>
      <path d="m300.625 98.125 2.5-1.125c.04935-.022209 7.22619-2.43685 7.25 10.375s-7.22288 9.63499-7.25 9.625l-2.375-.875" fill="none"/>
      <path d="m219.75983 92.668366c-2.30927.083184-4.73969 1.055867-6.58233 2.417969-.1831 1.721192.20531 3.832352.15264 5.585035 0 6.15365-.30769 12.53806-.30769 18.69171.95645.70646 2.4278 1.18198 3.5628 1.59645 2.43526.85817 5.19885.82671 7.58083-.10396.82764-.35068 1.91557-.73135 2.56791-1.33474 0-7.89453.15384-16.40445.15384-24.298978-1.85006-1.562275-4.66418-2.636558-7.128-2.553486z"/>
      <path d="m213 95.241142c4.74825-3.598364 9.46202-3.504645 14 0v24.186648c-4.7275 2.8507-9.01825 2.88155-14 0v-24.186648z" fill="none"/>
      <path d="m116.375 95.16374c4.74825-3.59836 9.46202-3.50464 14 0v24.18665c-4.7275 2.8507-9.01825 2.88155-14 0v-24.18665z" fill="none"/>
      <path d="m123.14913 92.90184c-2.33275.059586-4.58359 1.03466-6.37274 2.464995-.05995 7.878685-.00855 15.785955-.0257 23.675625 1.04512.80447 2.40808 1.22539 3.67187 1.64844 3.05629.90882 6.39033.26117 9.11522-1.30301.84057-.2714.31907-1.33639.46291-1.98605 0-7.32422 0-14.64844 0-21.972657-1.83407-1.618659-4.37009-2.601534-6.85156-2.527343z"/>
      <g fill="none" stroke-linecap="round" stroke-linejoin="round">
        <path d="m237.33333 128.5v-12.1.16667m26.36667 34.43333h-26.36667v-12.7m63.16667 0v12.7h-26.8m26.8-35v12.6"/>
        <path d="m237.5 128.5h21.16667v9.83333h-21.16667"/>
        <path d="m300.41667 128.58334h-21.16667v9.83333h21.16667"/>
        <path d="m263.79687 150.64829v-15.66666h9.83333v15.66666"/>
      </g>
    </g>
    <g transform="matrix(.70710678 -.70710678 .70710678 .70710678 -55.262651 132.42266)">
      <path d="m52.999999 107.08333c0 3.58986-2.910149 6.5-6.5 6.5-3.58985 0-6.5-2.91014-6.5-6.5 0-3.58985 2.91015-6.5 6.5-6.5 3.589851 0 6.5 2.91015 6.5 6.5z"/>
      <path d="m53.155025 105.31579c.193302 1.21355.198544 2.49962-.046875 3.69688.249809.3856.713274-.1817 1.01314-.27306.906206-.58681 1.930142-.95078 2.889985-1.40819.313212-.41864-.426807-.57968-.690625-.71875-1.074411-.3542-2.020966-1.01721-3.05625-1.40938l-.069707.0717-.039668.0408z"/>
      <g transform="matrix(.95569909 0 0 1 5.177301 0)">
        <path d="m79.633501 71.636215c-10.765403.166092-21.244556 5.613572-27.644532 14.242187-2.288414 3.138943-4.217275 6.613885-5.328125 10.34375-.519351 1.747785-.265621 3.762644.992188 5.140628.73993.79554 1.485742 1.57722 2.160156 2.41797 3.795088 3.14707 9.202265 3.54864 13.824219 2.29687 2.926067-.76714 5.432687-2.70198 7.101494-5.2061.159961-.36116.812767-.80878.480537-1.207962-.867515.078117-1.707792.503432-2.59375.593752-3.689131.71535-7.763674.7132-11.128906-1.128908-1.357408-.889977-2.608914-2.254886-2.585938-3.96875.032258-.695999.095206-1.427537.332032-2.082031 4.795001-8.506211 14.258246-14.031977 24.035063-14.278242 8.704704-.315811 17.415734 3.56986 22.926091 10.286998 1.25686 1.592569 2.72679 3.207394 3.30447 5.206088.4827 1.99906-.01242 4.363132-1.77734 5.574218-1.81253 1.399717-4.119033 1.288147-6.341049 1.227467-.393689.11024-1.848872-.43009-1.916166.1247 1.230695 2.11579 3.662722 4.43464 6.030645 5.19471 2.15027.77096 4.48144.51717 6.71875.4375 2.54738-.37988 4.84697-2.09076 5.85547-4.46875.42892-1.03804.89325-2.14077.99292-3.245168-1.48914-5.872642-4.26047-11.457596-8.42172-15.90112-5.12164-5.666698-12.147487-9.578659-19.653228-11.006057-2.42358-.443249-4.895748-.635657-7.363281-.59375z"/>
        <path d="m57.778032 107.5034c-2.757906.12518-5.484658 1.14491-7.652344 2.84375-.832514.84498-1.486951 1.85332-2.389744 2.64238-1.420459 1.37927-1.771641 3.56786-1.109494 5.39141 2.929177 9.27743 9.905939 17.20787 18.768769 21.25918 4.937182 2.27143 10.398588 3.55661 15.859342 3.31228 10.044331-.11544 19.859389-4.91423 26.308629-12.5779 3.81967-4.52558 6.52963-10.03848 7.66406-15.85157.07847-1.36703-.77028-2.58719-1.45618-3.70276-1.56515-2.14635-4.30367-3.15223-6.90703-3.03571-2.65436-.11214-5.42599.21647-7.660227 1.74629-.942255.67098-2.244802 1.85153-2.833834 2.84555.170778.52496 1.353703-.12555 1.783053.0021 2.674768.03278 5.681718.99291 6.988278 3.50391.96406 1.85399 1.0022 4.21453-.1914 5.99219-3.4633 6.10662-9.429952 10.75995-16.191409 12.64062-4.104064 1.24447-8.476449 1.39152-12.729105.93862-7.594052-.99701-14.706754-5.10591-19.173239-11.32534-.731738-1.14991-1.7365-2.23162-2.011719-3.60156-.250002-1.62603.064003-3.43526 1.386719-4.54297 2.19989-1.95512 5.302824-2.29196 8.128906-2.33984 2.16697-.03759 4.897536.71667 7.009916 1.10456.544-.21459-.749402-1.13336-.89582-1.42449-1.80159-2.59703-4.460235-4.66047-7.606283-5.30898-1.667222-.37038-3.380417-.55277-5.089844-.51172z"/>
        <path d="m115.47755 100.99168c-.72573.76824-1.22903 2.89867-1.96514 3.69532-.79456 1.12886-2.78613 1.70124-3.89934 2.45703-.16111.55872 1.44325.58566 1.77824.82422 1.62607.72347 3.0942 3.14559 3.9964 4.65504.27982.44549.47535-1.13734.41376-1.5027.2311-2.9076.30136-5.87864-.17969-8.75781-.04813-.17106.08635-1.42734-.14423-1.3711z"/>
        <g fill="none" stroke-linecap="round" stroke-width="1.022915">
          <path d="m45.990548 117.65054c5.68975 19.08084 25.716679 29.92042 44.73139 24.21088 19.014712-5.70954 29.816722-25.80613 24.126972-44.886976-5.68976-19.080844-25.716681-29.920422-44.731392-24.210884-11.47387 3.445253-20.48341 12.399835-24.02659 23.880059" stroke-linejoin="round"/>
          <path d="m46.0625 117.5c-1.224115-3.38815 4.057334-9.86509 11.375-10.37518 7.507587-.135 11.637492 2.45641 14.5 7.96235"/>
          <path d="m46.187499 96.74741c-1.217951 4.26315 4.076935 9.86509 11.429952 10.37518 7.543855.135 11.693711-2.45641 14.570048-7.962347"/>
          <path d="m115.8125 114.5651c-.99235-4.1155-3.1557-6.89516-8.84722-7.25169-5.83924-.09436-9.051383 1.7169-11.27778 5.56525"/>
          <path d="m115.4375 99.43491c-.99236 4.54093-3.1557 7.60795-8.84722 8.00133-5.83924.10411-9.051383-1.89438-11.27778-6.14056"/>
          <path d="m105.34201 120.4169c-4.62698 9.30575-14.042676 14.95811-25.217011 14.95811-10.811825 0-20.086305-5.6187-24.875907-14.43673m.200122-27.583495c4.881698-8.498746 14.103515-14.229782 24.675785-14.229782 10.751762 0 20.106831 5.927285 24.920661 14.665026"/>
          <path d="m71.875 99c-9.096063 3.28353-18.652942.32257-16.25-5.75"/>
          <path d="m55.25 120.75c-1.495787-6.10831 6.91876-8.3383 16.5-5.625"/>
          <path d="m95.625 112.75c7.54248-.71818 10.55605 2.90396 9.75 7.5"/>
          <path d="m95.25 100.875c7.79156 1.07832 11.24985-2.120264 9.75-7.25"/>
        </g>
      </g>
      <path d="m237.50607 116.56496c.12494 3.81442-.44993 8.23585-.0125 11.92083h21.16666c-.0625 3.48612-.025 6.27223-.0875 9.75834-6.99309.05431-14.08615.1135-21.07916.17708-.43737 3.68153.23749 8.5995.1125 12.41042 4.79264.43736 10.02165-.03733 14.94375.0875 3.59219-.12493 7.4914.2499 10.95416-.1875.05263-5.21535.21136-10.43063.27709-15.64584 3.43055 0 6.46111-.1 9.89166-.1.06578 5.21521.22449 10.63049.27709 15.84584 4.74105.43617 9.91676.06441 14.7875.1875 3.75379-.12878 7.91995.25513 11.54375-.1875-.1252-3.81084.55026-8.72905.1125-12.41042-6.99302-.06356-14.08607-.02275-21.07917-.07708 0-3.43056 0-6.46111 0-9.89167 6.9931-.05431 13.98615.18649 20.97917.12292.43736-3.68153.16251-8.3995.2875-12.21042-4.79608-.43746-10.42866.23747-15.35417.1125-15.77778 0-31.55556 0-47.33333 0l-.3875.0875z"/>
      <path d="m227.49811 98.015721c-.10022 5.377979-.47582 11.250549-.50451 16.641229-.32789 1.02959.20857 1.66356 1.00481 1.53846 23.75 0 48.57692.07692 72.32692.07692.427-.53264-.23752-2.02973-.12019-2.72596 0-4.95833.15385-10.37821.15385-15.336537-.53263-.426999-1.64511-.070168-2.34135-.1875-23.45833 0-46.76281.076923-70.22115.076923l-.49702-.02224.19864-.061295z"/>
      <path d="m130.50939 98.400337c-.10022 5.377973-.01428 10.789003-.04297 16.179683-.32789 1.02959.28549 1.58664 1.08174 1.46154h81.25c.427-.53264-.31445-1.79896-.19712-2.49519 0-4.95833.07692-10.30129.07692-15.259614-.53264-.426999-1.56819.314447-2.26442.197115-26.45834 0-52.91667 0-79.375 0l-.11241.054683-.41674-.138217z"/>
      <path d="m130.5 98.125h82.5v18h-82.5v-18z" fill="none"/>
      <path d="m304.10869 96.910554c-1.12611.022409-2.01405 1.013919-3.04027 1.397536-.26007 1.031591-.41605 2.20879-.48656 3.29685.01704 4.70183.18795 9.71135.20501 14.41318.75188.56706 2.04504.44365 2.94171.79778 1.57212.38893 3.42931-.00224 4.38281-1.40234 1.9002-2.42537 2.06429-5.70024 2.13039-8.62499-.00942-2.94383-.68449-6.21222-2.80617-8.437512-.85361-.849318-2.14499-1.500632-3.32692-1.440504z"/>
      <path d="m227.125 98.125h73.5v18h-73.5v-18z" fill="none"/>
      <path d="m300.625 98.125 2.5-1.125c.04935-.022209 7.22619-2.43685 7.25 10.375s-7.22288 9.63499-7.25 9.625l-2.375-.875" fill="none"/>
      <path d="m219.75983 92.668366c-2.30927.083184-4.73969 1.055867-6.58233 2.417969-.1831 1.721192.20531 3.832352.15264 5.585035 0 6.15365-.30769 12.53806-.30769 18.69171.95645.70646 2.4278 1.18198 3.5628 1.59645 2.43526.85817 5.19885.82671 7.58083-.10396.82764-.35068 1.91557-.73135 2.56791-1.33474 0-7.89453.15384-16.40445.15384-24.298978-1.85006-1.562275-4.66418-2.636558-7.128-2.553486z"/>
      <path d="m213 95.241142c4.74825-3.598364 9.46202-3.504645 14 0v24.186648c-4.7275 2.8507-9.01825 2.88155-14 0v-24.186648z" fill="none"/>
      <path d="m116.375 95.16374c4.74825-3.59836 9.46202-3.50464 14 0v24.18665c-4.7275 2.8507-9.01825 2.88155-14 0v-24.18665z" fill="none"/>
      <path d="m123.14913 92.90184c-2.33275.059586-4.58359 1.03466-6.37274 2.464995-.05995 7.878685-.00855 15.785955-.0257 23.675625 1.04512.80447 2.40808 1.22539 3.67187 1.64844 3.05629.90882 6.39033.26117 9.11522-1.30301.84057-.2714.31907-1.33639.46291-1.98605 0-7.32422 0-14.64844 0-21.972657-1.83407-1.618659-4.37009-2.601534-6.85156-2.527343z"/>
      <g fill="none" stroke-linecap="round" stroke-linejoin="round">
        <path d="m237.33333 128.5v-12.1.16667m26.36667 34.43333h-26.36667v-12.7m63.16667 0v12.7h-26.8m26.8-35v12.6"/>
        <path d="m237.5 128.5h21.16667v9.83333h-21.16667"/>
        <path d="m300.41667 128.58334h-21.16667v9.83333h21.16667"/>
        <path d="m263.79687 150.64829v-15.66666h9.83333v15.66666"/>
      </g>
    </g>
  </g>
</svg>
