<?xml version="1.0" encoding="UTF-8" standalone="no"?>
<!-- Created with Inkscape (http://www.inkscape.org/) -->
<!-- https://commons.wikimedia.org/wiki/File:Japanese_Crest_Ume.svg -->
<svg height="688" viewBox="0 0 688 688" width="688" xmlns="http://www.w3.org/2000/svg">
  <linearGradient id="fillColor">
    <stop stop-color="#000"/>
  </linearGradient>
  <path fill="url(#fillColor)" d="m227.01733 613.12639c-19.28069-1.9511-37.70163-9.1835-53.60157-21.0451-5.65831-4.2212-15.54821-14.1114-19.8152-19.8158-15.30402-20.4594-22.85394-45.3476-21.08582-69.5092 1.96064-26.7925 12.1694-49.3659 30.67418-67.82621 8.95242-8.93091 19.20661-16.01629 30.53313-21.09763 6.20545-2.78394 113.44827-37.77262 113.67659-37.08778.71944 2.1579 5.07737 8.72332 7.62682 11.49014 1.75127 1.9006 3.18414 3.57209 3.18414 3.71447s-7.66463 10.75981-17.03251 23.59425c-17.30282 23.70572-18.29566 25.30077-16.84023 27.05445.68977.83112 2.72465.87841 3.7636.08743.4138-.31506 8.31737-11.01129 17.5635-23.76949 9.24612-12.75819 16.9667-23.36178 17.15684-23.56357.19014-.20178 1.78866.36222 3.55227 1.25335 3.27049 1.65251 8.41503 3.20978 12.37219 3.74506l2.2044.29822v57.00461c0 36.2398-.17655 58.7552-.48467 61.8106-3.35919 33.31-22.63146 62.9766-52.09062 80.1854-11.05592 6.4584-23.52509 10.7667-36.9927 12.7815-6.00735.8988-18.75771 1.2626-24.36434.6953zm214.87034-.0114c-10.89715-1.1323-21.74886-3.8639-31.15076-7.8412-30.52467-12.9129-53.55127-40.1056-61.12683-72.1861-2.87438-12.1722-2.80013-10.3176-2.96658-74.1021l-.1522-58.3233 2.68215-.32727c3.30981-.40384 10.33-2.64745 13.06244-4.17465 1.11915-.62549 2.18306-1.13728 2.36424-1.13728.18119 0 8.03849 10.64021 17.46067 23.64488 9.42219 13.00471 17.6068 23.90253 18.18803 24.21746.73569.39865 1.44071.43842 2.32041.13092 1.00428-.35099 1.2907-.7733 1.39551-2.05751.12004-1.47087-1.4289-3.75638-17.26409-25.47379l-17.39596-23.85794 3.26895-3.50034c3.05631-3.27271 7.35896-9.74931 7.35896-11.07715 0-.32439.25368-.58985.56373-.58985 1.4097 0 108.76011 35.18351 112.67248 36.92781 31.88858 14.21709 54.24448 42.47311 60.74168 76.77251 6.87813 36.31-6.86188 74.7372-35.21712 98.493-15.1022 12.6526-33.1417 20.8246-52.46902 23.7689-5.98244.9114-18.7392 1.2746-24.33669.693zm-283.78664-204.36874c-23.13433-2.94238-43.33044-12.51075-59.821513-28.34177-17.33242-16.63867-27.68938-36.74645-31.43324-61.02687-1.1274-7.31168-1.12855-21.44843-.00232-28.77313 4.72173-30.70908 20.71557-55.93395 46.241043-72.92963 31.71302-21.11554 74.372-22.72225 107.74585-4.05815 9.41649 5.26611 19.49237 13.16293 25.69335 20.13678 1.77825 1.99988 3.7278 4.15767 4.33233 4.79508.60454.63741 16.01836 21.70217 34.25296 46.81059l33.15381 45.65167-2.86473 3.11698c-2.98167 3.24423-5.40153 6.71974-7.07047 10.15493-.53754 1.10642-1.23637 2.01166-1.55295 2.01166-.31657 0-12.77963-3.96791-27.69568-8.81757-14.91604-4.84965-27.73039-8.81755-28.47633-8.81755s-1.60685.2506-1.91315.5569c-.8556.8556-.66148 2.91725.36189 3.84339.50533.45733 13.37793 4.86955 28.60578 9.80503 15.22784 4.93542 27.75076 9.03727 27.8287 9.11519.07794.07796-.0506.97123-.28565 1.98502-.51938 2.24017-.54921 12.25888-.04426 14.8622l.36484 1.88088-53.40651 17.35415c-29.37358 9.54479-54.86837 17.7314-56.65508 18.19251-10.6897 2.75874-26.80706 3.83374-37.35867 2.49171zm348.29415.12405c-8.97411-1.01036-15.30385-2.87365-69.4638-20.44805l-54.74259-17.76351.27627-1.39225c.6915-3.48475.77708-11.24041.1566-14.19119l-.64202-3.05325 27.82285-9.00371c15.30257-4.95209 28.31199-9.3885 28.90983-9.85876 1.18438-.93164 1.46372-3.00977.53008-3.94341-.3063-.3063-1.17047-.5569-1.92038-.5569s-12.63006 3.6661-26.40033 8.1469c-13.77027 4.48081-26.29053 8.53708-27.82278 9.01397l-2.78593.8671-.94378-2.13358c-1.47343-3.33095-3.85025-6.80002-6.87266-10.03099-1.52556-1.63083-2.77375-3.10494-2.77375-3.27581 0-.17086 15.28977-21.32064 33.97726-46.99951 27.84793-38.26641 34.85362-47.60341 38.83526-51.75856 13.4718-14.05891 30.06078-23.74167 49.07948-28.64701 9.36783-2.41616 14.57986-3.02433 25.91838-3.02433 11.29476 0 16.82757.64146 26.05581 3.02085 37.14189 9.57664 66.41094 39.25438 75.50209 76.55635 3.77342 15.48281 3.8795 32.69675.29627 48.08012-9.03847 38.80405-40.03744 69.63409-78.81764 78.38823-10.29175 2.3232-24.14239 3.13673-34.17452 2.0073zm-171.01452-14.7964c-11.72895-3.02638-20.83282-12.01696-24.20127-23.90013-1.46122-5.15485-1.46122-12.43849 0-17.59333 3.42377-12.07831 12.55052-20.96337 24.6331-23.98072 3.23079-.80682 4.84791-.93824 9.28165-.75428 9.23053.38296 15.84207 3.23336 22.34018 9.63138 10.49086 10.32937 13.08708 25.15129 6.70635 38.28683-4.60048 9.47072-12.32152 15.83501-22.24328 18.33466-4.83889 1.21905-11.73706 1.20889-16.51673-.02441zm-45.01603-111.42961c-17.99481-24.78274-33.36903-46.02579-34.16494-47.20678-8.16042-12.10872-13.9272-27.99415-16.0263-44.14676-.86074-6.62344-.73966-20.5202.23453-26.9168 3.41952-22.45291 13.10748-42.1681 28.58992-58.18105 15.96534-16.512405 36.7794-27.118925 60.34975-30.753295 7.25018-1.11793 21.35545-1.11669 28.98197.00255 47.48498 6.96867 83.53911 44.010905 89.38504 91.834755.82129 6.71873.3396 22.36563-.89643 29.11875-2.44769 13.37314-6.78646 24.80811-14.09005 37.13475-1.43358 2.41953-66.1318 92.11261-67.88792 94.11506-.07062.08052-1.35034-.46464-2.84383-1.21147-3.88432-1.94237-8.02658-3.27651-12.01463-3.86965l-3.46309-.51507v-30.01615c0-22.72712-.13523-30.15139-.5569-30.57306-.71937-.71937-3.27174-.71937-3.99111 0-.42167.42167-.5569 7.84659-.5569 30.576v30.01909l-2.57761.32205c-3.81052.4761-8.85668 1.97533-12.27304 3.64637-1.6591.81152-3.12096 1.52154-3.24858 1.57785-.12762.0563-14.95507-20.17441-32.94988-44.95714z"/>
</svg>
