<?xml version="1.0" encoding="UTF-8" standalone="no"?>
<!-- Created with Inkscape (http://www.inkscape.org/) -->
<!-- https://commons.wikimedia.org/wiki/File:Japanese_Crest_Mitsumori_Janome.svg -->
<svg height="500" viewBox="0 0 500 500" width="500" xmlns="http://www.w3.org/2000/svg">
  <linearGradient id="fillColor">
    <stop stop-color="#000"/>
  </linearGradient>
  <g fill="url(#fillColor)">
    <path d="m132.01562 235.28711a112.5 112.5 0 0 0 -112.499995 112.5 112.5 112.5 0 0 0 112.499995 112.5 112.5 112.5 0 0 0 112.5-112.5 112.5 112.5 0 0 0 -112.5-112.5zm0 65a47.5 47.5 0 0 1 47.5 47.5 47.5 47.5 0 0 1 -47.5 47.5 47.5 47.5 0 0 1 -47.499995-47.5 47.5 47.5 0 0 1 47.499995-47.5z" transform="translate(0 .000001)"/>
    <path d="m369.27344 234.94922a112.5 112.5 0 0 0 -112.5 112.5 112.5 112.5 0 0 0 112.5 112.5 112.5 112.5 0 0 0 112.5-112.5 112.5 112.5 0 0 0 -112.5-112.5zm0 65a47.5 47.5 0 0 1 47.5 47.5 47.5 47.5 0 0 1 -47.5 47.5 47.5 47.5 0 0 1 -47.5-47.5 47.5 47.5 0 0 1 47.5-47.5z" transform="translate(0 -.000004)"/>
    <path d="m250.64453 33.283203a112.5 112.5 0 0 0 -112.5 112.499997 112.5 112.5 0 0 0 112.5 112.5 112.5 112.5 0 0 0 112.5-112.5 112.5 112.5 0 0 0 -112.5-112.499997zm0 65a47.5 47.5 0 0 1 47.5 47.499997 47.5 47.5 0 0 1 -47.5 47.5 47.5 47.5 0 0 1 -47.5-47.5 47.5 47.5 0 0 1 47.5-47.499997z" transform="translate(0 0)"/>
  </g>
</svg>
