<?xml version="1.0" encoding="UTF-8" standalone="no"?>
<!-- Created with Inkscape (http://www.inkscape.org/) -->
<!-- https://commons.wikimedia.org/wiki/File:Japanese_crest_Tsuki_ni_Hoshi.svg -->
<svg height="500.81287" viewBox="0 0 500.81262 500.81287" width="500.81262" xmlns="http://www.w3.org/2000/svg">
  <linearGradient id="fillColor">
    <stop stop-color="#000"/>
  </linearGradient>
  <g fill="url(#fillColor)" transform="translate(1901.9376 -285.59344)">
    <path d="m-1828.7528 374.14705c-86.5375 94.16186-84.1942 240.6771 7.0932 331.96453 93.7258 93.72583 245.6854 93.72583 339.4112 0 93.7259-93.72583 93.7259-245.68542 0-339.41125-91.2874-91.28744-237.8026-93.6307-331.9645-7.09317 78.5105-70.93507 199.7319-68.57091 275.396 7.09317 78.1049 78.10486 78.1049 204.73785 0 282.84271s-204.7379 78.10486-282.8427 0c-75.6641-75.66408-78.0283-196.88551-7.0932-275.39599z"/>
    <path d="m23.824422 106.10015a33.482971 37.34639 0 1 1 -66.965943 0 33.482971 37.34639 0 1 1 66.965943 0z" transform="matrix(.95032804 -.95032804 .8520182 .8520182 -1871.0599 298.94225)"/>
  </g>
</svg>
