<?xml version="1.0" encoding="UTF-8" standalone="no"?>
<!-- Created with Inkscape (http://www.inkscape.org/) -->
<!-- https://commons.wikimedia.org/wiki/File:Japanese_Crest_Hana_Hisi.svg -->
<svg height="688" viewBox="0 0 688 688" width="688" xmlns="http://www.w3.org/2000/svg">
  <linearGradient id="fillColor">
    <stop stop-color="#000"/>
  </linearGradient>
  <path fill="url(#fillColor)" d="m338.48094 539.95945c-13.05961-1.4621-25.89941-8.9427-33.83021-19.7097-4.27763-5.8074-7.70363-13.9333-8.81952-20.9184-.22137-1.3858-.46971-2.5868-.55186-2.6689-.08216-.0822-1.70874.1371-3.61462.4874-3.96395.7285-11.69061.8393-15.31336.2196-11.58166-1.9811-20.65925-6.89-29.04498-15.7067-8.83762-9.2918-12.99076-17.9061-14.26909-29.5964-1.18973-10.8802 2.04181-22.8672 8.63231-32.0206 1.15466-1.6037 2.55604-3.3523 3.11417-3.8859.55812-.5335 16.94397-11.83898 36.41298-25.12317l35.3982-24.15309 2.01404 2.05434c5.47197 5.58146 12.05779 8.83264 20.72835 10.23284l1.42735.2305v37.26288 37.2628l.86949 1.0109c1.14518 1.3313 3.34446 1.3996 4.67969.1452l.92146-.8657v-37.408-37.40808l1.42734-.2305c8.69153-1.40358 15.28211-4.66311 20.74789-10.26136l2.03357-2.08286 35.18835 24.00083c19.3536 13.20045 35.73397 24.52337 36.40084 25.16197 1.92078 1.8394 5.28716 6.7328 7.16985 10.422 5.61178 10.9966 6.64134 24.3122 2.76354 35.7415-2.54529 7.5019-6.01511 12.9707-12.59919 19.8578-8.11275 8.4861-17.31184 13.4086-28.69388 15.3543-3.56927.6101-11.47451.495-15.38753-.2241-1.87883-.3453-3.48327-.5606-3.56543-.4784-.08216.0821-.3305 1.2831-.55187 2.6689-1.53165 9.5877-6.6802 19.5951-13.69023 26.6101-6.88552 6.8903-17.0412 12.1417-26.42155 13.6621-3.63301.5889-10.00354.7559-13.5761.3559zm-154.34377-111.7438c-14.83518-1.7895-26.36289-6.2592-37.68195-14.6105-9.42742-6.95573-17.54534-16.74272-22.65818-27.31685l-2.0825-4.30694-1.33219.21902c-.73271.12046-3.64449.32152-6.47064.4468-7.71711.3421-14.112724-.93101-21.126464-4.20542-12.886535-6.01616-22.345887-17.31068-25.882068-30.90334l-.903183-3.47173.703434-2.8086c3.779824-15.09165 14.568976-27.34891 28.968067-32.90985 5.332454-2.05939 9.949844-2.91873 15.956454-2.96964 2.82615-.02395 6.25178.09899 7.61252.27319l2.47407.31674 2.09169-4.31331c7.41611-15.29289 19.61644-27.3571 35.1581-34.76584 10.77795-5.13787 20.23687-7.22598 32.59505-7.19553 12.10448.02984 22.58437 2.49936 33.22902 7.83024 2.42448 1.21419 18.41521 11.87495 45.6751 30.45085 23.06951 15.72043 42.01238 28.64269 42.09526 28.71613s-.28682 1.12195-.82155 2.33003c-1.45245 3.28144-2.18885 5.69022-2.6764 8.75454l-.43856 2.7564-37.37612.10061-37.37612.1006-.98214.92276c-1.65202 1.55211-1.25121 4.2025.80079 5.2954.6157.32792 10.44355.4428 37.88162.4428h37.05023l.43943 2.76185c.48839 3.06952 1.22423 5.47719 2.67727 8.75999.53473 1.20808.90443 2.25659.82155 2.33003s-19.02575 12.99569-42.09526 28.71612c-27.25989 18.57595-43.25062 29.23665-45.6751 30.45085-7.52171 3.7669-16.09305 6.4018-24.34364 7.4833-3.8765.5082-13.22466.6912-16.30759.3193zm302.97654-.3449c-9.95911-1.3558-23.34976-6.181-29.4969-10.6289-.94205-.6817-19.61173-13.43472-41.4882-28.34014s-40.0042-27.32285-40.28386-27.5943c-.4234-.41097-.3844-.74047.23315-1.96976 1.20442-2.39749 2.38376-6.17463 2.85741-9.15156l.44249-2.78104 37.6307-.10058 37.63067-.10058.72757-.89857c.78264-.96661.96123-3.09206.35497-4.22486-.20493-.38291-.9156-.8855-1.57929-1.11686-.84884-.2959-12.11421-.42066-37.9848-.42066h-36.7781l-.44334-2.78646c-.47443-2.98179-1.65318-6.75815-2.85828-9.15698-.61755-1.22929-.65655-1.5588-.23315-1.96977.27966-.27145 18.40739-12.68888 40.28386-27.5943 21.87647-14.90541 40.54615-27.65846 41.4882-28.3401 2.33072-1.68644 8.53416-4.74392 13.04305-6.42848 7.4173-2.77119 18.40791-4.79721 26.02358-4.79721 10.99004 0 22.99422 2.80757 33.06196 7.73264 15.15625 7.41431 27.15643 19.41608 34.44839 34.45294l2.09169 4.31331 2.47407-.31674c4.14714-.53093 12.0586-.33389 15.60565.38868 9.93776 2.0244 18.16701 6.54552 25.08446 13.7813 5.92037 6.19281 9.77672 13.17067 11.84691 21.43632l.70343 2.8086-.90319 3.47173c-4.69604 18.05112-19.66404 31.64952-38.19694 34.7019-3.81379.62813-11.30383.60778-15.2822-.04153l-1.33219-.21743-2.08252 4.30694c-12.48365 25.81805-38.95218 42.32385-67.57201 42.13795-3.14016-.0204-7.42292-.2703-9.51724-.5555zm-149.20371-55.91387c-10.11732-2.20668-18.66173-10.35746-21.5593-20.5661-1.21456-4.27912-1.21456-10.5653 0-14.84441 1.4029-4.94265 3.58712-8.66181 7.28584-12.40589 5.61602-5.68491 11.29891-8.28171 18.88031-8.6274 5.4571-.24882 8.94655.4823 14.04382 2.94253 10.90485 5.26329 17.51583 17.33344 15.82549 28.89377-2.15484 14.73698-14.14947 25.2598-28.6516 25.13587-1.94744-.01664-4.56849-.25441-5.82456-.52837zm-56.93951-75.12852c-33.75069-22.95283-35.73268-24.36334-37.68195-26.81679-13.05535-16.43209-14.00407-38.49099-2.4048-55.91445 3.16606-4.7558 11.21827-13.01825 15.20779-15.60485 6.082-3.94326 12.66858-6.59141 19.22288-7.7286 5.42809-.94179 13.30301-.77601 18.86075.39705l1.17902.24885.46914-2.90819c1.05173-6.51966 4.16818-14.20543 8.01249-19.7604 7.38603-10.67268 19.62751-18.38368 32.52255-20.48621 3.5137-.5729 11.86612-.5779 15.28332-.00913 6.80668 1.13291 14.55229 4.25041 20.23642 8.14488 3.78892 2.59597 9.6153 8.42412 12.21582 12.21954 3.98112 5.81039 7.03827 13.31118 8.07561 19.81368l.47633 2.98583 1.17901-.24885c5.55775-1.17306 13.43266-1.33884 18.86075-.39705 9.14784 1.58718 18.01194 5.94889 24.62767 12.11842 11.84466 11.04576 17.33871 22.05147 17.89313 35.84345.47837 11.90042-3.62644 23.39022-11.74404 32.87284-.56258.65717-16.99634 12.06675-36.51949 25.35463l-35.49662 24.15977-2.03464-2.08395c-5.4669-5.5994-12.05678-8.85876-20.74895-10.26245l-1.42734-.2305v-37.40263c0-37.1147-.00598-37.40903-.77608-38.23564-1.17081-1.25672-3.46568-1.24314-4.83815.02861l-.85641.79356v37.40805 37.40805l-1.42735.2305c-8.67161 1.40037-15.25946 4.65286-20.72835 10.2338l-2.01404 2.05531z"/>
</svg>
