<?xml version="1.0" encoding="UTF-8" standalone="no"?>
<!-- Created with Inkscape (http://www.inkscape.org/) -->
<!-- https://commons.wikimedia.org/wiki/File:Musubi-kashiwa.svg -->
<!-- Image Copyright © 2007 Petr Sládek alias slady -->
<svg height="600" viewBox="0 0 600 600" width="600" xmlns="http://www.w3.org/2000/svg">
  <path class="emblem-color" d="m303.3125 50.875c-1.42538 1.092012-2.84656 2.193696-4.25 3.3125-.3771.299769-.7494.604649-1.125.90625-.25456.205104-.49618.419018-.75.625-.33385.26992-.66737.541114-1 .8125-.85842.703217-1.71269 1.411756-2.5625 2.125-.31813.265805-.65182.514058-.96875.78125-.49637.420387-.97538.857452-1.46875 1.28125-.79794.682378-1.58515 1.371112-2.375 2.0625-.21559.189427-.44125.372417-.65625.5625-.21641.19066-.44047.371154-.65625.5625-.73605.654802-1.45849 1.337526-2.1875 2-.9493.860995-1.90759 1.718988-2.84375 2.59375-54.21629 50.65148-88.125 122.75709-88.125 202.75 0 77.9259 32.18927 148.36097 83.96875 198.78125 2.14041-1.56235 4.25638-3.14533 6.34375-4.78125 5.00231-3.84253 9.83084-7.89702 14.5-12.125-48.12646-45.70956-78.125-110.31445-78.125-181.875 0-73.5304 31.71723-139.6754 82.1875-185.5625 49.75903 45.84559 80.9375 111.55379 80.9375 184.5 0 6.21369-.21147 12.36793-.65625 18.46875 8.81433 2.63571 17.4839 5.7101 26 9.1875.90069-9.09347 1.375-18.32712 1.375-27.65625 0-79.34176-33.36791-150.94387-86.8125-201.53125-.04829-.045705-.10793-.07933-.15625-.125-.44241-.418164-.86735-.834718-1.3125-1.25-1.17478-1.095565-2.36818-2.174913-3.5625-3.25-1.23282-1.110923-2.46609-2.223494-3.71875-3.3125-.25649-.22267-.52393-.434507-.78125-.65625-.21086-.181973-.41359-.381151-.625-.5625-1.57838-1.351927-3.17287-2.683008-4.78125-4-.15532-.127324-.31315-.248006-.46875-.375-.18434-.150292-.37778-.287669-.5625-.4375-1.58099-1.283595-3.1718-2.56323-4.78125-3.8125zm-.15625 230.09375c-26.85554 0-52.80864 3.83935-77.375 10.96875.7736 8.9659 2.05971 17.89546 3.8125 26.71875 23.2692-7.13794 47.965-11 73.5625-11 121.81925 0 223.38875 87.00429 246.03125 202.21875-24.36748 7.90457-50.35196 12.1875-77.34375 12.1875-54.32876 0-104.63618-17.29425-145.71875-46.6875-6.63833 6.27063-13.58699 12.2229-20.8125 17.8125 46.39513 34.87802 104.06164 55.56249 166.53125 55.5625 28.22165 0 55.46387-4.2197 81.125-12.0625.97615-.29834 1.93468-.62871 2.90625-.9375 3.42966-1.09008 6.85016-2.21914 10.21875-3.4375.10566-.03821.2069-.08666.3125-.125.40718-.14775.81245-.2879 1.21875-.4375 3.80122-1.39964 7.55979-2.87818 11.28125-4.4375-.46608-4.16289-1.04298-8.3022-1.6875-12.40625-.02594-.16517-.03627-.33492-.0625-.5-.04331-.27108-.0809-.54168-.125-.8125-.30228-1.86668-.62903-3.70841-.96875-5.5625-.07303-.39716-.14403-.79093-.21875-1.1875-.32206-1.71461-.67686-3.42139-1.03125-5.125-.1101-.52926-.19927-1.06556-.3125-1.59375-.00872.00392-.02253-.00392-.03125 0-26.82906-125.18803-138.15179-219.15625-271.3125-219.15625zm-110.90625 23.09375c-80.61017 35.22285-141.293344 107.65179-160.3125 195.53125-.100895.46657-.182519.93872-.28125 1.40625-.290167 1.37537-.574055 2.74222-.84375 4.125-.14124.72024-.301606 1.43392-.4375 2.15625-.33979 1.81944-.664688 3.66828-.96875 5.5-.013914.08301-.01741.16696-.03125.25-.260866 1.5804-.515987 3.16074-.75 4.75-.200644 1.34933-.382127 2.70735-.5625 4.0625-.026044.19719-.036871.39643-.0625.59375-.18625 1.42377-.399394 2.85156-.5625 4.28125 6.121186 2.53254 12.355102 4.83934 18.6875 6.9375 1.325402.43889 2.665492.86172 4 1.28125 26.287897 8.26838 54.24576 12.74999 83.25 12.75 131.53844.00001 241.78341-91.66295 270.3125-214.5625-8.21043-3.67899-16.64527-6.91345-25.21875-9.6875-24.43324 112.89584-124.91887 197.5625-245.09375 197.5625-26.56491 0-52.15371-4.14214-76.1875-11.8125 15.752221-78.91313 68.5897-144.50963 139.53125-177.84375-1.94096-9.00895-3.42448-18.11956-4.46875-27.28125z"/>
</svg>
