<?xml version="1.0" encoding="UTF-8" standalone="no"?>
<!-- Created with Inkscape (http://www.inkscape.org/) -->
<!-- https://commons.wikimedia.org/wiki/File:Japanese_Crest_Futatsudomoe_1.svg -->
<svg height="500.81287" viewBox="0 0 500.81262 500.81287" width="500.81262" xmlns="http://www.w3.org/2000/svg">
  <path class="emblem-main" fill="#000" d="m-1665.4429 775.6327c-97.0193-4.48992-186.7167-74.09957-214.8591-167.12628-29.9904-91.24304 1.5859-198.70109 77.042-258.45842 36.8226-30.01129 82.7554-49.25689 130.2059-52.92602-70.9282 8.23073-133.763 61.86311-151.9361 131.09397-19.7748 68.34868 6.4201 146.61604 62.9087 189.74869 19.3184-55.74385 84.0387-89.74394 140.7787-73.22896 58.6367 14.18931 98.5905 78.43333 84.9694 137.30938-10.3763 56.16274-66.1916 98.45753-123.0322 93.78497l-3.2806-.0765-2.7967-.12048zm36.8402-.94894c2.6433-.77915.4797.84013 0 0zm3.6001-.49299c3.7178-.74691.7137.77199 0 0zm9.24-1.61428c81.741-15.10873 146.3844-93.30777 144.001-176.61617 1.2335-54.73816-25.9068-108.75775-69.0826-142.02565-19.1467 54.40133-81.2658 88.50993-137.3005 74.14408-58.9605-12.30308-100.8917-75.09095-89.3043-134.28717 8.6253-57.76264 65.7087-103.11848 123.9173-97.48745 97.8228 1.47496 189.6566 70.19876 219.538 163.25674 31.94 91.80417.9489 201.16509-75.2223 261.86618-34.5482 28.51966-77.3288 46.96998-121.7727 52.53089z" transform="translate(1901.9376 -285.59344)"/>
</svg>
