<?xml version="1.0" encoding="UTF-8" standalone="no"?>
<!-- Created with Inkscape (http://www.inkscape.org/) -->
<!-- https://commons.wikimedia.org/wiki/File:Coa_Illustration_Cross_Bowen_3.svg -->
<svg
   xmlns:dc="http://purl.org/dc/elements/1.1/"
   xmlns:cc="http://creativecommons.org/ns#"
   xmlns:rdf="http://www.w3.org/1999/02/22-rdf-syntax-ns#"
   xmlns:svg="http://www.w3.org/2000/svg"
   xmlns="http://www.w3.org/2000/svg"
   version="1.1"
   width="300"
   height="300"
   id="svg2">
  <metadata
     id="metadata129">
    <rdf:RDF>
      <cc:Work
         rdf:about="">
        <dc:format>image/svg+xml</dc:format>
        <dc:type
           rdf:resource="http://purl.org/dc/dcmitype/StillImage" />
        <dc:title></dc:title>
      </cc:Work>
    </rdf:RDF>
  </metadata>
  <defs
     id="defs4" />
  <g
     transform="translate(-1737.758223523936,-566.0760794352429)"
     id="g4059"
     style="fill:#ebebeb">
    <path
       d="m 1744.258223523936,716.0760794352436 58.772214704556,58.7722147045556 10.518155164637,-10.5181551646374 37.703540820929,-37.703540820929 c 8.651856863629,8.6518568636294 17.303713727258,17.3037137272586 25.955570590889,25.9555705908888 l -37.70354082093,37.7035408209292 -10.518155164636,10.5181551646366 58.772214704555,58.7722147045562 58.739851150203,-58.7398511502033 -48.221695985566,-48.2216959855662 26.020297699594,-26.0202976995937 48.221695985566,48.2216959855657 58.739851150203,-58.7398511502032 -58.772214704555,-58.7722147045555 -10.518155164637,10.5181551646371 -37.70354082093,37.7035408209294 c -8.651856863629,-8.6518568636297 -17.303713727259,-17.3037137272596 -25.955570590888,-25.9555705908889 l 37.703540820929,-37.7035408209291 10.518155164637,-10.5181551646369 -58.772214704556,-58.7722147045561 -58.739851150203,58.7398511502032 48.221695985566,48.2216959855665 -26.020297699593,26.0202976995937 -48.221695985567,-48.221695985566 z m 21.036310329274,0 37.703540820929,-37.7035408209297 37.70354082093,37.7035408209297 -37.70354082093,37.703540820929 z m 84.760148849797,-84.7601488497975 37.703540820929,-37.7035408209292 37.70354082093,37.7035408209292 -37.70354082093,37.7035408209297 z m 11.715606675688,84.7925124041499 26.020297699594,-26.0202976995938 c 8.651856863629,8.6518568636293 17.303713727258,17.3037137272581 25.955570590888,25.9555705908883 l -26.020297699593,26.0202976995938 c -8.65185686363,-8.6518568636295 -17.30371372726,-17.303713727259 -25.955570590889,-25.9555705908883 z m -11.715606675688,84.7277852954444 37.703540820929,-37.7035408209297 37.703540820929,37.7035408209291 -37.703540820929,37.7035408209298 z m 84.760148849797,-84.7601488497969 37.703540820929,-37.7035408209296 37.703540820929,37.703540820929 -37.703540820929,37.7035408209296 z"
       id="rect4002"
       style="fill:#ebebeb;stroke:#000000;stroke-width:3;stroke-miterlimit:4;stroke-dasharray:none" />
    <path
       d="m 1840.701615495069,716.0760794352436 10.518155164637,-10.5181551646373"
       id="path4017"
       style="fill:#ebebeb;stroke:#000000;stroke-width:3;stroke-linecap:butt;stroke-linejoin:miter;stroke-miterlimit:4;stroke-opacity:1;stroke-dasharray:none" />
    <path
       d="m 1851.284497768376,726.6589617085511 10.485791610319,-10.5505187189553"
       id="path4019"
       style="fill:#ebebeb;stroke:#000000;stroke-width:3;stroke-linecap:butt;stroke-linejoin:miter;stroke-miterlimit:4;stroke-opacity:1;stroke-dasharray:none" />
    <path
       d="m 1913.746157669177,716.0437158808905 10.518155164637,-10.5181551646367"
       id="path4021"
       style="fill:#ebebeb;stroke:#000000;stroke-width:3;stroke-linecap:butt;stroke-linejoin:miter;stroke-miterlimit:4;stroke-opacity:1;stroke-dasharray:none" />
    <path
       d="m 1924.329039942485,726.6265981541987 10.485791610319,-10.5505187189553"
       id="path4023"
       style="fill:#ebebeb;stroke:#000000;stroke-width:3;stroke-linecap:butt;stroke-linejoin:miter;stroke-miterlimit:4;stroke-opacity:1;stroke-dasharray:none" />
    <path
       d="m 1887.758223523936,669.0194714063759 10.518155164637,10.5181551646367"
       id="path4025"
       style="fill:#ebebeb;stroke:#000000;stroke-width:3;stroke-linecap:butt;stroke-linejoin:miter;stroke-miterlimit:4;stroke-opacity:1;stroke-dasharray:none" />
    <path
       d="m 1877.240068359299,679.5376265710126 10.550518718959,10.4857916103149"
       id="path4027"
       style="fill:#ebebeb;stroke:#000000;stroke-width:3;stroke-linecap:butt;stroke-linejoin:miter;stroke-miterlimit:4;stroke-opacity:1;stroke-dasharray:none" />
    <path
       d="m 1877.240068359299,752.6145322994741 10.518155164637,10.5181551646366"
       id="path4035"
       style="fill:#ebebeb;stroke:#000000;stroke-width:3;stroke-linecap:butt;stroke-linejoin:miter;stroke-miterlimit:4;stroke-opacity:1;stroke-dasharray:none" />
    <path
       d="m 1887.758223523936,742.0963771348374 10.518155164637,10.5181551646367"
       id="path4037"
       style="fill:#ebebeb;stroke:#000000;stroke-width:3;stroke-linecap:butt;stroke-linejoin:miter;stroke-miterlimit:4;stroke-opacity:1;stroke-dasharray:none" />
  </g>
</svg>
