<?xml version="1.0" encoding="UTF-8" standalone="no"?>
<!-- Created with Inkscape (http://www.inkscape.org/) -->
<!-- https://commons.wikimedia.org/wiki/File:Couronne_h%C3%A9raldique_svg.svg -->
<svg
   xmlns:dc="http://purl.org/dc/elements/1.1/"
   xmlns:cc="http://creativecommons.org/ns#"
   xmlns:rdf="http://www.w3.org/1999/02/22-rdf-syntax-ns#"
   xmlns:svg="http://www.w3.org/2000/svg"
   xmlns="http://www.w3.org/2000/svg"
   xmlns:sodipodi="http://sodipodi.sourceforge.net/DTD/sodipodi-0.dtd"
   xmlns:inkscape="http://www.inkscape.org/namespaces/inkscape"
   width="530"
   height="240"
   id="svg3076"
   version="1.1"
   inkscape:version="0.48.4 r9939"
   sodipodi:docname="couronne_svg.svg">
  <defs
     id="defs3078" />
  <sodipodi:namedview
     id="base"
     pagecolor="#ffffff"
     bordercolor="#666666"
     borderopacity="1.0"
     inkscape:pageopacity="0.0"
     inkscape:pageshadow="2"
     inkscape:zoom="1.6730038"
     inkscape:cx="371.95548"
     inkscape:cy="198.75253"
     inkscape:document-units="px"
     inkscape:current-layer="layer1"
     showgrid="false"
     showguides="true"
     inkscape:guide-bbox="true"
     inkscape:snap-page="false"
     inkscape:snap-bbox="true"
     inkscape:window-width="1920"
     inkscape:window-height="1018"
     inkscape:window-x="-8"
     inkscape:window-y="-8"
     inkscape:window-maximized="1"
     inkscape:snap-to-guides="true"
     inkscape:snap-grids="true">
    <sodipodi:guide
       orientation="1,0"
       position="263.30357,1051.0603"
       id="guide3105" />
  </sodipodi:namedview>
  <metadata
     id="metadata3081">
    <rdf:RDF>
      <cc:Work
         rdf:about="">
        <dc:format>image/svg+xml</dc:format>
        <dc:type
           rdf:resource="http://purl.org/dc/dcmitype/StillImage" />
        <dc:title />
      </cc:Work>
    </rdf:RDF>
  </metadata>
  <g
     inkscape:label="Calque 1"
     inkscape:groupmode="layer"
     id="layer1"
     transform="translate(0,-812.36218)">
    <g
       id="g3927"
       transform="translate(1.0049709,816.29089)">
      <g
         id="g3899">
        <g
           id="g3885">
          <path
             sodipodi:nodetypes="ccccczszczzzczcsscssczczzzczszccccccc"
             inkscape:connector-curvature="0"
             id="path3095"
             d="M 71.71575,231.64264 0.5,45.2695 c 20.37951,-6.4326 59.93932,38.92576 60.93566,58.73678 13.80182,-15.03924 24.50508,-20.56162 37.91135,-19.22354 15.01342,-0.26905 30.42713,30.81491 30.42713,30.81491 0,0 -14.37934,-3.30819 -21.91117,-1.04163 -7.53182,2.26655 -16.448244,13.01781 -14.720566,24.83655 1.345275,9.20278 7.568736,25.12598 31.014026,23.70907 23.4453,-1.41691 37.13503,-35.57841 37.13503,-35.57841 0,0 17.22464,33.32557 39.25518,32.22496 22.03054,-1.10061 32.36013,-15.79247 32.36613,-30.14164 0.006,-14.34916 -6.06732,-30.037992 -20.12697,-29.964202 -14.05964,0.07379 -27.78502,14.174852 -27.78502,14.174852 0,0 -12.16936,-25.947026 5.89511,-45.90611 18.06447,-19.959084 41.07698,1.78064 41.07698,1.78064 0,0 -3.27317,-24.986281 6.23275,-41.98038 4.38117,-7.832385 10.65566,-14.59616 15.83485,-19.4018387 5.1792,-4.8056788 9.2631,-7.67602809 9.2631,-7.67602809 0,0 4.08088,2.87169069 9.26008,7.67736949 5.17919,4.8056783 11.45368,11.5694533 15.83485,19.4018383 9.50592,16.994099 6.23275,41.98038 6.23275,41.98038 0,0 23.01251,-21.739724 41.07698,-1.78064 18.06447,19.959084 5.89511,45.906109 5.89511,45.906109 0,0 -13.72538,-14.101058 -27.78502,-14.174851 -14.05965,-0.07379 -20.13267,15.615041 -20.12697,29.964201 0.006,14.34917 10.33559,29.04103 32.36613,30.14164 22.03054,1.10061 39.25518,-32.22496 39.25518,-32.22496 0,0 13.68973,34.1615 37.13503,35.57841 23.44529,1.41691 29.66875,-14.50629 31.01403,-23.70907 1.72767,-11.81874 -7.18875,-22.57 -14.72057,-24.83655 -7.53183,-2.26656 -21.91117,1.04163 -21.91117,1.04163 0,0 15.41371,-31.083959 30.42713,-30.814909 13.40627,-1.33808 24.10953,4.1843 37.91135,19.223539 0.99634,-19.811019 40.55615,-65.169379 60.93566,-58.736779 l -71.21575,186.373139 -191.5848,0.34095 z"
             style="fill:#fcef3c;stroke:#000000;stroke-width:1px;stroke-linecap:butt;stroke-linejoin:miter;stroke-opacity:1" />
          <path
             inkscape:connector-curvature="0"
             id="path3877"
             d="m 71.706657,231.63946 c 63.741663,-16.67602 112.338583,-25.68872 191.596913,-25.68872 79.25833,0 127.83903,9.02064 191.58069,25.69666"
             style="fill:none;stroke:#000000;stroke-width:1.00259042px;stroke-linecap:butt;stroke-linejoin:miter;stroke-opacity:1"
             sodipodi:nodetypes="czc" />
        </g>
        <g
           id="use3889"
           transform="matrix(-1,0,0,1,526.60412,0.00134142)" />
      </g>
      <path
         inkscape:connector-curvature="0"
         id="path3907"
         d="m 71.710929,229.88794 c -0.26219,-0.59143 -16.20201,-42.25032 -35.421825,-92.57532 L 1.3439864,45.812619 2.9241652,45.463359 c 3.0168807,-0.666809 8.2790588,0.58737 13.5709138,3.234471 18.286977,9.147539 41.10934,36.789899 43.91942,53.19503 l 0.52835,3.08449 5.517895,-5.250241 c 9.138635,-8.69534 16.791945,-13.04843 24.931205,-14.1805 4.50967,-0.627235 10.778351,-0.01045 13.890251,1.36664 3.47175,1.53636 8.18932,5.7912 12.64182,11.401845 4.09498,5.160126 10.7108,15.533716 10.21984,16.024676 -0.1443,0.14429 -1.69722,0.0479 -3.45094,-0.21419 -13.47741,-2.01425 -19.40873,-0.71921 -25.160641,5.49354 -6.814005,7.35994 -8.680525,15.76687 -5.6022,25.2327 3.11583,9.58116 9.742741,15.79974 19.199251,18.01625 4.83351,1.13293 14.22194,0.72354 18.55403,-0.80907 9.45296,-3.34427 19.58329,-13.87838 27.12752,-28.2088 l 2.54343,-4.8313 3.36126,5.14686 c 8.66451,13.26735 17.60029,21.43187 27.0551,24.71993 2.88603,1.00366 4.55716,1.25093 8.41731,1.24549 15.66278,-0.0221 28.75031,-9.36052 32.32984,-23.06856 1.13791,-4.35771 0.77296,-15.20086 -0.67564,-20.07403 -4.10643,-13.81428 -12.54133,-19.816531 -24.2022,-17.222231 -6.10854,1.359021 -11.8032,4.397611 -18.99889,10.137541 l -3.36325,2.68283 -0.76756,-1.83702 c -1.42177,-3.40277 -2.75624,-11.425171 -2.74726,-16.515631 0.0189,-10.68685 3.47167,-19.452965 10.49132,-26.63566 4.8335,-4.945765 10.5714,-7.5358 16.69463,-7.5358 5.53256,0 13.90186,3.363905 20.20685,8.12181 1.73331,1.308005 3.19581,2.378415 3.25,2.378695 0.0542,2.75e-4 0.0241,-4.04644 -0.0669,-8.992705 -0.37464,-20.371611 3.21571,-31.427097 14.5925,-44.933621 4.36509,-5.182234 15.12623,-15.0516402 16.43089,-15.0693257 0.71032,-0.00963 9.22464,7.4550229 12.89668,11.3067387 9.7417,10.218366 14.28487,18.342919 16.74126,29.938408 1.12547,5.312769 1.79783,16.321765 1.36653,22.375 -0.21063,2.95625 -0.33578,5.375 -0.2781,5.375 0.0577,0 1.86228,-1.270465 4.01024,-2.82325 13.80579,-9.98038 26.21231,-10.12884 35.93996,-0.430065 8.2497,8.22521 11.75065,18.72735 10.58515,31.753315 -0.31205,3.487651 -2.44817,12.745111 -3.08867,13.385601 -0.0934,0.0934 -2.13651,-1.40806 -4.54021,-3.33662 -4.95632,-3.97663 -12.88197,-8.16165 -17.73263,-9.363451 -12.33826,-3.05694 -21.86522,4.580941 -25.08142,20.108081 -1.3288,6.41519 -1.08379,14.83123 0.56967,19.56778 4.36868,12.51464 17.02322,20.73143 31.8922,20.70811 6.92456,-0.0108 12.58913,-2.21438 19.17136,-7.45766 6.03367,-4.80631 12.99993,-13.00645 17.30709,-20.37258 1.03559,-1.77106 1.99538,-3.21079 2.13288,-3.19941 0.1375,0.0114 1.12074,1.8354 2.18497,4.05338 4.76244,9.9254 14.67049,21.87165 21.42643,25.83407 5.83671,3.42329 8.58454,4.23296 15.1386,4.46072 9.80827,0.34084 15.76311,-1.59588 21.54933,-7.00861 5.948,-5.56406 9.49029,-15.28071 8.3801,-22.98694 -1.10057,-7.63941 -6.49237,-15.26092 -13.09603,-18.51171 -3.22227,-1.58623 -3.47686,-1.62868 -9.32306,-1.55454 -3.30569,0.0419 -7.5577,0.33207 -9.44892,0.64476 -1.89122,0.31269 -3.53187,0.47523 -3.64589,0.36121 -0.26532,-0.26532 2.78065,-5.50313 6.00852,-10.33219 6.16484,-9.222921 13.26092,-16.049756 18.50646,-17.804286 3.04696,-1.019145 11.50969,-1.156525 15.31949,-0.248685 6.91109,1.646845 14.14909,6.273685 22.56556,14.424871 l 4.81555,4.66377 0.33579,-2.39283 c 1.43794,-10.246611 10.82695,-25.224676 24.25351,-38.691051 11.94694,-11.98239 22.78259,-18.452993 31.13814,-18.594492 1.8472,-0.03128 3.4736,0.05818 3.6142,0.198803 0.1862,0.186182 -69.91598,184.58313 -70.44773,185.30593 -0.0453,0.0616 -4.45701,-1.02297 -9.80372,-2.4102 -64.38663,-16.7054 -113.74778,-22.94738 -181.4713,-22.94801 -67.8417,-5e-4 -113.29368,5.71839 -180.408346,22.70001 -10.65564,2.69613 -10.658475,2.69655 -11.135065,1.62149 l 0,0 z"
         style="opacity:0;fill:#fcef3c;fill-opacity:1;fill-rule:evenodd;stroke:none" />
      <path
         inkscape:connector-curvature="0"
         id="path3909"
         d="m 71.710929,229.88794 c -0.26219,-0.59143 -16.20201,-42.25032 -35.421825,-92.57532 L 1.3439864,45.812619 2.9241652,45.463359 c 3.0168807,-0.666809 8.2790588,0.58737 13.5709138,3.234471 18.286977,9.147539 41.10934,36.789899 43.91942,53.19503 l 0.52835,3.08449 5.517895,-5.250241 c 9.138635,-8.69534 16.791945,-13.04843 24.931205,-14.1805 4.50967,-0.627235 10.778351,-0.01045 13.890251,1.36664 3.47175,1.53636 8.18932,5.7912 12.64182,11.401845 4.09498,5.160126 10.7108,15.533716 10.21984,16.024676 -0.1443,0.14429 -1.69722,0.0479 -3.45094,-0.21419 -13.47741,-2.01425 -19.40873,-0.71921 -25.160641,5.49354 -6.814005,7.35994 -8.680525,15.76687 -5.6022,25.2327 3.11583,9.58116 9.742741,15.79974 19.199251,18.01625 4.83351,1.13293 14.22194,0.72354 18.55403,-0.80907 9.45296,-3.34427 19.58329,-13.87838 27.12752,-28.2088 l 2.54343,-4.8313 3.36126,5.14686 c 8.66451,13.26735 17.60029,21.43187 27.0551,24.71993 2.88603,1.00366 4.55716,1.25093 8.41731,1.24549 15.66278,-0.0221 28.75031,-9.36052 32.32984,-23.06856 1.13791,-4.35771 0.77296,-15.20086 -0.67564,-20.07403 -4.10643,-13.81428 -12.54133,-19.816531 -24.2022,-17.222231 -6.10854,1.359021 -11.8032,4.397611 -18.99889,10.137541 l -3.36325,2.68283 -0.76756,-1.83702 c -1.42177,-3.40277 -2.75624,-11.425171 -2.74726,-16.515631 0.0189,-10.68685 3.47167,-19.452965 10.49132,-26.63566 4.8335,-4.945765 10.5714,-7.5358 16.69463,-7.5358 5.53256,0 13.90186,3.363905 20.20685,8.12181 1.73331,1.308005 3.19581,2.378415 3.25,2.378695 0.0542,2.75e-4 0.0241,-4.04644 -0.0669,-8.992705 -0.37464,-20.371611 3.21571,-31.427097 14.5925,-44.933621 4.36509,-5.182234 15.12623,-15.0516402 16.43089,-15.0693257 0.71032,-0.00963 9.22464,7.4550229 12.89668,11.3067387 9.7417,10.218366 14.28487,18.342919 16.74126,29.938408 1.12547,5.312769 1.79783,16.321765 1.36653,22.375 -0.21063,2.95625 -0.33578,5.375 -0.2781,5.375 0.0577,0 1.86228,-1.270465 4.01024,-2.82325 13.80579,-9.98038 26.21231,-10.12884 35.93996,-0.430065 8.2497,8.22521 11.75065,18.72735 10.58515,31.753315 -0.31205,3.487651 -2.44817,12.745111 -3.08867,13.385601 -0.0934,0.0934 -2.13651,-1.40806 -4.54021,-3.33662 -4.95632,-3.97663 -12.88197,-8.16165 -17.73263,-9.363451 -12.33826,-3.05694 -21.86522,4.580941 -25.08142,20.108081 -1.3288,6.41519 -1.08379,14.83123 0.56967,19.56778 4.36868,12.51464 17.02322,20.73143 31.8922,20.70811 6.92456,-0.0108 12.58913,-2.21438 19.17136,-7.45766 6.03367,-4.80631 12.99993,-13.00645 17.30709,-20.37258 1.03559,-1.77106 1.99538,-3.21079 2.13288,-3.19941 0.1375,0.0114 1.12074,1.8354 2.18497,4.05338 4.76244,9.9254 14.67049,21.87165 21.42643,25.83407 5.83671,3.42329 8.58454,4.23296 15.1386,4.46072 9.80827,0.34084 15.76311,-1.59588 21.54933,-7.00861 5.948,-5.56406 9.49029,-15.28071 8.3801,-22.98694 -1.10057,-7.63941 -6.49237,-15.26092 -13.09603,-18.51171 -3.22227,-1.58623 -3.47686,-1.62868 -9.32306,-1.55454 -3.30569,0.0419 -7.5577,0.33207 -9.44892,0.64476 -1.89122,0.31269 -3.53187,0.47523 -3.64589,0.36121 -0.26532,-0.26532 2.78065,-5.50313 6.00852,-10.33219 6.16484,-9.222921 13.26092,-16.049756 18.50646,-17.804286 3.04696,-1.019145 11.50969,-1.156525 15.31949,-0.248685 6.91109,1.646845 14.14909,6.273685 22.56556,14.424871 l 4.81555,4.66377 0.33579,-2.39283 c 1.43794,-10.246611 10.82695,-25.224676 24.25351,-38.691051 11.94694,-11.98239 22.78259,-18.452993 31.13814,-18.594492 1.8472,-0.03128 3.4736,0.05818 3.6142,0.198803 0.1862,0.186182 -69.91598,184.58313 -70.44773,185.30593 -0.0453,0.0616 -4.45701,-1.02297 -9.80372,-2.4102 -64.38663,-16.7054 -113.74778,-22.94738 -181.4713,-22.94801 -67.8417,-5e-4 -113.29368,5.71839 -180.408346,22.70001 -10.65564,2.69613 -10.658475,2.69655 -11.135065,1.62149 l 0,0 z"
         style="opacity:0;fill:#fcef3c;fill-opacity:1;fill-rule:evenodd;stroke:none" />
      <path
         inkscape:connector-curvature="0"
         id="path3911"
         d="m 150.50434,231.19101 -72.999996,-0.20693 5.25,-1.4338 c 16.701664,-4.56132 48.270996,-11.33655 67.322046,-14.44827 37.07297,-6.05535 67.15957,-8.24677 113.17795,-8.24358 46.3219,0.003 76.39055,2.18645 113.22961,8.2214 19.78898,3.24181 53.44664,10.49079 68.27039,14.70364 l 4.25,1.20784 -52.5,0.0359 c -28.875,0.0197 -79.6125,0.11123 -112.75,0.20332 -33.1375,0.0921 -93.1,0.0743 -133.25,-0.0395 l 0,0 z"
         style="opacity:0;fill:#fcef3c;fill-opacity:1;fill-rule:evenodd;stroke:none" />
      <path
         inkscape:connector-curvature="0"
         id="path3913"
         d="m 71.710929,229.88794 c -0.26219,-0.59143 -16.20201,-42.25032 -35.421825,-92.57532 L 1.3439864,45.812619 2.9241652,45.463359 c 3.0168807,-0.666809 8.2790588,0.58737 13.5709138,3.234471 18.286977,9.147539 41.10934,36.789899 43.91942,53.19503 l 0.52835,3.08449 5.517895,-5.250241 c 9.138635,-8.69534 16.791945,-13.04843 24.931205,-14.1805 4.50967,-0.627235 10.778351,-0.01045 13.890251,1.36664 3.47175,1.53636 8.18932,5.7912 12.64182,11.401845 4.09498,5.160126 10.7108,15.533716 10.21984,16.024676 -0.1443,0.14429 -1.69722,0.0479 -3.45094,-0.21419 -13.47741,-2.01425 -19.40873,-0.71921 -25.160641,5.49354 -6.814005,7.35994 -8.680525,15.76687 -5.6022,25.2327 3.11583,9.58116 9.742741,15.79974 19.199251,18.01625 4.83351,1.13293 14.22194,0.72354 18.55403,-0.80907 9.45296,-3.34427 19.58329,-13.87838 27.12752,-28.2088 l 2.54343,-4.8313 3.36126,5.14686 c 8.66451,13.26735 17.60029,21.43187 27.0551,24.71993 2.88603,1.00366 4.55716,1.25093 8.41731,1.24549 15.66278,-0.0221 28.75031,-9.36052 32.32984,-23.06856 1.13791,-4.35771 0.77296,-15.20086 -0.67564,-20.07403 -4.10643,-13.81428 -12.54133,-19.816531 -24.2022,-17.222231 -6.10854,1.359021 -11.8032,4.397611 -18.99889,10.137541 l -3.36325,2.68283 -0.76756,-1.83702 c -1.42177,-3.40277 -2.75624,-11.425171 -2.74726,-16.515631 0.0189,-10.68685 3.47167,-19.452965 10.49132,-26.63566 4.8335,-4.945765 10.5714,-7.5358 16.69463,-7.5358 5.53256,0 13.90186,3.363905 20.20685,8.12181 1.73331,1.308005 3.19581,2.378415 3.25,2.378695 0.0542,2.75e-4 0.0241,-4.04644 -0.0669,-8.992705 -0.37464,-20.371611 3.21571,-31.427097 14.5925,-44.933621 4.36509,-5.182234 15.12623,-15.0516402 16.43089,-15.0693257 0.71032,-0.00963 9.22464,7.4550229 12.89668,11.3067387 9.7417,10.218366 14.28487,18.342919 16.74126,29.938408 1.12547,5.312769 1.79783,16.321765 1.36653,22.375 -0.21063,2.95625 -0.33578,5.375 -0.2781,5.375 0.0577,0 1.86228,-1.270465 4.01024,-2.82325 13.80579,-9.98038 26.21231,-10.12884 35.93996,-0.430065 8.2497,8.22521 11.75065,18.72735 10.58515,31.753315 -0.31205,3.487651 -2.44817,12.745111 -3.08867,13.385601 -0.0934,0.0934 -2.13651,-1.40806 -4.54021,-3.33662 -4.95632,-3.97663 -12.88197,-8.16165 -17.73263,-9.363451 -12.33826,-3.05694 -21.86522,4.580941 -25.08142,20.108081 -1.3288,6.41519 -1.08379,14.83123 0.56967,19.56778 4.36868,12.51464 17.02322,20.73143 31.8922,20.70811 6.92456,-0.0108 12.58913,-2.21438 19.17136,-7.45766 6.03367,-4.80631 12.99993,-13.00645 17.30709,-20.37258 1.03559,-1.77106 1.99538,-3.21079 2.13288,-3.19941 0.1375,0.0114 1.12074,1.8354 2.18497,4.05338 4.76244,9.9254 14.67049,21.87165 21.42643,25.83407 5.83671,3.42329 8.58454,4.23296 15.1386,4.46072 9.80827,0.34084 15.76311,-1.59588 21.54933,-7.00861 5.948,-5.56406 9.49029,-15.28071 8.3801,-22.98694 -1.10057,-7.63941 -6.49237,-15.26092 -13.09603,-18.51171 -3.22227,-1.58623 -3.47686,-1.62868 -9.32306,-1.55454 -3.30569,0.0419 -7.5577,0.33207 -9.44892,0.64476 -1.89122,0.31269 -3.53187,0.47523 -3.64589,0.36121 -0.26532,-0.26532 2.78065,-5.50313 6.00852,-10.33219 6.16484,-9.222921 13.26092,-16.049756 18.50646,-17.804286 3.04696,-1.019145 11.50969,-1.156525 15.31949,-0.248685 6.91109,1.646845 14.14909,6.273685 22.56556,14.424871 l 4.81555,4.66377 0.33579,-2.39283 c 1.43794,-10.246611 10.82695,-25.224676 24.25351,-38.691051 11.94694,-11.98239 22.78259,-18.452993 31.13814,-18.594492 1.8472,-0.03128 3.4736,0.05818 3.6142,0.198803 0.1862,0.186182 -69.91598,184.58313 -70.44773,185.30593 -0.0453,0.0616 -4.45701,-1.02297 -9.80372,-2.4102 -64.38663,-16.7054 -113.74778,-22.94738 -181.4713,-22.94801 -67.8417,-5e-4 -113.29368,5.71839 -180.408346,22.70001 -10.65564,2.69613 -10.658475,2.69655 -11.135065,1.62149 l 0,0 z"
         style="opacity:0;fill:#fcef3c;fill-opacity:1;fill-rule:evenodd;stroke:none" />
      <path
         inkscape:connector-curvature="0"
         id="path3915"
         d="m 150.50434,231.19101 -72.999996,-0.20693 5.25,-1.4338 c 16.701664,-4.56132 48.270996,-11.33655 67.322046,-14.44827 37.07297,-6.05535 67.15957,-8.24677 113.17795,-8.24358 46.3219,0.003 76.39055,2.18645 113.22961,8.2214 19.78898,3.24181 53.44664,10.49079 68.27039,14.70364 l 4.25,1.20784 -52.5,0.0359 c -28.875,0.0197 -79.6125,0.11123 -112.75,0.20332 -33.1375,0.0921 -93.1,0.0743 -133.25,-0.0395 l 0,0 z"
         style="opacity:0;fill:#fcef3c;fill-opacity:1;fill-rule:evenodd;stroke:none" />
    </g>
  </g>
</svg>
