<?xml version="1.0" encoding="UTF-8" standalone="no"?>
<!-- Generated by Microsoft Visio 11.0, SVG Export, v1.0 Gryphon_Segreant.svg Page-1 -->
<!-- http://www.vikinganswerlady.com/Stars/Heraldry_SVG_Images/index.htm -->
<!-- Christie L. Ward, gunnora@vikinganswerlady.com, licensed under a Creative Commons Attribution-ShareAlike 3.0 Unported (CC BY-SA 3.0) license -->
<svg
   xmlns:v="http://schemas.microsoft.com/visio/2003/SVGExtensions/"
   xmlns:dc="http://purl.org/dc/elements/1.1/"
   xmlns:cc="http://creativecommons.org/ns#"
   xmlns:rdf="http://www.w3.org/1999/02/22-rdf-syntax-ns#"
   xmlns:svg="http://www.w3.org/2000/svg"
   xmlns="http://www.w3.org/2000/svg"
   xmlns:sodipodi="http://sodipodi.sourceforge.net/DTD/sodipodi-0.dtd"
   xmlns:inkscape="http://www.inkscape.org/namespaces/inkscape"
   width="8.42255in"
   height="7.71623in"
   viewBox="0 0 606.423 555.569"
   xml:space="preserve"
   color-interpolation-filters="sRGB"
   class="st6"
   id="svg2"
   version="1.1"
   inkscape:version="0.48.2 r9819"
   sodipodi:docname="Gryphon_Segreant.svg"><metadata
   id="metadata650"><rdf:RDF><cc:Work
       rdf:about=""><dc:format>image/svg+xml</dc:format><dc:type
         rdf:resource="http://purl.org/dc/dcmitype/StillImage" /><dc:title>Gryphon Segreant</dc:title><dc:date>06/13/2013</dc:date><dc:creator><cc:Agent><dc:title>Christie L. Ward</dc:title></cc:Agent></dc:creator><dc:rights><cc:Agent><dc:title>Creative Commons Attribution-ShareAlike 3.0 Unported (CC BY-SA 3.0) license (http://creativecommons.org/licenses/by-sa/3.0/). No attribution required for heraldic or artistic use by members of the Society for Creative Anachronism, Inc.</dc:title></cc:Agent></dc:rights><dc:source>Microsoft Visio 2010</dc:source><cc:license rdf:resource="http://creativecommons.org/licenses/by-sa/3.0/" /></cc:Work><cc:License rdf:about="http://creativecommons.org/licenses/by-sa/3.0/"><cc:permits rdf:resource="http://creativecommons.org/ns#Reproduction" /><cc:permits rdf:resource="http://creativecommons.org/ns#Distribution" /><cc:requires rdf:resource="http://creativecommons.org/ns#Notice" /><cc:requires rdf:resource="http://creativecommons.org/ns#Attribution" /><cc:permits rdf:resource="http://creativecommons.org/ns#DerivativeWorks" /><cc:requires rdf:resource="http://creativecommons.org/ns#ShareAlike" /></cc:License></rdf:RDF></metadata><defs
   id="defs648" /><sodipodi:namedview
   pagecolor="#ffffff"
   bordercolor="#666666"
   borderopacity="1"
   objecttolerance="10"
   gridtolerance="10"
   guidetolerance="10"
   inkscape:pageopacity="0"
   inkscape:pageshadow="2"
   inkscape:window-width="640"
   inkscape:window-height="480"
   id="namedview646"
   showgrid="false"
   inkscape:zoom="0.33983205"
   inkscape:cx="379.01477"
   inkscape:cy="347.23035"
   inkscape:window-x="0"
   inkscape:window-y="0"
   inkscape:window-maximized="0"
   inkscape:current-layer="svg2" />
	<title
   id="title4">Gryphon Segreant</title>
	<v:documentProperties
   v:langID="1033"
   v:viewMarkup="false" />

	<style
   type="text/css"
   id="style6">
	
		.st1 {fill:#ffff00;stroke:#000000;stroke-linecap:round;stroke-linejoin:round;stroke-width:3}
		.st2 {fill:#ff0000;stroke:#000000;stroke-linecap:round;stroke-linejoin:round;stroke-width:3}
		.st3 {fill:#ffffff;stroke:#000000;stroke-linecap:round;stroke-linejoin:round;stroke-width:3}
		.st4 {stroke:#000000;stroke-linecap:round;stroke-linejoin:round;stroke-width:3}
		.st5 {fill:#000000;stroke:#000000;stroke-linecap:round;stroke-linejoin:round;stroke-width:3}
		.st6 {fill:none;fill-rule:evenodd;font-size:12px;overflow:visible;stroke-linecap:square;stroke-miterlimit:3}
	
	</style>

	<g
   v:mID="0"
   v:index="1"
   v:groupContext="foregroundPage"
   id="g8">
		<title
   id="title10">Page-1</title>
		<v:pageProperties
   v:drawingScale="1"
   v:pageScale="1"
   v:drawingUnits="19"
   v:shadowOffsetX="9"
   v:shadowOffsetY="-9" />
		<g
   id="group1-1"
   transform="translate(18.2363,-5.59572)"
   v:mID="1"
   v:groupContext="group">
			<title
   id="title13">Griffin Seagrant</title>
			<g
   id="group2-2"
   v:mID="2"
   v:groupContext="group">
				<title
   id="title16">Sheet.2</title>
				<g
   id="group3-3"
   transform="translate(38.6556,-277.722)"
   v:mID="3"
   v:groupContext="group">
					<title
   id="title19">Sheet.3</title>
					<g
   id="group4-4"
   transform="translate(-1.59872E-014,-91.1)"
   v:mID="4"
   v:groupContext="group">
						<title
   id="title22">Sheet.4</title>
						<g
   id="shape5-5"
   v:mID="5"
   v:groupContext="shape"
   transform="translate(612.66,451.305) rotate(86.7)">
							<title
   id="title25">Sheet.5</title>
							<path
   d="M64.09 479.63 A442.008 579.391 0 0 1 2.39 541.24 A6.08837 7.98073 -180 1 0 10.23 553.44 A199.013            260.87 -180 0 0 73.88 496.32 A8.10462 10.6237 -180 0 0 64.09 479.63 Z"
   class="st1"
   id="path27" />
						</g>
						<g
   id="group6-7"
   transform="translate(555.569,409.98) rotate(90)"
   v:mID="6"
   v:groupContext="group">
							<title
   id="title30">Sheet.6</title>
							<g
   id="shape7-8"
   v:mID="7"
   v:groupContext="shape"
   transform="translate(66.4735,-22.4689) rotate(5)">
								<title
   id="title33">Sheet.7</title>
								<path
   d="M59.97 517.39 L81.9 522 A9.15598 10.8565 -180 0 0 99.01 516.64 A9.09282 10.7816 -180 0 0             85.63 507.13 L60.4 501.85 L22.42 485.59 A9.09282 10.7816 -180 0 0 6.06 492.08 A9.09282             10.7816 -180 0 0 20.23 501.02 L30.92 505.64 L14.18 509.5 A9.09282 10.7816 -180 0 0 0             518.43 A9.09282 10.7816 -180 0 0 16.53 524.64 L40.53 519.1 L28.39 534.01 A9.09282 10.7816             -180 0 0 19.2 544.79 A9.09282 10.7816 -180 0 0 37.38 545.13 L59.97 517.39 Z"
   class="st1"
   id="path35" />
							</g>
							<g
   id="group8-10"
   transform="translate(44.6998,-0.0871426) rotate(5)"
   v:mID="8"
   v:groupContext="group">
								<title
   id="title38">Sheet.8</title>
								<g
   id="shape9-11"
   v:mID="9"
   v:groupContext="shape"
   transform="translate(2.23215,-79.6933)">
									<title
   id="title41">Sheet.9</title>
									<path
   d="M30.81 540.64 A23.7899 35.1597 -180 0 0 0 555.57 A33.283 49.1898 0 0 1 26.77 549.6 A3.87667              5.72943 -180 0 0 30.81 540.64 Z"
   class="st2"
   id="path43" />
								</g>
								<g
   id="shape10-13"
   v:mID="10"
   v:groupContext="shape"
   transform="translate(-143.747,-22.9114) rotate(-15)">
									<title
   id="title46">Sheet.10</title>
									<path
   d="M31.2 540.79 A24.0858 34.7908 -180 0 0 0 555.57 A33.6971 48.6737 0 0 1 27.11 549.66              A3.9249 5.66931 -180 0 0 31.2 540.79 Z"
   class="st2"
   id="path48" />
								</g>
								<g
   id="shape11-15"
   v:mID="11"
   v:groupContext="shape"
   transform="translate(-363.573,159.986) rotate(-45)">
									<title
   id="title51">Sheet.11</title>
									<path
   d="M33.68 541.81 A25.9991 32.406 -180 0 0 0 555.57 A36.3738 45.3374 0 0 1 29.26 550.06              A4.23667 5.28071 -180 0 0 33.68 541.81 Z"
   class="st2"
   id="path53" />
								</g>
								<g
   id="shape12-17"
   v:mID="12"
   v:groupContext="shape"
   transform="translate(519.717,129.708) rotate(45) scale(-1,1)">
									<title
   id="title56">Sheet.12</title>
									<path
   d="M33.68 541.81 A25.9991 32.406 -180 0 0 0 555.57 A36.3738 45.3374 0 0 1 29.26 550.06              A4.23667 5.28071 -180 0 0 33.68 541.81 Z"
   class="st2"
   id="path58" />
								</g>
							</g>
						</g>
					</g>
					<g
   id="group13-19"
   transform="translate(516.085,138.661) rotate(56.7)"
   v:mID="13"
   v:groupContext="group">
						<title
   id="title61">Sheet.13</title>
						<g
   id="shape14-20"
   v:mID="14"
   v:groupContext="shape"
   transform="translate(72.5995,-1.40625)">
							<title
   id="title64">Sheet.14</title>
							<path
   d="M27.37 477.1 A29.509 28.5656 -65.36 0 0 48.18 455.16 A50.0693 48.4685 -84.82 0 0 2.57 521.57            A169.238 174.827 -180 0 0 24.72 555.57 A17.4313 16.874 -85.41 0 0 26.81 532.23 A73.5487            71.1972 -54.2 0 0 49.87 553.6 A54.2581 52.5234 -27.29 0 0 36.37 524.35 A59.3401 57.4429            -61.99 0 0 71.24 541.79 A49.2114 47.6381 -45.67 0 0 39.74 517.04 A50.1695 48.5655 -69.54            0 0 76.31 516.48 A65.7484 63.6463 -104.35 0 0 38.06 506.35 A84.6405 81.9344 -87.35 0 0 74.62            493.98 A87.8952 85.085 -103.55 0 0 35.81 490.6 A68.1545 65.9755 -96.42 0 0 65.62 472.04            A94.6213 91.5961 -118.31 0 0 27.37 477.1 Z"
   class="st3"
   id="path66" />
						</g>
						<g
   id="shape15-22"
   v:mID="15"
   v:groupContext="shape"
   transform="translate(52.9737,-1.6875)">
							<title
   id="title69">Sheet.15</title>
							<path
   d="M31.58 482.44 A48.2597 48.2597 -163.2 0 0 35.75 470.63 A39.6875 39.6875 -84.15 0 0 3.46 526.32            A150.421 150.421 -180 0 0 23.14 555.57 A15.2047 15.2047 -81.91 0 0 23.37 531.38 A36.8439            36.8439 -90.59 0 0 50.37 525.76 A38.3438 38.3438 -83.84 0 0 29.56 514.51 A28.3516 28.3516            -83.72 0 0 50.37 506.63 A47.937 47.937 -88.3 0 0 29.56 499.88 A28.5452 28.5452 -89.24 0            0 51.5 489.76 A32.1346 32.1346 -108.18 0 0 31.58 482.44 Z"
   class="st3"
   id="path71" />
						</g>
						<g
   id="group16-24"
   v:mID="16"
   v:groupContext="group">
							<title
   id="title74">Sheet.16</title>
							<g
   id="shape17-25"
   v:mID="17"
   v:groupContext="shape"
   transform="translate(4.34446,-57.2304)">
								<title
   id="title77">Sheet.17</title>
								<path
   d="M40.5 549.8 A28.0738 28.0738 -180 0 0 16.88 540.8 A19.3569 19.3569 0 0 1 0 531.8 A24.6635             24.6635 -180 0 0 40.5 549.8 Z"
   class="st3"
   id="path79" />
							</g>
							<g
   id="shape18-27"
   v:mID="18"
   v:groupContext="shape"
   transform="translate(-91.6791,-32.6202) rotate(-10)">
								<title
   id="title82">Sheet.18</title>
								<path
   d="M40.5 549.8 A28.0738 28.0738 -180 0 0 16.88 540.8 A19.3569 19.3569 0 0 1 0 531.8 A24.6635             24.6635 -180 0 0 40.5 549.8 Z"
   class="st3"
   id="path84" />
							</g>
							<g
   id="shape19-29"
   v:mID="19"
   v:groupContext="shape"
   transform="translate(-369.419,139.759) rotate(-44)">
								<title
   id="title87">Sheet.19</title>
								<path
   d="M40.5 549.8 A28.0738 28.0738 -180 0 0 16.88 540.8 A19.3569 19.3569 0 0 1 0 531.8 A24.6635             24.6635 -180 0 0 40.5 549.8 Z"
   class="st3"
   id="path89" />
							</g>
							<g
   id="shape20-31"
   v:mID="20"
   v:groupContext="shape"
   transform="translate(-451.524,276.06) rotate(-60)">
								<title
   id="title92">Sheet.20</title>
								<path
   d="M40.5 549.8 A28.0738 28.0738 -180 0 0 16.88 540.8 A19.3569 19.3569 0 0 1 0 531.8 A24.6635             24.6635 -180 0 0 40.5 549.8 Z"
   class="st3"
   id="path94" />
							</g>
							<g
   id="shape21-33"
   v:mID="21"
   v:groupContext="shape"
   transform="translate(-505.79,518.135) rotate(-86)">
								<title
   id="title97">Sheet.21</title>
								<path
   d="M32.54 550.93 A22.5541 22.5541 -180 0 0 13.56 543.7 A15.5511 15.5511 0 0 1 0 536.47 A19.8143             19.8143 -180 0 0 32.54 550.93 Z"
   class="st3"
   id="path99" />
							</g>
						</g>
						<g
   id="shape22-35"
   v:mID="22"
   v:groupContext="shape"
   transform="translate(35.0007,-1.40625)">
							<title
   id="title102">Sheet.22</title>
							<path
   d="M31.83 482.44 A29.6093 29.6093 -180 0 0 3.71 526.32 A150.421 150.421 -180 0 0 23.4 555.57 A19.039            19.039 -84.1 0 0 19.97 525.48 A27.1342 27.1342 -92.56 0 0 39.71 520.69 A29.4565 29.4565            -180 0 0 22.83 513.94 A25.6405 25.6405 -180 0 0 40.83 504.94 A45.0332 45.0332 -180 0 0 21.15            499.04 A26.7996 26.7996 -180 0 0 42.52 491.44 A14.1747 14.1747 -180 0 0 31.83 482.44 Z"
   class="st3"
   id="path104" />
						</g>
					</g>
				</g>
				<g
   id="group23-37"
   transform="translate(468.237,75.3169) rotate(49)"
   v:mID="23"
   v:groupContext="group">
					<title
   id="title107">Sheet.23</title>
					<g
   id="shape24-38"
   v:mID="24"
   v:groupContext="shape"
   transform="translate(6.77495,-9.56464)">
						<title
   id="title110">Sheet.24</title>
						<path
   d="M78.61 332.41 A69.0538 69.0538 -180 0 0 10.76 385.62 A209.882 209.882 -180 0 0 2.39 417.9 A24.6475           24.6475 -180 0 0 9.56 446.59 A12.8232 12.8232 0 0 1 -0 466.32 A16.1525 16.1525 -180 0 0 23.91           451.38 A74.1115 74.1115 0 0 1 19.13 437.03 A27.7353 27.7353 -180 0 0 39.45 453.17 A18.5141 18.5141           0 0 1 51.41 474.09 A67.1683 67.1683 -180 0 0 53.8 498 A8.74194 8.74194 0 0 1 38.26 505.18 A21.7735           21.7735 -180 0 0 23.31 494.42 A12.0136 12.0136 -180 0 0 14.35 515.34 A23.8087 23.8087 0 0 1           28.69 515.34 A25.5359 25.5359 -180 0 0 51.41 517.13 A25.5359 25.5359 0 0 1 28.69 515.34 A25.1179           25.1179 -180 0 0 14.35 515.34 A12.6891 12.6891 -180 0 0 17.63 536.41 A4.37913 4.37913 -180 0           0 22.72 536.86 A18.3567 18.3567 0 0 1 37.06 530.88 A17.7979 17.7979 -180 0 0 56.04 525.5 A17.7979           17.7979 0 0 1 37.06 530.88 A18.3567 18.3567 -180 0 0 22.72 536.86 A14.8292 14.8292 -180 0 0           47.82 550.91 A52.8601 52.8601 0 0 1 63.81 538.65 A23.3932 23.3932 -180 0 0 70.84 516.38 A298.096           298.096 -180 0 0 72.63 527.59 A12.2525 12.2525 -180 1 0 84.89 508.91 A13.2538 13.2538 0 0 1           82.64 492.62 A71.2953 71.2953 -180 0 0 83.99 455.26 A17.0179 17.0179 -180 0 0 117.76 452.27           A15.9186 15.9186 0 0 1 90.86 438.82 A14.0442 14.0442 -180 0 0 116.87 434.04 A13.8625 13.8625           0 0 1 100.73 422.08 A15.284 15.284 -180 0 0 74.13 414.91 A12.792 12.792 0 0 1 61.87 415.51 A6.65086           6.65086 0 0 1 60.38 404.45 A79.2613 79.2613 -180 0 0 78.61 332.41 Z"
   class="st3"
   id="path112" />
					</g>
					<g
   id="group25-40"
   v:mID="25"
   v:groupContext="group">
						<title
   id="title115">Sheet.25</title>
						<g
   id="shape26-41"
   v:mID="26"
   v:groupContext="shape"
   transform="translate(273.01,26.7461) rotate(30)">
							<title
   id="title118">Claw</title>
							<path
   d="M12.97 525.43 A16.5513 16.5513 -180 0 0 7.7 555.57 A12.9527 12.9527 0 0 1 16.36 535.22 A5.19112            5.19112 -180 0 0 12.97 525.43 Z"
   class="st2"
   id="path120" />
						</g>
						<g
   id="shape27-43"
   v:mID="27"
   v:groupContext="shape"
   transform="translate(393.245,132.271) rotate(45)">
							<title
   id="title123">Claw.4</title>
							<path
   d="M12.97 525.43 A16.5513 16.5513 -180 0 0 7.7 555.57 A12.9527 12.9527 0 0 1 16.36 535.22 A5.19112            5.19112 -180 0 0 12.97 525.43 Z"
   class="st2"
   id="path125" />
						</g>
						<g
   id="shape28-45"
   v:mID="28"
   v:groupContext="shape"
   transform="translate(290.944,70.584) rotate(30)">
							<title
   id="title128">Claw.5</title>
							<path
   d="M12.97 525.43 A16.5513 16.5513 -180 0 0 7.7 555.57 A12.9527 12.9527 0 0 1 16.36 535.22 A5.19112            5.19112 -180 0 0 12.97 525.43 Z"
   class="st2"
   id="path130" />
						</g>
						<g
   id="shape29-47"
   v:mID="29"
   v:groupContext="shape"
   transform="translate(202.341,-4.17167) rotate(10) scale(-1,1)">
							<title
   id="title133">Claw.6</title>
							<path
   d="M12.97 525.43 A16.5513 16.5513 -180 0 0 7.7 555.57 A12.9527 12.9527 0 0 1 16.36 535.22 A5.19112            5.19112 -180 0 0 12.97 525.43 Z"
   class="st2"
   id="path135" />
						</g>
					</g>
				</g>
				<g
   id="shape30-49"
   v:mID="30"
   v:groupContext="shape"
   transform="translate(233.241,-158.625)">
					<title
   id="title138">Sheet.30</title>
					<path
   d="M28.12 555.57 A51.9735 51.9735 -179.53 0 0 -0 502.69 A29.9501 29.9501 0 1 1 28.12 555.57 Z"
   class="st2"
   id="path140" />
				</g>
				<g
   id="shape31-51"
   v:mID="31"
   v:groupContext="shape"
   transform="translate(138.367,-8.83224)">
					<title
   id="title143">Sheet.31</title>
					<path
   d="M118.58 215.2 A65.8227 65.8227 -180 0 0 1.5 268.53 A83.7658 83.7658 -180 0 0 64.5 340.53 L105 349.53          A37.5488 37.5488 0 0 1 126.37 395.65 A197.492 197.492 -180 0 0 118.5 426.03 A23.1925 23.1925 -180          0 0 125.25 453.03 A12.0662 12.0662 0 0 1 116.25 471.59 A15.199 15.199 -180 0 0 138.75 457.53 A69.7364          69.7364 0 0 1 134.25 444.03 A26.098 26.098 -180 0 0 153.37 459.21 A17.4212 17.4212 0 0 1 164.62          478.9 A63.2031 63.2031 -180 0 0 166.87 501.4 A8.22587 8.22587 0 0 1 152.25 508.15 A20.4882 20.4882          -180 0 0 138.19 498.03 A11.3044 11.3044 -180 0 0 129.75 517.71 A22.4031 22.4031 0 0 1 143.25 517.71          A24.0284 24.0284 -180 0 0 164.62 519.4 A24.0284 24.0284 0 0 1 143.25 517.71 A23.635 23.635 -180          0 0 129.75 517.71 A11.94 11.94 -180 0 0 132.84 537.54 A4.12062 4.12062 -180 0 0 137.62 537.96 A17.273          17.273 0 0 1 151.12 532.34 A16.7472 16.7472 -180 0 0 168.98 527.28 A16.7472 16.7472 0 0 1 151.12          532.34 A17.273 17.273 -180 0 0 137.62 537.96 A13.9537 13.9537 -180 0 0 161.25 551.18 A49.7395 49.7395          0 0 1 176.3 539.65 A22.0122 22.0122 -180 0 0 182.91 518.7 A280.498 280.498 -180 0 0 184.59 529.24          A11.5292 11.5292 -180 1 0 196.12 511.67 A12.4714 12.4714 0 0 1 194.01 496.34 A67.0865 67.0865 -180          0 0 195.28 461.18 A16.0133 16.0133 -180 0 0 227.06 458.37 A14.9788 14.9788 0 0 1 201.75 445.71 A13.2151          13.2151 -180 0 0 226.22 441.21 A13.0441 13.0441 0 0 1 211.03 429.96 A14.3817 14.3817 -180 0 0 186          423.21 A12.0369 12.0369 0 0 1 174.47 423.78 A6.25824 6.25824 0 0 1 173.06 413.37 A74.5822 74.5822          -180 0 0 190.22 345.59 A104.413 104.413 0 0 1 220.59 406.34 A57.3998 57.3998 -165.49 0 0 289.5 445.71          A25.0033 25.0033 -180 0 0 299.06 406.34 L285 391.99 A8.77903 8.77903 0 0 1 295.12 377.65 A10.5394          10.5394 -180 0 0 286.12 364.71 A12.6162 12.6162 -180 0 0 272.06 375.96 A13.7346 13.7346 0 0 1 295.41          361.9 A15.8338 15.8338 -180 0 0 265.87 360.78 A18.2802 18.2802 0 0 1 298.5 352.62 A21.5245 21.5245          -180 0 0 261.94 348.4 A142.849 142.849 -180 0 0 292.31 300.31 A4.56632 4.56632 0 0 1 301.31 300.03          A29.4435 29.4435 0 0 1 295.69 312.96 A17.895 17.895 -180 0 0 304.12 343.62 A21.387 21.387 -180 0          0 325.22 333.21 A8.60351 8.60351 -180 0 0 310.59 324.21 A4.73628 4.73628 0 1 1 314.25 332.93 A10.4148          10.4148 0 0 1 304.41 314.93 A25.6794 25.6794 -180 0 0 310.87 291.59 A13.7794 13.7794 -180 0 0 285          289.06 A246.627 246.627 0 0 1 257.72 333.78 A24.0916 24.0916 -180 0 0 218.62 322.53 A27.7744 27.7744          0 0 1 247.31 351.78 A45.0878 45.0878 -180 0 0 274.87 400.43 A25.6087 25.6087 0 0 1 292.03 423.78          A11.6113 11.6113 -180 0 0 269.25 427.71 A12.3259 12.3259 0 0 1 280.5 425.46 A4.62749 4.62749 0 0          1 281.62 434.46 A41.8587 41.8587 0 0 1 234.37 407.46 A120.289 120.289 -180 0 0 199.5 334.34 A69.8101          69.8101 -180 0 0 175.87 322.53 A153.721 153.721 0 0 1 118.58 215.2 Z"
   class="st3"
   id="path145" />
				</g>
				<g
   id="group32-53"
   transform="translate(246.366,0)"
   v:mID="32"
   v:groupContext="group">
					<title
   id="title148">Sheet.32</title>
					<g
   id="shape33-54"
   v:mID="33"
   v:groupContext="shape"
   transform="translate(273.292,29.5612) rotate(30)">
						<title
   id="title151">Claw</title>
						<path
   d="M12.21 527.21 A15.5742 15.5742 -180 0 0 7.24 555.57 A12.1881 12.1881 0 0 1 15.4 536.42 A4.88466           4.88466 -180 0 0 12.21 527.21 Z"
   class="st2"
   id="path153" />
					</g>
					<g
   id="shape34-56"
   v:mID="34"
   v:groupContext="shape"
   transform="translate(393.221,134.069) rotate(45)">
						<title
   id="title156">Claw.4</title>
						<path
   d="M12.21 527.21 A15.5742 15.5742 -180 0 0 7.24 555.57 A12.1881 12.1881 0 0 1 15.4 536.42 A4.88466           4.88466 -180 0 0 12.21 527.21 Z"
   class="st2"
   id="path158" />
					</g>
					<g
   id="shape35-58"
   v:mID="35"
   v:groupContext="shape"
   transform="translate(290.167,70.8112) rotate(30)">
						<title
   id="title161">Claw.5</title>
						<path
   d="M12.21 527.21 A15.5742 15.5742 -180 0 0 7.24 555.57 A12.1881 12.1881 0 0 1 15.4 536.42 A4.88466           4.88466 -180 0 0 12.21 527.21 Z"
   class="st2"
   id="path163" />
					</g>
					<g
   id="shape36-60"
   v:mID="36"
   v:groupContext="shape"
   transform="translate(196.091,-3.42713) rotate(10) scale(-1,1)">
						<title
   id="title166">Claw.6</title>
						<path
   d="M12.21 527.21 A15.5742 15.5742 -180 0 0 7.24 555.57 A12.1881 12.1881 0 0 1 15.4 536.42 A4.88466           4.88466 -180 0 0 12.21 527.21 Z"
   class="st2"
   id="path168" />
					</g>
				</g>
				<g
   id="group37-62"
   transform="translate(77.667,-177.886) rotate(-18)"
   v:mID="37"
   v:groupContext="group">
					<title
   id="title171">Sheet.37</title>
					<g
   id="group38-63"
   transform="translate(80.0985,1.13687E-013)"
   v:mID="38"
   v:groupContext="group">
						<title
   id="title174">Sheet.38</title>
						<g
   id="group39-64"
   transform="translate(10.3568,-26.052)"
   v:mID="39"
   v:groupContext="group">
							<title
   id="title177">Sheet.39</title>
							<g
   id="group40-65"
   transform="translate(539.896,615.318) rotate(-81.7) scale(1,-1)"
   v:mID="40"
   v:groupContext="group">
								<title
   id="title180">Sheet.40</title>
								<g
   id="shape41-66"
   v:mID="41"
   v:groupContext="shape">
									<title
   id="title183">Sheet.41</title>
									<path
   d="M74.12 551.37 L23.62 454.01 A180.181 198.503 0 0 1 8.89 406.88 A3.92115 4.31986 -180              1 0 1.18 405.34 A134.894 148.61 -180 0 0 62.9 550.6 A5.87922 6.47703 -180 0 0 74.12              551.37 Z"
   class="st3"
   id="path185" />
								</g>
								<g
   id="shape42-68"
   v:mID="42"
   v:groupContext="shape"
   transform="translate(10.2948,-3.42611)">
									<title
   id="title188">Sheet.42</title>
									<path
   d="M-0 447.39 A87.5308 96.4311 -180 0 0 9.12 475.21 L58.21 555.57"
   class="st4"
   id="path190" />
								</g>
							</g>
							<g
   id="group43-71"
   transform="translate(587.562,466.91) rotate(81) scale(-1,1)"
   v:mID="43"
   v:groupContext="group">
								<title
   id="title193">Sheet.43</title>
								<g
   id="shape44-72"
   v:mID="44"
   v:groupContext="shape">
									<title
   id="title196">Sheet.44</title>
									<path
   d="M80.24 550.87 L25.57 441.81 A195.06 222.355 0 0 1 9.63 389.01 A4.24494 4.83896 -180              1 0 1.27 387.28 A146.032 166.468 -180 0 0 68.09 550 A6.36469 7.25534 -180 0 0 80.24              550.87 Z"
   class="st3"
   id="path198" />
								</g>
								<g
   id="shape45-74"
   v:mID="45"
   v:groupContext="shape"
   transform="translate(11.1448,-3.83781)">
									<title
   id="title201">Sheet.45</title>
									<path
   d="M0 434.4 A94.7585 108.019 -180 0 0 9.87 465.55 L63.02 555.57"
   class="st4"
   id="path203" />
								</g>
							</g>
							<g
   id="group46-77"
   transform="translate(583.149,315.875) rotate(64.3) scale(-1,1)"
   v:mID="46"
   v:groupContext="group">
								<title
   id="title206">Sheet.46</title>
								<g
   id="shape47-78"
   v:mID="47"
   v:groupContext="shape">
									<title
   id="title209">Sheet.47</title>
									<path
   d="M107.71 550.63 L34.32 436 A261.837 233.716 0 0 1 12.92 380.5 A5.69816 5.08619 -180 1              0 1.71 378.68 A196.025 174.973 -180 0 0 91.4 549.72 A8.54359 7.62603 -180 0 0 107.71              550.63 Z"
   class="st3"
   id="path211" />
								</g>
								<g
   id="shape48-80"
   v:mID="48"
   v:groupContext="shape"
   transform="translate(14.9602,-4.03389)">
									<title
   id="title214">Sheet.48</title>
									<path
   d="M0 428.21 A127.198 113.538 -180 0 0 13.25 460.96 L84.59 555.57"
   class="st4"
   id="path216" />
								</g>
							</g>
							<g
   id="group49-83"
   transform="translate(579.401,246.125) rotate(59.7) scale(-1,1)"
   v:mID="49"
   v:groupContext="group">
								<title
   id="title219">Sheet.49</title>
								<g
   id="shape50-84"
   v:mID="50"
   v:groupContext="shape">
									<title
   id="title222">Sheet.50</title>
									<path
   d="M92.5 550.4 L29.48 430.44 A224.857 244.583 0 0 1 11.1 372.36 A4.89339 5.32268 -180 1              0 1.47 370.46 A168.34 183.108 -180 0 0 78.49 549.44 A7.33695 7.98061 -180 0 0 92.5              550.4 Z"
   class="st3"
   id="path224" />
								</g>
								<g
   id="shape51-86"
   v:mID="51"
   v:groupContext="shape"
   transform="translate(12.8473,-4.22146)">
									<title
   id="title227">Sheet.51</title>
									<path
   d="M0 422.28 A109.234 118.817 -180 0 0 11.38 456.56 L72.65 555.57"
   class="st4"
   id="path229" />
								</g>
							</g>
							<g
   id="group52-89"
   transform="translate(569.43,181.338) rotate(55.3) scale(-1,1)"
   v:mID="52"
   v:groupContext="group">
								<title
   id="title232">Sheet.52</title>
								<g
   id="shape53-90"
   v:mID="53"
   v:groupContext="shape">
									<title
   id="title235">Sheet.53</title>
									<path
   d="M85.42 550.41 L27.22 430.7 A207.644 244.062 0 0 1 10.25 372.75 A4.51881 5.31135 -180              1 0 1.36 370.85 A155.454 182.719 -180 0 0 72.48 549.46 A6.77532 7.96362 -180 0 0              85.42 550.41 Z"
   class="st3"
   id="path237" />
								</g>
								<g
   id="shape54-92"
   v:mID="54"
   v:groupContext="shape"
   transform="translate(11.8639,-4.21247)">
									<title
   id="title240">Sheet.54</title>
									<path
   d="M0 422.57 A100.872 118.564 -180 0 0 10.51 456.77 L67.09 555.57"
   class="st4"
   id="path242" />
								</g>
							</g>
							<g
   id="group55-95"
   transform="translate(494.695,69.5649) rotate(43.4) scale(-1,1)"
   v:mID="55"
   v:groupContext="group">
								<title
   id="title245">Sheet.55</title>
								<g
   id="shape56-96"
   v:mID="56"
   v:groupContext="shape">
									<title
   id="title248">Sheet.56</title>
									<path
   d="M97.56 551.47 L31.09 456.42 A237.176 193.8 0 0 1 11.7 410.4 A5.16148 4.21751 -180 1              0 1.55 408.89 A177.563 145.089 -180 0 0 82.79 550.72 A7.73891 6.32357 -180 0 0 97.56              551.47 Z"
   class="st3"
   id="path250" />
								</g>
								<g
   id="shape57-98"
   v:mID="57"
   v:groupContext="shape"
   transform="translate(13.5512,-3.34494)">
									<title
   id="title253">Sheet.57</title>
									<path
   d="M0 449.96 A115.218 94.1464 -180 0 0 12 477.11 L76.63 555.57"
   class="st4"
   id="path255" />
								</g>
							</g>
						</g>
						<g
   id="group58-101"
   transform="translate(0,-8.7778)"
   v:mID="58"
   v:groupContext="group">
							<title
   id="title258">Sheet.58</title>
							<g
   id="group59-102"
   transform="translate(533.417,742.806) rotate(-65.7) scale(1,-1)"
   v:mID="59"
   v:groupContext="group">
								<title
   id="title261">Sheet.59</title>
								<g
   id="shape60-103"
   v:mID="60"
   v:groupContext="shape">
									<title
   id="title264">Sheet.60</title>
									<path
   d="M0 491.17 A34.7878 44.913 -180 0 0 7.27 517.06 A117.809 152.098 -180 0 0 38.85 555.57              L47.12 547.15 L17.8 503.79 A28.029 36.187 -180 0 0 -0 491.17 Z"
   class="st3"
   id="path266" />
								</g>
								<g
   id="shape61-105"
   v:mID="61"
   v:groupContext="shape"
   transform="translate(458.575,179.556) rotate(53.8833)">
									<title
   id="title269">Sheet.61</title>
									<path
   d="M0 555.57 L55.28 555.57"
   class="st4"
   id="path271" />
								</g>
							</g>
							<g
   id="group62-108"
   transform="translate(489.612,790.277) rotate(-61) scale(1,-1)"
   v:mID="62"
   v:groupContext="group">
								<title
   id="title274">Sheet.62</title>
								<g
   id="shape63-109"
   v:mID="63"
   v:groupContext="shape">
									<title
   id="title277">Sheet.63</title>
									<path
   d="M0 490.32 A49.1146 45.5043 -180 0 0 10.26 516.55 A166.326 154.1 -180 0 0 54.85 555.57              L66.53 547.04 L25.13 503.11 A39.5723 36.6635 -180 0 0 0 490.32 Z"
   class="st3"
   id="path279" />
								</g>
								<g
   id="shape64-111"
   v:mID="64"
   v:groupContext="shape"
   transform="translate(403.369,110.288) rotate(44.5236)">
									<title
   id="title282">Sheet.64</title>
									<path
   d="M0 555.57 L64.53 555.57"
   class="st4"
   id="path284" />
								</g>
							</g>
							<g
   id="group65-114"
   transform="translate(415.483,873.837) rotate(-49.7) scale(1,-1)"
   v:mID="65"
   v:groupContext="group">
								<title
   id="title287">Sheet.65</title>
								<g
   id="shape66-115"
   v:mID="66"
   v:groupContext="shape">
									<title
   id="title290">Sheet.66</title>
									<path
   d="M0 492.07 A35.23 44.2821 -180 0 0 7.36 517.6 A119.306 149.961 -180 0 0 39.35 555.57              L47.72 547.27 L18.02 504.52 A28.3853 35.6787 -180 0 0 -0 492.07 Z"
   class="st3"
   id="path292" />
								</g>
								<g
   id="shape67-117"
   v:mID="67"
   v:groupContext="shape"
   transform="translate(454.47,174.52) rotate(53.1499)">
									<title
   id="title295">Sheet.67</title>
									<path
   d="M0 555.57 L55.03 555.57"
   class="st4"
   id="path297" />
								</g>
							</g>
							<g
   id="group68-120"
   transform="translate(403.991,865.735) rotate(-50) scale(1,-1)"
   v:mID="68"
   v:groupContext="group">
								<title
   id="title300">Sheet.68</title>
								<g
   id="shape69-121"
   v:mID="69"
   v:groupContext="shape">
									<title
   id="title303">Sheet.69</title>
									<path
   d="M0 504.78 A30.61 35.4182 -180 0 0 6.4 525.2 A103.661 119.944 -180 0 0 34.19 555.57 L41.47              548.93 L15.66 514.74 A24.6629 28.537 -180 0 0 0 504.78 Z"
   class="st3"
   id="path305" />
								</g>
								<g
   id="shape70-123"
   v:mID="70"
   v:groupContext="shape"
   transform="translate(439.44,166.524) rotate(50.8495)">
									<title
   id="title308">Sheet.70</title>
									<path
   d="M0 555.57 L45.41 555.57"
   class="st4"
   id="path310" />
								</g>
							</g>
						</g>
					</g>
					<g
   id="group71-126"
   transform="translate(58.1657,-58.5768)"
   v:mID="71"
   v:groupContext="group">
						<title
   id="title313">Sheet.71</title>
						<g
   id="group72-127"
   transform="translate(447.355,24.5134) rotate(39.3) scale(-1,1)"
   v:mID="72"
   v:groupContext="group">
							<title
   id="title316">Sheet.72</title>
							<g
   id="shape73-128"
   v:mID="73"
   v:groupContext="shape">
								<title
   id="title319">Sheet.73</title>
								<path
   d="M28.66 552.74 A113.306 91.7019 0 0 0 19.03 522.97 A32.1988 26.0595 0 0 1 16.56 500.38 A19.4154             15.7135 -180 0 0 1.49 521.97 A270.285 218.75 -180 0 0 12.85 550.35 A9.04563 7.32091             -180 0 0 28.66 552.74 Z"
   class="st3"
   id="path321" />
							</g>
							<g
   id="shape74-130"
   v:mID="74"
   v:groupContext="shape"
   transform="translate(529.323,324.876) rotate(69.2216)">
								<title
   id="title324">Sheet.74</title>
								<path
   d="M0 555.57 L27.15 555.57"
   class="st4"
   id="path326" />
							</g>
						</g>
						<g
   id="group75-133"
   transform="translate(460.457,48.0734) rotate(39.3) scale(-1,1)"
   v:mID="75"
   v:groupContext="group">
							<title
   id="title329">Sheet.75</title>
							<g
   id="shape76-134"
   v:mID="76"
   v:groupContext="shape">
								<title
   id="title332">Sheet.76</title>
								<path
   d="M37.8 540.38 A88.7987 61.2402 -180 0 0 21.28 516.4 A55.0034 37.9332 0 0 1 11.13 491.41 A11.6729             8.05022 -180 0 0 0.12 500.01 A100.103 69.0365 -180 0 0 9.11 532.19 A158.876 109.57 -180             0 0 28.81 555.57 A15.7579 10.8675 -180 0 0 37.8 540.38 Z"
   class="st3"
   id="path334" />
							</g>
							<g
   id="shape77-136"
   v:mID="77"
   v:groupContext="shape"
   transform="translate(-438.058,844.971) rotate(-122.658)">
								<title
   id="title337">Sheet.77</title>
								<path
   d="M0 555.57 L32.76 555.57"
   class="st4"
   id="path339" />
							</g>
						</g>
						<g
   id="group78-139"
   transform="translate(397.517,10.6626) rotate(30.6) scale(-1,1)"
   v:mID="78"
   v:groupContext="group">
							<title
   id="title342">Sheet.78</title>
							<g
   id="shape79-140"
   v:mID="79"
   v:groupContext="shape">
								<title
   id="title345">Sheet.79</title>
								<path
   d="M0 515.86 A34.3413 27.6935 -180 0 0 7.18 531.82 A116.297 93.7841 -180 0 0 38.35 555.57 L46.52             550.38 L17.57 523.64 A27.6693 22.3131 -180 0 0 -0 515.86 Z"
   class="st3"
   id="path347" />
							</g>
							<g
   id="shape80-142"
   v:mID="80"
   v:groupContext="shape"
   transform="translate(370.943,103.589) rotate(40.5651)">
								<title
   id="title350">Sheet.80</title>
								<path
   d="M0 555.57 L42.34 555.57"
   class="st4"
   id="path352" />
							</g>
						</g>
						<g
   id="group81-145"
   transform="translate(440.178,52.2787) rotate(35.9) scale(-1,1)"
   v:mID="81"
   v:groupContext="group">
							<title
   id="title355">Sheet.81</title>
							<g
   id="shape82-146"
   v:mID="82"
   v:groupContext="shape">
								<title
   id="title358">Sheet.82</title>
								<path
   d="M0 515.87 A34.3364 27.6846 -180 0 0 7.17 531.83 A116.28 93.754 -180 0 0 38.35 555.57 L46.51             550.38 L17.57 523.65 A27.6653 22.3059 -180 0 0 -0 515.87 Z"
   class="st3"
   id="path360" />
							</g>
							<g
   id="shape83-148"
   v:mID="83"
   v:groupContext="shape"
   transform="translate(370.905,103.567) rotate(40.56)">
								<title
   id="title363">Sheet.83</title>
								<path
   d="M0 555.57 L42.34 555.57"
   class="st4"
   id="path365" />
							</g>
						</g>
						<g
   id="group84-151"
   transform="translate(500.078,132.103) rotate(45.6) scale(-1,1)"
   v:mID="84"
   v:groupContext="group">
							<title
   id="title368">Sheet.84</title>
							<g
   id="shape85-152"
   v:mID="85"
   v:groupContext="shape">
								<title
   id="title371">Sheet.85</title>
								<path
   d="M0 512.31 A36.7271 30.1686 -180 0 0 7.67 529.7 A124.376 102.166 -180 0 0 41.02 555.57 L49.75             549.92 L18.79 520.79 A29.5915 24.3072 -180 0 0 0 512.31 Z"
   class="st3"
   id="path373" />
							</g>
							<g
   id="shape86-154"
   v:mID="86"
   v:groupContext="shape"
   transform="translate(375.448,104.227) rotate(41.0876)">
								<title
   id="title376">Sheet.86</title>
								<path
   d="M0 555.57 L45.64 555.57"
   class="st4"
   id="path378" />
							</g>
						</g>
						<g
   id="group87-157"
   transform="translate(564.137,244.816) rotate(59.4) scale(-1,1)"
   v:mID="87"
   v:groupContext="group">
							<title
   id="title381">Sheet.87</title>
							<g
   id="shape88-158"
   v:mID="88"
   v:groupContext="shape">
								<title
   id="title384">Sheet.88</title>
								<path
   d="M0 514.12 A33.0045 28.9034 -180 0 0 6.9 530.79 A111.77 97.8814 -180 0 0 36.86 555.57 L44.71             550.15 L16.88 522.25 A26.5922 23.2879 -180 0 0 -0 514.12 Z"
   class="st3"
   id="path386" />
							</g>
							<g
   id="shape89-160"
   v:mID="89"
   v:groupContext="shape"
   transform="translate(387.544,117.428) rotate(42.9116)">
								<title
   id="title389">Sheet.89</title>
								<path
   d="M0 555.57 L42.21 555.57"
   class="st4"
   id="path391" />
							</g>
						</g>
						<g
   id="group90-163"
   transform="translate(604.504,395.302) rotate(75.3) scale(-1,1)"
   v:mID="90"
   v:groupContext="group">
							<title
   id="title394">Sheet.90</title>
							<g
   id="shape91-164"
   v:mID="91"
   v:groupContext="shape">
								<title
   id="title397">Sheet.91</title>
								<path
   d="M0 511.71 A31.2978 30.5897 -180 0 0 6.54 529.34 A105.99 103.592 -180 0 0 34.95 555.57 L42.4             549.84 L16.01 520.3 A25.217 24.6465 -180 0 0 0 511.71 Z"
   class="st3"
   id="path399" />
							</g>
							<g
   id="shape92-166"
   v:mID="92"
   v:groupContext="shape"
   transform="translate(408.808,136.96) rotate(46.055)">
								<title
   id="title402">Sheet.92</title>
								<path
   d="M0 555.57 L42.25 555.57"
   class="st4"
   id="path404" />
							</g>
						</g>
						<g
   id="group93-169"
   transform="translate(606.35,544.2) rotate(-89.9) scale(1,-1)"
   v:mID="93"
   v:groupContext="group">
							<title
   id="title407">Sheet.93</title>
							<g
   id="shape94-170"
   v:mID="94"
   v:groupContext="shape">
								<title
   id="title410">Sheet.94</title>
								<path
   d="M-0 509.25 A29.6394 32.3039 -180 0 0 6.19 527.87 A100.374 109.397 -180 0 0 33.1 555.57 L40.15             549.52 L15.16 518.33 A23.8809 26.0277 -180 0 0 -0 509.25 Z"
   class="st3"
   id="path412" />
							</g>
							<g
   id="shape95-172"
   v:mID="95"
   v:groupContext="shape"
   transform="translate(428.652,157.357) rotate(49.1622)">
								<title
   id="title415">Sheet.95</title>
								<path
   d="M0 555.57 L42.46 555.57"
   class="st4"
   id="path417" />
							</g>
						</g>
						<g
   id="group96-175"
   transform="translate(560.5,688.575) rotate(-74.6) scale(1,-1)"
   v:mID="96"
   v:groupContext="group">
							<title
   id="title420">Sheet.96</title>
							<g
   id="shape97-176"
   v:mID="97"
   v:groupContext="shape">
								<title
   id="title423">Sheet.97</title>
								<path
   d="M-0 507.23 A31.0454 33.7147 -180 0 0 6.49 526.66 A105.135 114.175 -180 0 0 34.67 555.57             L42.06 549.25 L15.88 516.7 A25.0137 27.1644 -180 0 0 -0 507.23 Z"
   class="st3"
   id="path425" />
							</g>
							<g
   id="shape98-178"
   v:mID="98"
   v:groupContext="shape"
   transform="translate(428.4,155.083) rotate(49.0601)">
								<title
   id="title428">Sheet.98</title>
								<path
   d="M0 555.57 L44.38 555.57"
   class="st4"
   id="path430" />
							</g>
						</g>
						<g
   id="group99-181"
   transform="translate(505.795,780.687) rotate(-63.3) scale(1,-1)"
   v:mID="99"
   v:groupContext="group">
							<title
   id="title433">Sheet.99</title>
							<g
   id="shape100-182"
   v:mID="100"
   v:groupContext="shape">
								<title
   id="title436">Sheet.100</title>
								<path
   d="M0 506.43 A27.7695 34.2692 -180 0 0 5.8 526.18 A94.0416 116.053 -180 0 0 31.01 555.57 L37.62             549.15 L14.21 516.06 A22.3743 27.6112 -180 0 0 0 506.43 Z"
   class="st3"
   id="path438" />
							</g>
							<g
   id="shape101-184"
   v:mID="101"
   v:groupContext="shape"
   transform="translate(449.411,181.425) rotate(52.6433)">
								<title
   id="title441">Sheet.101</title>
								<path
   d="M0 555.57 L42.87 555.57"
   class="st4"
   id="path443" />
							</g>
						</g>
						<g
   id="group102-187"
   transform="translate(493.313,783.118) rotate(-63.3) scale(1,-1)"
   v:mID="102"
   v:groupContext="group">
							<title
   id="title446">Sheet.102</title>
							<g
   id="shape103-188"
   v:mID="103"
   v:groupContext="shape">
								<title
   id="title449">Sheet.103</title>
								<path
   d="M0 506.43 A27.7695 34.2692 -180 0 0 5.8 526.18 A94.0416 116.053 -180 0 0 31.01 555.57 L37.62             549.15 L14.21 516.06 A22.3743 27.6112 -180 0 0 0 506.43 Z"
   class="st3"
   id="path451" />
							</g>
							<g
   id="shape104-190"
   v:mID="104"
   v:groupContext="shape"
   transform="translate(449.411,181.425) rotate(52.6433)">
								<title
   id="title454">Sheet.104</title>
								<path
   d="M0 555.57 L42.87 555.57"
   class="st4"
   id="path456" />
							</g>
						</g>
						<g
   id="group105-193"
   transform="translate(428.83,855.66) rotate(-53.6) scale(1,-1)"
   v:mID="105"
   v:groupContext="group">
							<title
   id="title459">Sheet.105</title>
							<g
   id="shape106-194"
   v:mID="106"
   v:groupContext="shape">
								<title
   id="title462">Sheet.106</title>
								<path
   d="M-0 506.34 A27.6895 34.3298 -180 0 0 5.79 526.13 A93.7703 116.258 -180 0 0 30.93 555.57             L37.51 549.14 L14.17 515.99 A22.3098 27.66 -180 0 0 0 506.34 Z"
   class="st3"
   id="path464" />
							</g>
							<g
   id="shape107-196"
   v:mID="107"
   v:groupContext="shape"
   transform="translate(450.143,182.351) rotate(52.7719)">
								<title
   id="title467">Sheet.107</title>
								<path
   d="M0 555.57 L42.87 555.57"
   class="st4"
   id="path469" />
							</g>
						</g>
					</g>
					<g
   id="shape108-199"
   v:mID="108"
   v:groupContext="shape"
   transform="translate(329.897,15.4659) rotate(39.3)">
						<title
   id="title472">Sheet.108</title>
						<path
   d="M85.95 512.45 A11.9192 9.55712 0 0 1 77.8 512.33 A47.9914 38.4806 -180 0 0 85.95 512.45 A11.9192           9.55712 -180 0 0 93.97 504.12 A6.43238 5.15764 0 0 1 93.75 504.13 A1055.68 846.468 -180 0 0           76.8 502.93 L94 503.73 A11.9192 9.55712 0 0 1 93.97 504.12 A6.43238 5.15764 -180 0 0 98.99 496.34           L77.8 493.74 A3937.94 3157.54 -180 0 0 104.72 494.74 A6.16085 4.93992 -180 0 0 103.22 484.95           L85.53 483.95 L102.97 484.75 A9.43203 7.56283 -180 0 0 108.71 470.36 L96.93 471.39 A65.5196           52.5352 0 0 1 95 471.56 L96.93 471.39 A65.5196 52.5352 -180 0 0 115.19 467.36 A7.1217 5.71035           -180 0 0 115.44 456.37 L110.92 457.09 A18.1583 14.5597 0 0 1 104.22 458.16 L110.92 457.09 A18.1583           14.5597 -180 0 0 122.17 442.38 A48.0804 38.5521 -180 0 0 106.39 446.48 A31.6449 25.3736 0 0           1 105.72 446.77 A48.0804 38.5521 0 0 1 106.39 446.48 A31.6449 25.3736 -180 0 0 122.66 423.99           A9.17115 7.35365 -180 0 0 112.69 423.19 L103.22 433.18 L112.45 422.99 A17.9863 14.4218 -180           0 0 110.7 411.6 A12.1676 9.75624 -180 0 0 101.23 412.4 L96.24 422.39 L101.23 412.4 A6.36969           5.10737 -180 0 0 90.26 407.2 L90.26 407 A7.78696 6.24377 -180 0 0 75.81 402.4 A38.3405 30.7423           -180 0 0 84.78 443.18 A23.7936 19.0783 0 0 1 76.8 468.76 A23.4854 18.8311 -180 0 0 62.84 485.54           A24.5358 19.6734 0 0 1 50.88 496.74 A116.274 94.3101 -177.58 0 0 16.63 491.99 A34.3621 34.3621           -180 0 0 28.39 555.26 A35.6559 28.5931 -15.83 0 0 72.57 520.92 A12.1562 9.74711 -180 0 0 87.77           512.33 A47.9914 38.4806 0 0 1 85.95 512.45 Z"
   class="st3"
   id="path474" />
					</g>
				</g>
				<g
   id="group109-201"
   transform="translate(131.4,-300.6)"
   v:mID="109"
   v:groupContext="group">
					<title
   id="title477">Sheet.109</title>
					<g
   id="shape110-202"
   v:mID="110"
   v:groupContext="shape">
						<title
   id="title480">Sheet.110</title>
						<path
   d="M21.12 508.6 A35.9345 35.9345 -175.64 0 0 1.28 550.84 A29.4348 29.4348 -175.73 0 0 17.03 535.94           A21.9987 21.9987 -9.06 0 0 21.12 553.6 A34.6037 34.6037 -180 0 0 41.93 536.16 A15.3301 15.3301           -180 0 0 49.24 555.57 A32.214 32.214 -180 0 0 67.8 530.54 A35.5529 35.5529 -180 0 0 21.12 508.6           Z"
   class="st3"
   id="path482" />
					</g>
					<g
   id="shape111-204"
   v:mID="111"
   v:groupContext="shape"
   transform="translate(4.99301,-18.225)">
						<title
   id="title485">Sheet.111</title>
						<path
   d="M17.92 505 A35.0802 35.0802 -180 0 0 2.17 547.75 A30.5404 30.5404 -174.56 0 0 18.63 532.41 A27.4341           27.4341 -178.83 0 0 19.35 555.01 A36.0112 36.0112 -180 0 0 40.57 536.35 A20.9814 20.9814 -3.83           0 0 49.16 555.57 A45.3175 45.3175 -45 0 0 85.72 531.38 A50.1434 50.1434 -180 0 0 17.92 505 Z"
   class="st3"
   id="path487" />
					</g>
					<g
   id="shape112-206"
   v:mID="112"
   v:groupContext="shape"
   transform="translate(15.6243,-30.8758)">
						<title
   id="title490">Sheet.112</title>
						<path
   d="M26.16 506.91 A42.3838 42.3838 -180 0 0 0 536.16 A41.8147 41.8147 -5.2 0 0 18.13 525.37 A26.2937           26.2937 -22.55 0 0 13.63 548.44 A63.3256 63.3256 -7.1 0 0 40.5 530.53 A19.4477 19.4477 -17.92           0 0 38.94 551.25 A37.8663 37.8663 -11.1 0 0 61.59 532.22 A17.0023 17.0023 -180 0 0 60.47 552.47           A24.751 24.751 -180 0 0 80.16 535.03 A18.6746 18.6746 -180 0 0 82.97 551.34 A32.8994 32.8994           -180 0 0 99.84 533.34 A24.9798 24.9798 -180 0 0 98.72 551.34 A11.221 11.221 -174.36 0 0 103.78           545.72 A15.1867 15.1867 -175.89 0 0 118.41 555.56 A51.64 51.64 -176.77 0 0 115.03 526.03 A17.1827           17.1827 -180 0 0 127.97 540.66 A46.6118 46.6118 -71.85 0 0 126.28 520.41 A8.44233 8.44233 0           0 1 133.03 528.84 A21.8001 21.8001 -180 0 0 139.22 500.44 L26.16 506.91 Z"
   class="st3"
   id="path492" />
					</g>
					<g
   id="shape113-208"
   v:mID="113"
   v:groupContext="shape"
   transform="translate(35.4375,-52.9875)">
						<title
   id="title495">Sheet.113</title>
						<path
   d="M42.75 516.19 A166.365 165.034 -110.22 0 0 -0 531.94 A23.1899 23.1899 -180 0 0 25.87 531.94 A46.2468           46.2468 -180 0 0 9.56 546.85 A30.0325 30.0325 -180 0 0 41.34 535.32 A18.9615 18.9615 -180 0           0 36 552.19 A24.4711 24.4711 -180 0 0 60.75 534.19 A26.6083 26.6083 -180 0 0 60.19 555.57 A29.254           29.254 -180 0 0 77.06 534.76 A15.4704 15.4704 -180 0 0 82.12 552.19 A55.5525 55.5525 -180 0           0 99.56 527.73 A11.8401 11.8401 -180 0 0 106.31 537.85 A33.1656 33.1656 -180 0 0 114.19 522.1           A17.8827 17.8827 -180 0 0 124.87 530.26 A34.1068 34.1068 -180 0 0 113.62 498.19 A294.684 294.684           0 0 1 42.75 516.19 Z"
   class="st3"
   id="path497" />
					</g>
					<g
   id="shape114-210"
   v:mID="114"
   v:groupContext="shape"
   transform="translate(62.7589,-76.1786)">
						<title
   id="title500">Sheet.114</title>
						<path
   d="M38.81 515.63 A72.4608 72.4608 91.57 0 1 -0 542.07 A21.9775 21.9775 -180 0 0 34.87 541.79 A16.5748           16.5748 -180 0 0 34.31 555.57 A40.6266 40.6266 -180 0 0 51.19 539.82 A13.4155 13.4155 -180 0           0 53.44 555.01 A21.2527 21.2527 -180 0 0 38.81 515.63 Z"
   class="st3"
   id="path502" />
					</g>
					<g
   id="shape115-212"
   v:mID="115"
   v:groupContext="shape"
   transform="translate(78.1071,-86.5446)">
						<title
   id="title505">Sheet.115</title>
						<path
   d="M19.12 525.76 A17.4001 17.4001 0 0 1 -0 538.13 A19.4609 19.4609 -180 0 0 31.5 526.88 A35.2488 35.2488           -180 0 0 31.5 549.38 A31.0295 31.0295 -180 0 0 45.56 526.32 A35.9905 35.9905 -180 0 0 51.19           555.57 A33.5187 33.5187 -180 0 0 56.25 528.01 A21.0591 21.0591 -180 0 0 69.75 543.76 A64.2061           64.2061 -180 0 0 68.06 521.82 L74.25 537.57 A10.1849 10.1849 -180 0 0 90 535.88 A11.4487 11.4487           175.58 0 1 81 523.51 A35.2394 35.2394 -180 0 0 19.13 525.76 Z"
   class="st3"
   id="path507" />
					</g>
				</g>
				<g
   id="group116-214"
   transform="translate(-9,-229.5)"
   v:mID="116"
   v:groupContext="group">
					<title
   id="title510">Sheet.116</title>
					<g
   id="group117-215"
   v:mID="117"
   v:groupContext="group">
						<title
   id="title513">Sheet.117</title>
						<g
   id="shape118-216"
   v:mID="118"
   v:groupContext="shape"
   transform="translate(343.346,17.2893) rotate(30)">
							<title
   id="title516">Sheet.118</title>
							<path
   d="M64.09 479.63 A442.008 579.391 0 0 1 2.39 541.24 A6.08837 7.98073 -180 1 0 10.23 553.44 A199.013            260.87 -180 0 0 73.88 496.32 A8.10462 10.6237 -180 0 0 64.09 479.63 Z"
   class="st1"
   id="path518" />
						</g>
						<g
   id="group119-218"
   transform="translate(525.605,290.31) rotate(74.3)"
   v:mID="119"
   v:groupContext="group">
							<title
   id="title521">Sheet.119</title>
							<g
   id="shape120-219"
   v:mID="120"
   v:groupContext="shape"
   transform="translate(66.4735,-22.4689) rotate(5)">
								<title
   id="title524">Sheet.120</title>
								<path
   d="M59.97 517.39 L81.9 522 A9.15598 10.8565 -180 0 0 99.01 516.64 A9.09282 10.7816 -180 0 0             85.63 507.13 L60.4 501.85 L22.42 485.59 A9.09282 10.7816 -180 0 0 6.06 492.08 A9.09282             10.7816 -180 0 0 20.23 501.02 L30.92 505.64 L14.18 509.5 A9.09282 10.7816 -180 0 0 0             518.43 A9.09282 10.7816 -180 0 0 16.53 524.64 L40.53 519.1 L28.39 534.01 A9.09282 10.7816             -180 0 0 19.2 544.79 A9.09282 10.7816 -180 0 0 37.38 545.13 L59.97 517.39 Z"
   class="st1"
   id="path526" />
							</g>
							<g
   id="group121-221"
   transform="translate(44.6998,-0.0871426) rotate(5)"
   v:mID="121"
   v:groupContext="group">
								<title
   id="title529">Sheet.121</title>
								<g
   id="shape122-222"
   v:mID="122"
   v:groupContext="shape"
   transform="translate(2.23215,-79.6933)">
									<title
   id="title532">Sheet.122</title>
									<path
   d="M30.81 540.64 A23.7899 35.1597 -180 0 0 0 555.57 A33.283 49.1898 0 0 1 26.77 549.6 A3.87667              5.72943 -180 0 0 30.81 540.64 Z"
   class="st2"
   id="path534" />
								</g>
								<g
   id="shape123-224"
   v:mID="123"
   v:groupContext="shape"
   transform="translate(-143.747,-22.9114) rotate(-15)">
									<title
   id="title537">Sheet.123</title>
									<path
   d="M31.2 540.79 A24.0858 34.7908 -180 0 0 0 555.57 A33.6971 48.6737 0 0 1 27.11 549.66              A3.9249 5.66931 -180 0 0 31.2 540.79 Z"
   class="st2"
   id="path539" />
								</g>
								<g
   id="shape124-226"
   v:mID="124"
   v:groupContext="shape"
   transform="translate(-363.573,159.986) rotate(-45)">
									<title
   id="title542">Sheet.124</title>
									<path
   d="M33.68 541.81 A25.9991 32.406 -180 0 0 0 555.57 A36.3738 45.3374 0 0 1 29.26 550.06              A4.23667 5.28071 -180 0 0 33.68 541.81 Z"
   class="st2"
   id="path544" />
								</g>
								<g
   id="shape125-228"
   v:mID="125"
   v:groupContext="shape"
   transform="translate(519.717,129.708) rotate(45) scale(-1,1)">
									<title
   id="title547">Sheet.125</title>
									<path
   d="M33.68 541.81 A25.9991 32.406 -180 0 0 0 555.57 A36.3738 45.3374 0 0 1 29.26 550.06              A4.23667 5.28071 -180 0 0 33.68 541.81 Z"
   class="st2"
   id="path549" />
								</g>
							</g>
						</g>
					</g>
					<g
   id="group126-230"
   transform="translate(105.156,-23.625)"
   v:mID="126"
   v:groupContext="group">
						<title
   id="title552">Sheet.126</title>
						<g
   id="shape127-231"
   v:mID="127"
   v:groupContext="shape"
   transform="translate(72.5995,-1.40625)">
							<title
   id="title555">Sheet.127</title>
							<path
   d="M27.37 477.1 A29.509 28.5656 -65.36 0 0 48.18 455.16 A50.0693 48.4685 -84.82 0 0 2.57 521.57            A169.238 174.827 -180 0 0 24.72 555.57 A17.4313 16.874 -85.41 0 0 26.81 532.23 A73.5487            71.1972 -54.2 0 0 49.87 553.6 A54.2581 52.5234 -27.29 0 0 36.37 524.35 A59.3401 57.4429            -61.99 0 0 71.24 541.79 A49.2114 47.6381 -45.67 0 0 39.74 517.04 A50.1695 48.5655 -69.54            0 0 76.31 516.48 A65.7484 63.6463 -104.35 0 0 38.06 506.35 A84.6405 81.9344 -87.35 0 0 74.62            493.98 A87.8952 85.085 -103.55 0 0 35.81 490.6 A68.1545 65.9755 -96.42 0 0 65.62 472.04            A94.6213 91.5961 -118.31 0 0 27.37 477.1 Z"
   class="st3"
   id="path557" />
						</g>
						<g
   id="shape128-233"
   v:mID="128"
   v:groupContext="shape"
   transform="translate(52.9737,-1.6875)">
							<title
   id="title560">Sheet.128</title>
							<path
   d="M31.58 482.44 A48.2597 48.2597 -163.2 0 0 35.75 470.63 A39.6875 39.6875 -84.15 0 0 3.46 526.32            A150.421 150.421 -180 0 0 23.14 555.57 A15.2047 15.2047 -81.91 0 0 23.37 531.38 A36.8439            36.8439 -90.59 0 0 50.37 525.76 A38.3438 38.3438 -83.84 0 0 29.56 514.51 A28.3516 28.3516            -83.72 0 0 50.37 506.63 A47.937 47.937 -88.3 0 0 29.56 499.88 A28.5452 28.5452 -89.24 0            0 51.5 489.76 A32.1346 32.1346 -108.18 0 0 31.58 482.44 Z"
   class="st3"
   id="path562" />
						</g>
						<g
   id="group129-235"
   v:mID="129"
   v:groupContext="group">
							<title
   id="title565">Sheet.129</title>
							<g
   id="shape130-236"
   v:mID="130"
   v:groupContext="shape"
   transform="translate(4.34446,-57.2304)">
								<title
   id="title568">Sheet.130</title>
								<path
   d="M40.5 549.8 A28.0738 28.0738 -180 0 0 16.88 540.8 A19.3569 19.3569 0 0 1 0 531.8 A24.6635             24.6635 -180 0 0 40.5 549.8 Z"
   class="st3"
   id="path570" />
							</g>
							<g
   id="shape131-238"
   v:mID="131"
   v:groupContext="shape"
   transform="translate(-91.6791,-32.6202) rotate(-10)">
								<title
   id="title573">Sheet.131</title>
								<path
   d="M40.5 549.8 A28.0738 28.0738 -180 0 0 16.88 540.8 A19.3569 19.3569 0 0 1 0 531.8 A24.6635             24.6635 -180 0 0 40.5 549.8 Z"
   class="st3"
   id="path575" />
							</g>
							<g
   id="shape132-240"
   v:mID="132"
   v:groupContext="shape"
   transform="translate(-369.419,139.759) rotate(-44)">
								<title
   id="title578">Sheet.132</title>
								<path
   d="M40.5 549.8 A28.0738 28.0738 -180 0 0 16.88 540.8 A19.3569 19.3569 0 0 1 0 531.8 A24.6635             24.6635 -180 0 0 40.5 549.8 Z"
   class="st3"
   id="path580" />
							</g>
							<g
   id="shape133-242"
   v:mID="133"
   v:groupContext="shape"
   transform="translate(-451.524,276.06) rotate(-60)">
								<title
   id="title583">Sheet.133</title>
								<path
   d="M40.5 549.8 A28.0738 28.0738 -180 0 0 16.88 540.8 A19.3569 19.3569 0 0 1 0 531.8 A24.6635             24.6635 -180 0 0 40.5 549.8 Z"
   class="st3"
   id="path585" />
							</g>
							<g
   id="shape134-244"
   v:mID="134"
   v:groupContext="shape"
   transform="translate(-505.79,518.135) rotate(-86)">
								<title
   id="title588">Sheet.134</title>
								<path
   d="M32.54 550.93 A22.5541 22.5541 -180 0 0 13.56 543.7 A15.5511 15.5511 0 0 1 0 536.47 A19.8143             19.8143 -180 0 0 32.54 550.93 Z"
   class="st3"
   id="path590" />
							</g>
						</g>
						<g
   id="shape135-246"
   v:mID="135"
   v:groupContext="shape"
   transform="translate(35.0007,-1.40625)">
							<title
   id="title593">Sheet.135</title>
							<path
   d="M31.83 482.44 A29.6093 29.6093 -180 0 0 3.71 526.32 A150.421 150.421 -180 0 0 23.4 555.57 A19.039            19.039 -84.1 0 0 19.97 525.48 A27.1342 27.1342 -92.56 0 0 39.71 520.69 A29.4565 29.4565            -180 0 0 22.83 513.94 A25.6405 25.6405 -180 0 0 40.83 504.94 A45.0332 45.0332 -180 0 0 21.15            499.04 A26.7996 26.7996 -180 0 0 42.52 491.44 A14.1747 14.1747 -180 0 0 31.83 482.44 Z"
   class="st3"
   id="path595" />
						</g>
					</g>
				</g>
			</g>
			<g
   id="group136-248"
   transform="translate(174.825,-415.125)"
   v:mID="136"
   v:groupContext="group">
				<title
   id="title598">Sheet.136</title>
				<g
   id="group137-249"
   transform="translate(0,-12.375)"
   v:mID="137"
   v:groupContext="group">
					<title
   id="title601">Sheet.137</title>
					<g
   id="shape138-250"
   v:mID="138"
   v:groupContext="shape"
   transform="translate(7.92911,-12.375)">
						<title
   id="title604">Sheet.138</title>
						<path
   d="M47.44 542.07 A45.2962 45.2962 -109.03 0 0 -0 555.57 A91.651 91.651 84.49 0 1 46.88 551.07 A4.51678           4.51678 -180 0 0 47.44 542.07 Z"
   class="st2"
   id="path606" />
					</g>
					<g
   id="shape139-252"
   v:mID="139"
   v:groupContext="shape">
						<title
   id="title609">Sheet.139</title>
						<path
   d="M54.24 535.88 A29.5398 29.5398 -180 0 0 27.8 531.94 A13.8861 13.8861 -180 0 0 3.05 542.07 A29.2409           29.2409 0 0 1 31.18 499.88 A41.3634 41.3634 0 0 1 57.05 555.57 A51.6241 51.6241 -180 0 0 13.18           551.07 A57.302 57.302 0 0 1 54.24 535.88 Z"
   class="st1"
   id="path611" />
					</g>
				</g>
				<g
   id="shape140-254"
   v:mID="140"
   v:groupContext="shape"
   transform="translate(47.25,0)">
					<title
   id="title614">Sheet.140</title>
					<path
   d="M0 499.25 A40.0791 40.0791 0 0 1 0 554.94 A20.8685 20.8685 -180 0 0 25.87 536.38 A21.2914 21.2914 -180          0 0 36.56 555.5 A20.8865 20.8865 -180 0 0 46.12 534.13 A25.258 25.258 -180 0 0 78.75 551.57 A34.4999          34.4999 0 0 1 57.37 529.63 A13.7918 13.7918 -180 0 0 75.94 530.19 A12.4961 12.4961 0 0 1 64.69 522.88          A45.4832 45.4832 -180 0 0 0 499.25 Z"
   class="st3"
   id="path616" />
				</g>
				<g
   id="group141-256"
   transform="translate(51,-43.5)"
   v:mID="141"
   v:groupContext="group">
					<title
   id="title619">Sheet.141</title>
					<g
   id="shape142-257"
   v:mID="142"
   v:groupContext="shape"
   transform="translate(353.037,119.922) rotate(40)">
						<title
   id="title622">Ellipse.60</title>
						<v:userDefs>
							<v:ud
   v:nameU="visVersion"
   v:val="VT0(14):26" />
						</v:userDefs>
						<path
   d="M0 546.29 A11.0615 9.27715 0 1 1 22.12 546.29 A11.0615 9.27715 0 0 1 0 546.29 Z"
   class="st3"
   id="path624" />
					</g>
					<g
   id="shape143-259"
   v:mID="143"
   v:groupContext="shape"
   transform="translate(486.503,262.139) rotate(60)">
						<title
   id="title627">Ellipse.67</title>
						<v:userDefs>
							<v:ud
   v:nameU="visVersion"
   v:val="VT0(14):26" />
						</v:userDefs>
						<path
   d="M0 553.89 A4.86387 1.68286 0 0 1 9.73 553.89 A4.86387 1.68286 0 0 1 0 553.89 Z"
   class="st5"
   id="path629" />
					</g>
				</g>
				<g
   id="shape144-261"
   v:mID="144"
   v:groupContext="shape"
   transform="translate(82.3125,-56.224)">
					<title
   id="title632">Sheet.144</title>
					<path
   d="M0 546.54 A14.8253 14.8253 0 0 1 19.69 535.29 L32.06 536.42 A19.5576 19.5576 -180 0 0 51.19 528.54 A33.393          33.393 0 0 1 29.81 552.73 A23.6388 23.6388 92.37 0 1 0 546.54 Z"
   class="st3"
   id="path634" />
				</g>
				<g
   id="shape145-263"
   v:mID="145"
   v:groupContext="shape"
   transform="translate(28.875,-34.8096)">
					<title
   id="title637">Sheet.145</title>
					<path
   d="M64.12 551.57 L39.94 534.69 A13.685 13.685 -180 0 0 21.37 535.25 A17.9343 17.9343 0 0 1 -0 522.32 A20.0077          20.0077 0 0 1 22.5 509.38 A247.555 247.555 1.13 0 1 58.5 520.07 A21.0182 21.0182 -180 0 0 72 518.94          A21.1052 21.1052 0 0 1 59.62 530.19 A45.1732 45.1732 0 0 1 87.75 531.32 A37.0316 37.0316 -180 0          0 105.75 525.13 A13.6231 13.6231 96.59 0 1 116.08 522.6 A43.9261 43.9261 -90.42 0 0 105.19 536.38          A25.3272 25.3272 0 0 1 79.24 547.91 A8.12446 8.12446 0 0 1 64.13 551.57 Z"
   class="st3"
   id="path639" />
				</g>
				<g
   id="shape146-265"
   v:mID="146"
   v:groupContext="shape"
   transform="translate(94.7531,-44.8594)">
					<title
   id="title642">Sheet.146</title>
					<path
   d="M29.18 547.64 L4.85 546.51 A4.53293 4.53293 -105.33 1 0 7.24 554.67 A100.67 100.67 0 0 1 29.18 547.64          Z"
   class="st3"
   id="path644" />
				</g>
			</g>
		</g>
	</g>
</svg>