<?xml version="1.0" encoding="UTF-8" standalone="no"?>
<!-- Created with Inkscape (http://www.inkscape.org/) -->
<!-- https://commons.wikimedia.org/wiki/File:Japanese_Crest_Hana_Hisi.svg -->
<svg
   xmlns:svg="http://www.w3.org/2000/svg"
   xmlns="http://www.w3.org/2000/svg"
   version="1.0"
   viewBox="0 0 688 688"
   id="svg2623">
  <defs
     id="defs2626" />
  <path
     class="emblem-color"
     d="M 338.48094,539.95945 C 325.42133,538.49735 312.58153,531.01675 304.65073,520.24975 C 300.3731,514.44235 296.9471,506.31645 295.83121,499.33135 C 295.60984,497.94555 295.3615,496.74455 295.27935,496.66245 C 295.19719,496.58025 293.57061,496.79955 291.66473,497.14985 C 287.70078,497.87835 279.97412,497.98915 276.35137,497.36945 C 264.76971,495.38835 255.69212,490.47945 247.30639,481.66275 C 238.46877,472.37095 234.31563,463.75665 233.0373,452.06635 C 231.84757,441.18615 235.07911,429.19915 241.66961,420.04575 C 242.82427,418.44205 244.22565,416.69345 244.78378,416.15985 C 245.3419,415.62635 261.72775,404.32087 281.19676,391.03668 L 316.59496,366.88359 L 318.609,368.93793 C 324.08097,374.51939 330.66679,377.77057 339.33735,379.17077 L 340.7647,379.40127 L 340.7647,416.66415 L 340.7647,453.92695 L 341.63419,454.93785 C 342.77937,456.26915 344.97865,456.33745 346.31388,455.08305 L 347.23534,454.21735 L 347.23534,416.80935 L 347.23534,379.40127 L 348.66268,379.17077 C 357.35421,377.76719 363.94479,374.50766 369.41057,368.90941 L 371.44414,366.82655 L 406.63249,390.82738 C 425.98609,404.02783 442.36646,415.35075 443.03333,415.98935 C 444.95411,417.82875 448.32049,422.72215 450.20318,426.41135 C 455.81496,437.40795 456.84452,450.72355 452.96672,462.15285 C 450.42143,469.65475 446.95161,475.12355 440.36753,482.01065 C 432.25478,490.49675 423.05569,495.41925 411.67365,497.36495 C 408.10438,497.97505 400.19914,497.85995 396.28612,497.14085 C 394.40729,496.79555 392.80285,496.58025 392.72069,496.66245 C 392.63853,496.74455 392.39019,497.94555 392.16882,499.33135 C 390.63717,508.91905 385.48862,518.92645 378.47859,525.94145 C 371.59307,532.83175 361.43739,538.08315 352.05704,539.60355 C 348.42403,540.19245 342.0535,540.35945 338.48094,539.95945 z M 184.13717,428.21565 C 169.30199,426.42615 157.77428,421.95645 146.45522,413.60515 C 137.0278,406.64942 128.90988,396.86243 123.79704,386.2883 L 121.71454,381.98136 L 120.38235,382.20038 C 119.64964,382.32084 116.73786,382.5219 113.91171,382.64718 C 106.1946,382.98928 99.798986,381.71617 92.785246,378.44176 C 79.898711,372.4256 70.439359,361.13108 66.903178,347.53842 L 65.999995,344.06669 L 66.703429,341.25809 C 70.483253,326.16644 81.272405,313.90918 95.671496,308.34824 C 101.00395,306.28885 105.62134,305.42951 111.62795,305.3786 C 114.4541,305.35465 117.87973,305.47759 119.24047,305.65179 L 121.71454,305.96853 L 123.80623,301.65522 C 131.22234,286.36233 143.42267,274.29812 158.96433,266.88938 C 169.74228,261.75151 179.2012,259.6634 191.55938,259.69385 C 203.66386,259.72369 214.14375,262.19321 224.7884,267.52409 C 227.21288,268.73828 243.20361,279.39904 270.4635,297.97494 C 293.53301,313.69537 312.47588,326.61763 312.55876,326.69107 C 312.64164,326.76451 312.27194,327.81302 311.73721,329.0211 C 310.28476,332.30254 309.54836,334.71132 309.06081,337.77564 L 308.62225,340.53204 L 271.24613,340.63265 L 233.87001,340.73325 L 232.88787,341.65601 C 231.23585,343.20812 231.63666,345.85851 233.68866,346.95141 C 234.30436,347.27933 244.13221,347.39421 271.57028,347.39421 L 308.62051,347.39421 L 309.05994,350.15606 C 309.54833,353.22558 310.28417,355.63325 311.73721,358.91605 C 312.27194,360.12413 312.64164,361.17264 312.55876,361.24608 C 312.47588,361.31952 293.53301,374.24177 270.4635,389.9622 C 243.20361,408.53815 227.21288,419.19885 224.7884,420.41305 C 217.26669,424.17995 208.69535,426.81485 200.44476,427.89635 C 196.56826,428.40455 187.2201,428.58755 184.13717,428.21565 z M 487.11371,427.87075 C 477.1546,426.51495 463.76395,421.68975 457.61681,417.24185 C 456.67476,416.56015 438.00508,403.80713 416.12861,388.90171 C 394.25214,373.99629 376.12441,361.57886 375.84475,361.30741 C 375.42135,360.89644 375.46035,360.56694 376.0779,359.33765 C 377.28232,356.94016 378.46166,353.16302 378.93531,350.18609 L 379.3778,347.40505 L 417.0085,347.30447 L 454.63917,347.20389 L 455.36674,346.30532 C 456.14938,345.33871 456.32797,343.21326 455.72171,342.08046 C 455.51678,341.69755 454.80611,341.19496 454.14242,340.9636 C 453.29358,340.6677 442.02821,340.54294 416.15762,340.54294 L 379.37952,340.54294 L 378.93618,337.75648 C 378.46175,334.77469 377.283,330.99833 376.0779,328.5995 C 375.46035,327.37021 375.42135,327.0407 375.84475,326.62973 C 376.12441,326.35828 394.25214,313.94085 416.12861,299.03543 C 438.00508,284.13002 456.67476,271.37697 457.61681,270.69533 C 459.94753,269.00889 466.15097,265.95141 470.65986,264.26685 C 478.07716,261.49566 489.06777,259.46964 496.68344,259.46964 C 507.67348,259.46964 519.67766,262.27721 529.7454,267.20228 C 544.90165,274.61659 556.90183,286.61836 564.19379,301.65522 L 566.28548,305.96853 L 568.75955,305.65179 C 572.90669,305.12086 580.81815,305.3179 584.3652,306.04047 C 594.30296,308.06487 602.53221,312.58599 609.44966,319.82177 C 615.37003,326.01458 619.22638,332.99244 621.29657,341.25809 L 622,344.06669 L 621.09681,347.53842 C 616.40077,365.58954 601.43277,379.18794 582.89987,382.24032 C 579.08608,382.86845 571.59604,382.8481 567.61767,382.19879 L 566.28548,381.98136 L 564.20296,386.2883 C 551.71931,412.10635 525.25078,428.61215 496.63095,428.42625 C 493.49079,428.40585 489.20803,428.15595 487.11371,427.87075 z M 337.91,371.95688 C 327.79268,369.7502 319.24827,361.59942 316.3507,351.39078 C 315.13614,347.11166 315.13614,340.82548 316.3507,336.54637 C 317.7536,331.60372 319.93782,327.88456 323.63654,324.14048 C 329.25256,318.45557 334.93545,315.85877 342.51685,315.51308 C 347.97395,315.26426 351.4634,315.99538 356.56067,318.45561 C 367.46552,323.7189 374.0765,335.78905 372.38616,347.34938 C 370.23132,362.08636 358.23669,372.60918 343.73456,372.48525 C 341.78712,372.46861 339.16607,372.23084 337.91,371.95688 z M 280.97049,296.82836 C 247.2198,273.87553 245.23781,272.46502 243.28854,270.01157 C 230.23319,253.57948 229.28447,231.52058 240.88374,214.09712 C 244.0498,209.34132 252.10201,201.07887 256.09153,198.49227 C 262.17353,194.54901 268.76011,191.90086 275.31441,190.76367 C 280.7425,189.82188 288.61742,189.98766 294.17516,191.16072 L 295.35418,191.40957 L 295.82332,188.50138 C 296.87505,181.98172 299.9915,174.29595 303.83581,168.74098 C 311.22184,158.0683 323.46332,150.3573 336.35836,148.25477 C 339.87206,147.68187 348.22448,147.67687 351.64168,148.24564 C 358.44836,149.37855 366.19397,152.49605 371.8781,156.39052 C 375.66702,158.98649 381.4934,164.81464 384.09392,168.61006 C 388.07504,174.42045 391.13219,181.92124 392.16953,188.42374 L 392.64586,191.40957 L 393.82487,191.16072 C 399.38262,189.98766 407.25753,189.82188 412.68562,190.76367 C 421.83346,192.35085 430.69756,196.71256 437.31329,202.88209 C 449.15795,213.92785 454.652,224.93356 455.20642,238.72554 C 455.68479,250.62596 451.57998,262.11576 443.46238,271.59838 C 442.8998,272.25555 426.46604,283.66513 406.94289,296.95301 L 371.44627,321.11278 L 369.41163,319.02883 C 363.94473,313.42943 357.35485,310.17007 348.66268,308.76638 L 347.23534,308.53588 L 347.23534,271.13325 C 347.23534,234.01855 347.22936,233.72422 346.45926,232.89761 C 345.28845,231.64089 342.99358,231.65447 341.62111,232.92622 L 340.7647,233.71978 L 340.7647,271.12783 L 340.7647,308.53588 L 339.33735,308.76638 C 330.66574,310.16675 324.07789,313.41924 318.609,319.00018 L 316.59496,321.05549 L 280.97049,296.82836 z"
     id="path2634"
     style="fill:#000000" />
</svg>
