<?xml version="1.0" encoding="UTF-8" standalone="no"?>
<!-- Created with Inkscape (http://www.inkscape.org/) -->
<!-- https://commons.wikimedia.org/wiki/File:Musubi-kashiwa.svg -->
<!-- Image Copyright © 2007 Petr Sládek alias slady -->
<svg
   xmlns:dc="http://purl.org/dc/elements/1.1/"
   xmlns:cc="http://web.resource.org/cc/"
   xmlns:rdf="http://www.w3.org/1999/02/22-rdf-syntax-ns#"
   xmlns:svg="http://www.w3.org/2000/svg"
   xmlns="http://www.w3.org/2000/svg"
   xmlns:sodipodi="http://sodipodi.sourceforge.net/DTD/sodipodi-0.dtd"
   xmlns:inkscape="http://www.inkscape.org/namespaces/inkscape"
   viewBox="0 0 600 600"
   id="svg2"
   inkscape:label="Pozadí"
   sodipodi:version="0.32"
   inkscape:version="0.44.1"
   sodipodi:docbase="G:\slady\pic\svg\wikipedia\todo"
   sodipodi:docname="Musubi_kashiwa.svg"
   version="1.0">
  <defs
     id="defs3" />
  <sodipodi:namedview
     id="base"
     pagecolor="#ffffff"
     bordercolor="#666666"
     borderopacity="1.0"
     inkscape:pageopacity="0.0"
     inkscape:pageshadow="2"
     inkscape:zoom="1.2866667"
     inkscape:cx="300"
     inkscape:cy="300"
     inkscape:document-units="px"
     inkscape:current-layer="layer1"
     inkscape:window-width="1280"
     inkscape:window-height="968"
     inkscape:window-x="-4"
     inkscape:window-y="-4"
     width="600px"
     height="600px" />
  <metadata
     id="metadata6">
    <rdf:RDF>
      <cc:Work
         rdf:about="">
        <dc:format>image/svg+xml</dc:format>
        <dc:type
           rdf:resource="http://purl.org/dc/dcmitype/StillImage" />
      </cc:Work>
    </rdf:RDF>
  </metadata>
  <g
     inkscape:label="Vrstva 1"
     inkscape:groupmode="layer"
     id="layer1">
    <g
       id="g6399">
      <path
         id="path6350"
         class="emblem-color"
         d="M 303.3125 50.875 C 301.88712 51.967012 300.46594 53.068696 299.0625 54.1875 C 298.6854 54.487269 298.3131 54.792149 297.9375 55.09375 C 297.68294 55.298854 297.44132 55.512768 297.1875 55.71875 C 296.85365 55.98867 296.52013 56.259864 296.1875 56.53125 C 295.32908 57.234467 294.47481 57.943006 293.625 58.65625 C 293.30687 58.922055 292.97318 59.170308 292.65625 59.4375 C 292.15988 59.857887 291.68087 60.294952 291.1875 60.71875 C 290.38956 61.401128 289.60235 62.089862 288.8125 62.78125 C 288.59691 62.970677 288.37125 63.153667 288.15625 63.34375 C 287.93984 63.53441 287.71578 63.714904 287.5 63.90625 C 286.76395 64.561052 286.04151 65.243776 285.3125 65.90625 C 284.3632 66.767245 283.40491 67.625238 282.46875 68.5 C 228.25246 119.15148 194.34375 191.25709 194.34375 271.25 C 194.34375 349.1759 226.53302 419.61097 278.3125 470.03125 C 280.45291 468.4689 282.56888 466.88592 284.65625 465.25 C 289.65856 461.40747 294.48709 457.35298 299.15625 453.125 C 251.02979 407.41544 221.03125 342.81055 221.03125 271.25 C 221.03125 197.7196 252.74848 131.5746 303.21875 85.6875 C 352.97778 131.53309 384.15625 197.24129 384.15625 270.1875 C 384.15625 276.40119 383.94478 282.55543 383.5 288.65625 C 392.31433 291.29196 400.9839 294.36635 409.5 297.84375 C 410.40069 288.75028 410.875 279.51663 410.875 270.1875 C 410.875 190.84574 377.50709 119.24363 324.0625 68.65625 C 324.01421 68.610545 323.95457 68.57692 323.90625 68.53125 C 323.46384 68.113086 323.0389 67.696532 322.59375 67.28125 C 321.41897 66.185685 320.22557 65.106337 319.03125 64.03125 C 317.79843 62.920327 316.56516 61.807756 315.3125 60.71875 C 315.05601 60.49608 314.78857 60.284243 314.53125 60.0625 C 314.32039 59.880527 314.11766 59.681349 313.90625 59.5 C 312.32787 58.148073 310.73338 56.816992 309.125 55.5 C 308.96968 55.372676 308.81185 55.251994 308.65625 55.125 C 308.47191 54.974708 308.27847 54.837331 308.09375 54.6875 C 306.51276 53.403905 304.92195 52.12427 303.3125 50.875 z M 303.15625 280.96875 C 276.30071 280.96875 250.34761 284.8081 225.78125 291.9375 C 226.55485 300.9034 227.84096 309.83296 229.59375 318.65625 C 252.86295 311.51831 277.55875 307.65625 303.15625 307.65625 C 424.9755 307.65625 526.545 394.66054 549.1875 509.875 C 524.82002 517.77957 498.83554 522.0625 471.84375 522.0625 C 417.51499 522.0625 367.20757 504.76825 326.125 475.375 C 319.48667 481.64563 312.53801 487.5979 305.3125 493.1875 C 351.70763 528.06552 409.37414 548.74999 471.84375 548.75 C 500.0654 548.75 527.30762 544.5303 552.96875 536.6875 C 553.9449 536.38916 554.90343 536.05879 555.875 535.75 C 559.30466 534.65992 562.72516 533.53086 566.09375 532.3125 C 566.19941 532.27429 566.30065 532.22584 566.40625 532.1875 C 566.81343 532.03975 567.2187 531.8996 567.625 531.75 C 571.42622 530.35036 575.18479 528.87182 578.90625 527.3125 C 578.44017 523.14961 577.86327 519.0103 577.21875 514.90625 C 577.19281 514.74108 577.18248 514.57133 577.15625 514.40625 C 577.11294 514.13517 577.07535 513.86457 577.03125 513.59375 C 576.72897 511.72707 576.40222 509.88534 576.0625 508.03125 C 575.98947 507.63409 575.91847 507.24032 575.84375 506.84375 C 575.52169 505.12914 575.16689 503.42236 574.8125 501.71875 C 574.7024 501.18949 574.61323 500.65319 574.5 500.125 C 574.49128 500.12892 574.47747 500.12108 574.46875 500.125 C 547.63969 374.93697 436.31696 280.96875 303.15625 280.96875 z M 192.25 304.0625 C 111.63983 339.28535 50.956656 411.71429 31.9375 499.59375 C 31.836605 500.06032 31.754981 500.53247 31.65625 501 C 31.366083 502.37537 31.082195 503.74222 30.8125 505.125 C 30.67126 505.84524 30.510894 506.55892 30.375 507.28125 C 30.03521 509.10069 29.710312 510.94953 29.40625 512.78125 C 29.392336 512.86426 29.38884 512.94821 29.375 513.03125 C 29.114134 514.61165 28.859013 516.19199 28.625 517.78125 C 28.424356 519.13058 28.242873 520.4886 28.0625 521.84375 C 28.036456 522.04094 28.025629 522.24018 28 522.4375 C 27.81375 523.86127 27.600606 525.28906 27.4375 526.71875 C 33.558686 529.25129 39.792602 531.55809 46.125 533.65625 C 47.450402 534.09514 48.790492 534.51797 50.125 534.9375 C 76.412897 543.20588 104.37076 547.68749 133.375 547.6875 C 264.91344 547.68751 375.15841 456.02455 403.6875 333.125 C 395.47707 329.44601 387.04223 326.21155 378.46875 323.4375 C 354.03551 436.33334 253.54988 521 133.375 521 C 106.81009 521 81.22129 516.85786 57.1875 509.1875 C 72.939721 430.27437 125.7772 364.67787 196.71875 331.34375 C 194.77779 322.3348 193.29427 313.22419 192.25 304.0625 z "
         style="fill:black;fill-opacity:1;stroke:none" />
    </g>
  </g>
</svg>
