<?xml version="1.0" encoding="UTF-8" standalone="no"?>
<!-- Created with Inkscape (http://www.inkscape.org/) -->
<!-- Madboy74 [CC BY-SA 4.0 (https://creativecommons.org/licenses/by-sa/4.0)] -->
<!-- https://commons.wikimedia.org/wiki/File:Coa_Illustration_Cross_Bowen_3.svg -->
<svg height="300" width="300" viewBox="0 0 300 300" xmlns="http://www.w3.org/2000/svg">
  <g class="emblem-main" fill="#888" stroke="#000" stroke-width="3" transform="translate(-1737.758224 -566.076079)">
    <path d="m1744.25822352 716.07607944 58.7722147 58.7722147 10.51815516-10.51815516 37.70354082-37.70354082 25.95557059 25.95557059-37.70354082 37.70354082-10.51815516 10.51815516 58.7722147 58.7722147 58.73985115-58.73985115-48.22169599-48.22169599 26.0202977-26.0202977 48.22169599 48.22169599 58.73985115-58.73985115-58.7722147-58.7722147-10.51815516 10.51815516-37.70354082 37.70354082c-8.65185686-8.65185686-17.30371373-17.30371373-25.95557059-25.95557059l37.70354082-37.70354082 10.51815516-10.51815516-58.7722147-58.7722147-58.73985115 58.73985115 48.22169599 48.22169599-26.0202977 26.0202977-48.22169599-48.22169599zm21.03631033 0 37.70354082-37.70354082 37.70354082 37.70354082-37.70354082 37.70354082zm84.76014885-84.76014885 37.70354082-37.70354082 37.70354082 37.70354082-37.70354082 37.70354082zm11.71560668 84.7925124 26.0202977-26.0202977c8.65185686 8.65185686 17.30371373 17.30371373 25.95557059 25.95557059l-26.0202977 26.0202977c-8.65185686-8.65185686-17.30371373-17.30371373-25.95557059-25.95557059zm-11.71560668 84.7277853 37.70354082-37.70354082 37.70354082 37.70354082-37.70354082 37.70354082zm84.76014885-84.76014885 37.70354082-37.70354082 37.70354082 37.70354082-37.70354082 37.70354082z"/>
    <path d="m1840.7016155 716.07607944 10.51815516-10.51815516"/>
    <path d="m1851.28449777 726.65896171 10.48579161-10.55051872"/>
    <path d="m1913.74615767 716.04371588 10.51815516-10.51815516"/>
    <path d="m1924.32903994 726.62659815 10.48579161-10.55051872"/>
    <path d="m1887.75822352 669.01947141 10.51815516 10.51815516"/>
    <path d="m1877.24006836 679.53762657 10.55051872 10.48579161"/>
    <path d="m1877.24006836 752.6145323 10.51815516 10.51815516"/>
    <path d="m1887.75822352 742.09637713 10.51815516 10.51815516"/>
  </g>
</svg>
