<?xml version="1.0" encoding="utf-8"?>
<!-- WarX, edited by Manuel Strehl [CC BY-SA 3.0 (http://creativecommons.org/licenses/by-sa/3.0/)] -->
<!-- https://commons.wikimedia.org/wiki/File:Flag_of_Edward_England.svg -->
<svg height="334.33282" viewBox="209.742 68.667 330.64343 334.33282" width="330.64343" xmlns="http://www.w3.org/2000/svg">
  <g class="emblem-main" fill="#000">
    <path d="m255 221c-7 0-16 5-20 11-2 4-5 7-8 7-9 2-19 17-17 25 2 10 10 14 28 16 28 4 76 23 124 49 48 27 66 36 70 36 3 0 14 8 24 17 5 5 13 11 17 14 15 9 25 7 35-9 2-3 4-5 6-4 4 1 13-3 16-8 2-5 2-14-2-17-6-6-11-7-38-9-29-1-43-5-61-15-5-3-14-7-19-10s-19-11-30-17c-24-14-58-33-73-40-14-8-26-18-34-30-7-11-12-16-18-16zm-7.5 36.875c.25-.125 0 .625-.5 2.125-1 4 0 4 10 7s23 9 23 11c0 1-2 0-7-2-3-1-11-4-17-5-7-2-12-4-13-5s0-3 2-5c1.5-2 2.25-3 2.5-3.125zm200.5 102.125c1 0 10 6 22 16 10 9 12 9 17 8 7-2 10 0 4 3s-8 3-23-9c-7-7-15-13-18-14s-5-4-2-4zm58.34375 3c.47266-.00586 1.03125 0 1.65625 0 2 0 4 1 4 2 0 3-3 3-6 1-2.625-2.625-2.96484-2.95898.34375-3z"/>
    <path d="m339 320-16 8c-29 13-41 15-84 13-11-1-15 0-21 3-7 4-9 8-8 16 2 6 5 9 14 12 5 2 7 4 8 8 1 3 4 8 7 10 11 9 26 4 51-15 7-5 18-11 24-13 9-4 27-12 50-22l5-2-8-5c-5-3-12-7-15-9zm-102.65625 31.34375c.78125-.03125 1.40625.15625 1.65625.65625 1 0 0 2-1 3-3 2-5 2-6 0-.75-1.5 3-3.5625 5.34375-3.65625zm9.8125 13.0625c.44092-.1897 1.65625 1.65625 3.84375 5.59375 4 8 5 9 13 6 4-1 4-1 1 3-2 2-5 3-9 3-5 0-6 0-7-7-1.6875-6.75-2.41064-10.34985-1.84375-10.59375z"/>
    <path d="m497.65625 226.9375c-2.02808-.01465-3.96875.3125-5.65625 1.0625-2 1-6 6-10 11-11 16-23 25-48 37-35 16-54 25-53 26 0 1 7 5 14 9l14 8 18-7c27-11 62-21 82-23 22-3 23-3 28-8 4-5 5-14 0-21-1-3-6-8-11-11-6-3-9-7-9-9 0-6.5-10.55542-12.99902-19.34375-13.0625zm7.34375 37.0625 1 5c2 5-2 9-8 9-2 0-9 2-16 4-6 1-11 2-11 2 0-2 4-4 19-7 12-3 13-3 14-8z"/>
    <path d="m373 224c-1 0-2 1-2 4 0 0-1 6 1 5 2 0 6 2 5-4 0-3-2-5-4-5z"/>
    <path d="m371 253c-1-5-1-8 3-8s5 2 3 7-4 5-6 1z"/>
    <path d="m365 223c-1 0-3 3-3 6v5h4c2 0 1-6 1-8s-1-3-2-3z"/>
    <path d="m363 253c-2-2-1-8 1-8s3 2 3 5c0 4-2 5-4 3z"/>
    <path d="m385 253c-2-3-1-8 3-8 2 0 3 1 3 4-1 4-4 6-6 4z"/>
    <path d="m354 251c-2-2-1-6 2-6 1 0 2 2 2 4 0 3-2 4-4 2z"/>
    <path d="m380 233c-2-2 1-10 3-10 3 1 4 10 0 11-1 0-3 0-3-1z"/>
    <path d="m352 231c-1-4 0-8 4-8 1 0 2 2 2 5 0 6-4 8-6 3z"/>
    <path d="m389 228c0-4 1-5 3-5 2 1 3 2 3 5s-1 5-3 5-3-1-3-5z"/>
    <path d="m358 277c-9-3-10-4-21-17-8-12-9-13-11-37-1-14 0-15 9-7 5 5 6 7 8 18 2 18 9 24 31 24 17 0 24-3 28-12 1-3 3-8 3-10 0-9 4-17 9-20 3-2 6-3 7-3 2 0 0 32-3 37-3 7-17 23-21 25-6 2-31 4-39 2z"/>
    <path d="m373 67c-20 1-22 2-33 7-12 6-26 19-32 32-4 8-4 11-4 28s0 20 4 27c2 5 5 8 5 7 1 0 1-9 1-19 0-18 0-19 6-32 7-13 14-22 12-14s-6 16-9 24c-4 8-5 12-5 27 0 16 0 19-3 20-6 2-8 4-8 7-1 7 4 12 18 18 11 4 15 7 18 11 3 5 6 8 14 10 1 1 11 1 22 1l20-1 8-8c5-6 10-10 16-12 19-7 26-21 13-24l-7-2v-12c0-12 1-17 4-17 1 0 1 5 1 11 0 13 2 14 8 6 5-7 6-38 2-52-5-18-21-34-41-40-7-3-13-3-30-3zm-25.59375 71.375c4.64935-.27661 9.46875 1.5 13.59375 5.625 8 8 3 24-10 31-15 8-23 1-22-15 1.3125-13.125 9.53021-21.09692 18.40625-21.625zm54.15625 0c9.08521-.19336 17.0625 7.875 18.4375 21.625 1 8 1 9-3 13-9 9-21 5-28-8-6-9-6-15 0-21 4.0625-3.75 8.43286-5.53711 12.5625-5.625zm-26.5625 29.625c2 0 7 20 7 27 0 4 0 4-4 1-4-2-5-2-9 0-5 4-6 3-5 0 1-2 1-6 2-9 2-8 7-19 9-19z"/>
  </g>
</svg>
