<?xml version="1.0" encoding="UTF-8" standalone="no"?>
<!-- Created with Inkscape (http://www.inkscape.org/) -->
<!-- https://commons.wikimedia.org/wiki/File:Gomaisasa.svg -->
<svg height="400" viewBox="0 0 400 400" width="400" xmlns="http://www.w3.org/2000/svg">
  <path class="emblem-main" fill="#000" d="m404.42206 212.58401c-3.49326-18.83229-2.74246-38.70648 2.03509-53.87097 6.04003-18.67891 16.77608-35.53498 36.7993-39.63292l3.06451-.44614.858 184.59519h3.65813v-184.69994l3.71985.3888c23.22475 2.42746 39.78574 25.67009 43.42293 60.9422 1.74998 43.36792-22.13848 100.94861-49.25482 134.96912-20.91352-30.57442-35.73707-66.3883-44.30299-102.24534zm143.83223 54.89828c-15.22736-6.71761-25.90616-12.21136-32.56531-16.75333-6.09023-4.15395-18.72423-15.794-19.37785-17.85335-.21058-.66347.62222-5.21018 1.85065-10.1038 2.99285-11.92233 4.27065-21.27343 4.37597-32.02387l.08752-8.93285 6.39979 6.3522c20.87959 20.98557 34.40691 47.92413 43.08205 75.97857 1.10648 4.37253 1.24312 4.57592 3.20609 4.77214 2.04585.20451 2.0494.19954 1.61137-2.25806-7.76827-31.09698-24.38318-59.02097-46.15397-82.2761-5.82076-5.74257-8.96576-9.31648-8.96576-10.18849 0-2.64488-2.06136-11.40342-4.19824-17.838-3.28183-9.88225-9.25689-21.06132-13.82724-25.87012-.7588-.79838-1.22663-1.45161-1.03963-1.45161 1.57198 0 13.39031 4.38947 17.77478 6.60176 7.65024 3.86011 12.43507 7.18104 17.71651 12.29616 2.49786 2.41919 4.87391 4.60038 5.28013 4.84708 1.84409 1.11996 11.17583 12.77859 15.76092 19.69096 14.2872 21.53898 20.21808 41.31595 21.60631 72.04791.40329 8.92774-.51839 25.0443-1.53625 26.86312-.32126.57406-3.40146-.50945-11.08784-3.90032zm-206.71956 2.33618c-1.8297-5.91284-2.24452-31.88886-.71559-44.81099 1.85278-18.53077 8.33854-35.76347 17.68425-51.76819 3.09613-4.68339 8.33902-13.7451 14.98038-19.96213s14.33097-10.99026 20.62457-15.09667c5.66364-3.69538 17.79663-8.1898 20.9223-8.89201l1.93549-.43483-1.38275 1.5426c-2.25115 2.5114-7.11915 10.39082-8.8814 14.37558-2.61714 5.91782-5.34219 15.0344-6.85055 22.91835l-1.39767 7.30539-8.54323 8.47164c-22.12393 22.61352-38.06712 51.54477-45.86455 82.22676-.41942 2.09852-.38583 2.138 1.64603 1.93548 1.98854-.1982 2.12181-.39318 3.22811-4.72286 7.93775-28.7122 23.28846-54.63196 43.44441-76.40456l5.50338-5.43682.03466 10.27553c.0403 11.94611 1.05172 19.60701 4.2769 32.3952 2.76779 10.97456 3.071 10.03684-5.57131 17.22985-11.14324 9.27452-22.25702 15.77795-41.9001 24.51862-12.13284 5.3988-12.77815 5.6111-13.17333 4.33406zm266.72172-54.77144c-8.88018-1.56297-21.98419-5.05382-36.17456-9.63674l-13.27133-4.28611-3.13223-7.49589c-6.56575-15.71284-11.39487-23.9474-19.63825-33.48688l-4.56575-5.28363 3.39105 1.32653c28.08257 10.6984 51.78983 29.06752 71.50896 51.43104l2.24346 2.77328 1.44173-1.53465 1.44174-1.53466-4.32525-5.10959c-19.81642-23.27341-45.59243-40.02338-73.96415-50.93102-6.47109-2.15656-7.43089-2.70522-13.16262-7.52435-7.52006-6.32269-15.19572-11.3956-22.28436-14.72789l-5.31489-2.49847 5.48387-.16474c14.86007-.44639 26.83249 1.09575 38.44715 4.95232 14.67105 4.87142 33.06389 15.41411 44.92074 25.74839 11.08768 9.66387 22.2665 23.94155 28.56616 36.48493 2.72364 5.42309 6.77772 16.19237 7.7122 20.48672.44491 2.04457.40279 2.09528-1.69176 2.0367-1.18143-.03305-4.61578-.49442-7.63191-1.02529zm-324.72653-2.30173c.22137-1.15323 1.39633-4.9755 2.61103-8.49393 7.64591-22.14687 25.15827-44.1098 46.30905-58.07796 16.87578-11.14491 32.02593-17.43134 48.38709-20.07785 6.85028-1.10806 20.92375-1.44007 26.69271-.62971l3.46689.487-4.43463 1.78356c-8.8689 3.56698-19.0667 9.70683-26.59515 16.01231-3.40242 2.84969-5.69559 4.21759-8.36069 4.98719-30.73595 9.9989-57.35402 29.10177-78.57291 53.22396l-3.63093 4.49393 1.52381 1.25156 1.52381 1.25156 2.54717-3.02516c17.80126-21.18647 40.24725-37.0603 65.25994-48.59069 4.13851-1.75386 7.63693-3.07646 7.77427-2.93912.13735.13734-1.40955 2.10707-3.43754 4.37717-10.13801 11.34837-18.61486 25.56779-21.4574 35.99355-.71518 2.62312-1.42528 4.89427-1.57801 5.04699-.59679.59679-19.91934 6.8086-28.70263 9.22732-9.86768 2.71733-24.63923 5.79509-27.81324 5.79509-1.81313 0-1.8937-.11169-1.51264-2.09677z" transform="translate(-248.9016 1.28696)"/>
</svg>
