<?xml version="1.0" encoding="UTF-8" standalone="no"?>
<!-- Generated by Microsoft Visio 11.0, SVG Export, v1.0 Gryphon_Segreant.svg Page-1 -->
<!-- Christie L. Ward, gunnora@vikinganswerlady.com, licensed under a Creative Commons Attribution-ShareAlike 3.0 Unported (CC BY-SA 3.0) license -->
<!-- http://www.vikinganswerlady.com/Stars/Heraldry_SVG_Images/index.htm -->
<svg color-interpolation-filters="sRGB" fill="none" fill-rule="evenodd" height="7.71623in" stroke-linecap="square" stroke-miterlimit="3" viewBox="0 0 606.423 555.569" width="8.42255in" xmlns="http://www.w3.org/2000/svg">
  <g class="emblem-main" stroke="#000" stroke-linecap="round" stroke-linejoin="round" stroke-width="3">
    <path d="m64.09 479.63a442.008 579.391 0 0 1 -61.7 61.61 6.08837 7.98073-180 1 0 7.84 12.2 199.013 260.87-180 0 0 63.65-57.12 8.10462 10.6237-180 0 0 -9.79-16.69z" class="emblem-handBeak" fill="#ff0" transform="matrix(.05756403 .99834182 -.99834182 .05756403 669.5519 76.88728)"/>
    <path d="m59.97 517.39 21.93 4.61a9.15598 10.8565-180 0 0 17.11-5.36 9.09282 10.7816-180 0 0 -13.38-9.51l-25.23-5.28-37.98-16.26a9.09282 10.7816-180 0 0 -16.36 6.49 9.09282 10.7816-180 0 0 14.17 8.94l10.69 4.62-16.74 3.86a9.09282 10.7816-180 0 0 -14.18 8.93 9.09282 10.7816-180 0 0 16.53 6.21l24-5.54-12.14 14.91a9.09282 10.7816-180 0 0 -9.19 10.78 9.09282 10.7816-180 0 0 18.18.34z" class="emblem-handBeak" fill="#ff0" transform="matrix(-.08715574 .9961947 -.9961947 -.08715574 634.9298 102.03578)"/>
    <path d="m30.81 540.64a23.7899 35.1597-180 0 0 -30.81 14.93 33.283 49.1898 0 0 1 26.77-5.97 3.87667 5.72943-180 0 0 4.04-8.96z" class="emblem-clawTongue" fill="#f00" transform="matrix(-.08715574 .9961947 -.9961947 -.08715574 691.74354140047 89.43146453415)"/>
    <path d="m31.2 540.79a24.0858 34.7908-180 0 0 -31.2 14.78 33.6971 48.6737 0 0 1 27.11-5.91 3.9249 5.66931-180 0 0 4.09-8.87z" class="emblem-clawTongue" fill="#f00" transform="matrix(.17364818537 .98480775827 -.98480775827 .17364818537 647.90063440736 -60.94105951946)"/>
    <path d="m33.68 541.81a25.9991 32.406-180 0 0 -33.68 13.76 36.3738 45.3374 0 0 1 29.26-5.51 4.23667 5.28071-180 0 0 4.42-8.25z" class="emblem-clawTongue" fill="#f00" transform="matrix(.6427876119 .76604444124 -.76604444124 .6427876119 484.85831158482 -295.87111388274)"/>
    <path d="m33.68 541.81a25.9991 32.406-180 0 0 -33.68 13.76 36.3738 45.3374 0 0 1 29.26-5.51 4.23667 5.28071-180 0 0 4.42-8.25z" class="emblem-clawTongue" fill="#f00" transform="matrix(.76604444124 -.6427876119 -.6427876119 -.76604444124 438.03730112682 586.69660417598)"/>
    <g class="emblem-body" fill="#fff">
      <path d="m27.37 477.1a29.509 28.5656-65.36 0 0 20.81-21.94 50.0693 48.4685-84.82 0 0 -45.61 66.41 169.238 174.827-180 0 0 22.15 34 17.4313 16.874-85.41 0 0 2.09-23.34 73.5487 71.1972-54.2 0 0 23.06 21.37 54.2581 52.5234-27.29 0 0 -13.5-29.25 59.3401 57.4429-61.99 0 0 34.87 17.44 49.2114 47.6381-45.67 0 0 -31.5-24.75 50.1695 48.5655-69.54 0 0 36.57-.56 65.7484 63.6463-104.35 0 0 -38.25-10.13 84.6405 81.9344-87.35 0 0 36.56-12.37 87.8952 85.085-103.55 0 0 -38.81-3.38 68.1545 65.9755-96.42 0 0 29.81-18.56 94.6213 91.5961-118.31 0 0 -38.25 5.06z" transform="matrix(.54902282 .83580736 -.83580736 .54902282 614.01103632059 -84.7495869083)"/>
      <path d="m31.58 482.44a48.2597 48.2597-163.2 0 0 4.17-11.81 39.6875 39.6875-84.15 0 0 -32.29 55.69 150.421 150.421-180 0 0 19.68 29.25 15.2047 15.2047-81.91 0 0 .23-24.19 36.8439 36.8439-90.59 0 0 27-5.62 38.3438 38.3438-83.84 0 0 -20.81-11.25 28.3516 28.3516-83.72 0 0 20.81-7.88 47.937 47.937-88.3 0 0 -20.81-6.75 28.5452 28.5452-89.24 0 0 21.94-10.12 32.1346 32.1346-108.18 0 0 -19.92-7.32z" transform="matrix(.54902282 .83580736 -.83580736 .54902282 603.47109507983 -101.30738766232)"/>
      <path d="m40.5 549.8a28.0738 28.0738-180 0 0 -23.62-9 19.3569 19.3569 0 0 1 -16.88-9 24.6635 24.6635-180 0 0 40.5 18z" transform="matrix(.54902282 .83580736 -.83580736 .54902282 623.19569721632 -172.4463839545)"/>
      <path d="m40.5 549.8a28.0738 28.0738-180 0 0 -23.62-9 19.3569 19.3569 0 0 1 -16.88-9 24.6635 24.6635-180 0 0 40.5 18z" transform="matrix(.68581835496 .72777275216 -.72777275216 .68581835496 549.90718522761 -239.19202073114)"/>
      <path d="m40.5 549.8a28.0738 28.0738-180 0 0 -23.62-9 19.3569 19.3569 0 0 1 -16.88-9 24.6635 24.6635-180 0 0 40.5 18z" transform="matrix(.97553454387 .21984620195 -.21984620195 .97553454387 253.34583803218 -376.68895882346)"/>
      <path d="m40.5 549.8a28.0738 28.0738-180 0 0 -23.62-9 19.3569 19.3569 0 0 1 -16.88-9 24.6635 24.6635-180 0 0 40.5 18z" transform="matrix(.99834181327 -.0575640273 .0575640273 .99834181327 94.34694042072 -370.48056272744)"/>
      <path d="m32.54 550.93a22.5541 22.5541-180 0 0 -18.98-7.23 15.5511 15.5511 0 0 1 -13.56-7.23 19.8143 19.8143-180 0 0 32.54 14.46z" transform="matrix(.87206926893 -.48938245683 .48938245683 .87206926893 -137.7743986014 -282.9317857737)"/>
      <path d="m31.83 482.44a29.6093 29.6093-180 0 0 -28.12 43.88 150.421 150.421-180 0 0 19.69 29.25 19.039 19.039-84.1 0 0 -3.43-30.09 27.1342 27.1342-92.56 0 0 19.74-4.79 29.4565 29.4565-180 0 0 -16.88-6.75 25.6405 25.6405-180 0 0 18-9 45.0332 45.0332-180 0 0 -19.68-5.9 26.7996 26.7996-180 0 0 21.37-7.6 14.1747 14.1747-180 0 0 -10.69-9z" transform="matrix(.54902282 .83580736 -.83580736 .54902282 593.36843711597 -116.17494067547)"/>
      <path d="m78.61 332.41a69.0538 69.0538-180 0 0 -67.85 53.21 209.882 209.882-180 0 0 -8.37 32.28 24.6475 24.6475-180 0 0 7.17 28.69 12.8232 12.8232 0 0 1 -9.56 19.73 16.1525 16.1525-180 0 0 23.91-14.94 74.1115 74.1115 0 0 1 -4.78-14.35 27.7353 27.7353-180 0 0 20.32 16.14 18.5141 18.5141 0 0 1 11.96 20.92 67.1683 67.1683-180 0 0 2.39 23.91 8.74194 8.74194 0 0 1 -15.54 7.18 21.7735 21.7735-180 0 0 -14.95-10.76 12.0136 12.0136-180 0 0 -8.96 20.92 23.8087 23.8087 0 0 1 14.34 0 25.5359 25.5359-180 0 0 22.72 1.79 25.5359 25.5359 0 0 1 -22.72-1.79 25.1179 25.1179-180 0 0 -14.34 0 12.6891 12.6891-180 0 0 3.28 21.07 4.37913 4.37913-180 0 0 5.09.45 18.3567 18.3567 0 0 1 14.34-5.98 17.7979 17.7979-180 0 0 18.98-5.38 17.7979 17.7979 0 0 1 -18.98 5.38 18.3567 18.3567-180 0 0 -14.34 5.98 14.8292 14.8292-180 0 0 25.1 14.05 52.8601 52.8601 0 0 1 15.99-12.26 23.3932 23.3932-180 0 0 7.03-22.27 298.096 298.096-180 0 0 1.79 11.21 12.2525 12.2525-180 1 0 12.26-18.68 13.2538 13.2538 0 0 1 -2.25-16.29 71.2953 71.2953-180 0 0 1.35-37.36 17.0179 17.0179-180 0 0 33.77-2.99 15.9186 15.9186 0 0 1 -26.9-13.45 14.0442 14.0442-180 0 0 26.01-4.78 13.8625 13.8625 0 0 1 -16.14-11.96 15.284 15.284-180 0 0 -26.6-7.17 12.792 12.792 0 0 1 -12.26.6 6.65086 6.65086 0 0 1 -1.49-11.06 79.2613 79.2613-180 0 0 18.23-72.04z" transform="matrix(.65605903 .75470958 -.75470958 .65605903 498.13659256255 68.55933122832)"/>
    </g>
    <path d="m12.97 525.43a16.5513 16.5513-180 0 0 -5.27 30.14 12.9527 12.9527 0 0 1 8.66-20.35 5.19112 5.19112-180 0 0 -3.39-9.79z" class="emblem-clawTongue" fill="#f00" transform="matrix(.19080899388 .9816271809 -.9816271809 .19080899388 645.39843788266 293.31146285808)"/>
    <path d="m12.97 525.43a16.5513 16.5513-180 0 0 -5.27 30.14 12.9527 12.9527 0 0 1 8.66-20.35 5.19112 5.19112-180 0 0 -3.39-9.79z" class="emblem-clawTongue" fill="#f00" transform="matrix(-.06975647276 .99756404914 -.99756404914 -.06975647276 644.63904239617 453.28453274423)"/>
    <path d="m12.97 525.43a16.5513 16.5513-180 0 0 -5.27 30.14 12.9527 12.9527 0 0 1 8.66-20.35 5.19112 5.19112-180 0 0 -3.39-9.79z" class="emblem-clawTongue" fill="#f00" transform="matrix(.19080899388 .9816271809 -.9816271809 .19080899388 624.0793174296 335.60667461704)"/>
    <path d="m12.97 525.43a16.5513 16.5513-180 0 0 -5.27 30.14 12.9527 12.9527 0 0 1 8.66-20.35 5.19112 5.19112-180 0 0 -3.39-9.79z" class="emblem-clawTongue" fill="#f00" transform="matrix(-.51503807221 -.85716729992 -.85716729992 .51503807221 622.36933950283 219.6930093531)"/>
    <path d="m28.12 555.57a51.9735 51.9735-179.53 0 0 -28.12-52.88 29.9501 29.9501 0 1 1 28.12 52.88z" class="emblem-clawTongue" fill="#f00" transform="translate(251.4773 -164.22072)"/>
    <path d="m118.58 215.2a65.8227 65.8227-180 0 0 -117.08 53.33 83.7658 83.7658-180 0 0 63 72l40.5 9a37.5488 37.5488 0 0 1 21.37 46.12 197.492 197.492-180 0 0 -7.87 30.38 23.1925 23.1925-180 0 0 6.75 27 12.0662 12.0662 0 0 1 -9 18.56 15.199 15.199-180 0 0 22.5-14.06 69.7364 69.7364 0 0 1 -4.5-13.5 26.098 26.098-180 0 0 19.12 15.18 17.4212 17.4212 0 0 1 11.25 19.69 63.2031 63.2031-180 0 0 2.25 22.5 8.22587 8.22587 0 0 1 -14.62 6.75 20.4882 20.4882-180 0 0 -14.06-10.12 11.3044 11.3044-180 0 0 -8.44 19.68 22.4031 22.4031 0 0 1 13.5 0 24.0284 24.0284-180 0 0 21.37 1.69 24.0284 24.0284 0 0 1 -21.37-1.69 23.635 23.635-180 0 0 -13.5 0 11.94 11.94-180 0 0 3.09 19.83 4.12062 4.12062-180 0 0 4.78.42 17.273 17.273 0 0 1 13.5-5.62 16.7472 16.7472-180 0 0 17.86-5.06 16.7472 16.7472 0 0 1 -17.86 5.06 17.273 17.273-180 0 0 -13.5 5.62 13.9537 13.9537-180 0 0 23.63 13.22 49.7395 49.7395 0 0 1 15.05-11.53 22.0122 22.0122-180 0 0 6.61-20.95 280.498 280.498-180 0 0 1.68 10.54 11.5292 11.5292-180 1 0 11.53-17.57 12.4714 12.4714 0 0 1 -2.11-15.33 67.0865 67.0865-180 0 0 1.27-35.16 16.0133 16.0133-180 0 0 31.78-2.81 14.9788 14.9788 0 0 1 -25.31-12.66 13.2151 13.2151-180 0 0 24.47-4.5 13.0441 13.0441 0 0 1 -15.19-11.25 14.3817 14.3817-180 0 0 -25.03-6.75 12.0369 12.0369 0 0 1 -11.53.57 6.25824 6.25824 0 0 1 -1.41-10.41 74.5822 74.5822-180 0 0 17.16-67.78 104.413 104.413 0 0 1 30.37 60.75 57.3998 57.3998-165.49 0 0 68.91 39.37 25.0033 25.0033-180 0 0 9.56-39.37l-14.06-14.35a8.77903 8.77903 0 0 1 10.12-14.34 10.5394 10.5394-180 0 0 -9-12.94 12.6162 12.6162-180 0 0 -14.06 11.25 13.7346 13.7346 0 0 1 23.35-14.06 15.8338 15.8338-180 0 0 -29.54-1.12 18.2802 18.2802 0 0 1 32.63-8.16 21.5245 21.5245-180 0 0 -36.56-4.22 142.849 142.849-180 0 0 30.37-48.09 4.56632 4.56632 0 0 1 9-.28 29.4435 29.4435 0 0 1 -5.62 12.93 17.895 17.895-180 0 0 8.43 30.66 21.387 21.387-180 0 0 21.1-10.41 8.60351 8.60351-180 0 0 -14.63-9 4.73628 4.73628 0 1 1 3.66 8.72 10.4148 10.4148 0 0 1 -9.84-18 25.6794 25.6794-180 0 0 6.46-23.34 13.7794 13.7794-180 0 0 -25.87-2.53 246.627 246.627 0 0 1 -27.28 44.72 24.0916 24.0916-180 0 0 -39.1-11.25 27.7744 27.7744 0 0 1 28.69 29.25 45.0878 45.0878-180 0 0 27.56 48.65 25.6087 25.6087 0 0 1 17.16 23.35 11.6113 11.6113-180 0 0 -22.78 3.93 12.3259 12.3259 0 0 1 11.25-2.25 4.62749 4.62749 0 0 1 1.12 9 41.8587 41.8587 0 0 1 -47.25-27 120.289 120.289-180 0 0 -34.87-73.12 69.8101 69.8101-180 0 0 -23.63-11.81 153.721 153.721 0 0 1 -57.29-107.33z" class="emblem-body" fill="#fff" transform="translate(156.6033 -14.42796)"/>
    <path d="m12.21 527.21a15.5742 15.5742-180 0 0 -4.97 28.36 12.1881 12.1881 0 0 1 8.16-19.15 4.88466 4.88466-180 0 0 -3.19-9.21z" class="emblem-clawTongue" fill="#f00" transform="matrix(.8660254 .5 -.5 .8660254 537.8943 23.96548)"/>
    <path d="m12.21 527.21a15.5742 15.5742-180 0 0 -4.97 28.36 12.1881 12.1881 0 0 1 8.16-19.15 4.88466 4.88466-180 0 0 -3.19-9.21z" class="emblem-clawTongue" fill="#f00" transform="matrix(.70710678 .70710678 -.70710678 .70710678 657.8233 128.47328)"/>
    <path d="m12.21 527.21a15.5742 15.5742-180 0 0 -4.97 28.36 12.1881 12.1881 0 0 1 8.16-19.15 4.88466 4.88466-180 0 0 -3.19-9.21z" class="emblem-clawTongue" fill="#f00" transform="matrix(.8660254 .5 -.5 .8660254 554.7693 65.21548)"/>
    <path d="m12.21 527.21a15.5742 15.5742-180 0 0 -4.97 28.36 12.1881 12.1881 0 0 1 8.16-19.15 4.88466 4.88466-180 0 0 -3.19-9.21z" class="emblem-clawTongue" fill="#f00" transform="matrix(-.98480775 -.17364818 -.17364818 .98480775 460.6933 -9.02285)"/>
    <g transform="matrix(-.16848937594 -.9857034727 -.9857034727 .16848937594 877.49621938482 182.15428994573)">
      <path d="m74.12 551.37-50.5-97.36a180.181 198.503 0 0 1 -14.73-47.13 3.92115 4.31986-180 1 0 -7.71-1.54 134.894 148.61-180 0 0 61.72 145.26 5.87922 6.47703-180 0 0 11.22.77z" class="emblem-body" fill="#fff"/>
      <path d="m0 447.39a87.5308 96.4311-180 0 0 9.12 27.82l49.09 80.36" transform="translate(10.2948 -3.42611)"/>
    </g>
    <g transform="matrix(-.45399050053 -.89100652643 -.89100652643 .45399050053 876.96868601522 26.28029008023)">
      <path d="m80.24 550.87-54.67-109.06a195.06 222.355 0 0 1 -15.94-52.8 4.24494 4.83896-180 1 0 -8.36-1.73 146.032 166.468-180 0 0 66.82 162.72 6.36469 7.25534-180 0 0 12.15.87z" class="emblem-body" fill="#fff"/>
      <path d="m0 434.4a94.7585 108.019-180 0 0 9.87 31.15l53.15 90.02" transform="translate(11.1448 -3.83781)"/>
    </g>
    <g transform="matrix(-.69088240397 -.72296715131 -.72296715131 .69088240397 826.09929250781 -115.9988394411)">
      <path d="m107.71 550.63-73.39-114.63a261.837 233.716 0 0 1 -21.4-55.5 5.69816 5.08619-180 1 0 -11.21-1.82 196.025 174.973-180 0 0 89.69 171.04 8.54359 7.62603-180 0 0 16.31.91z" class="emblem-body" fill="#fff"/>
      <path d="m0 428.21a127.198 113.538-180 0 0 13.25 32.75l71.34 94.61" transform="translate(14.9602 -4.03389)"/>
    </g>
    <g transform="matrix(-.74663817656 -.66523036066 -.66523036066 .74663817656 800.98079761835 -181.17683603258)">
      <path d="m92.5 550.4-63.02-119.96a224.857 244.583 0 0 1 -18.38-58.08 4.89339 5.32268-180 1 0 -9.63-1.9 168.34 183.108-180 0 0 77.02 178.98 7.33695 7.98061-180 0 0 14.01.96z" class="emblem-body" fill="#fff"/>
      <path d="m0 422.28a109.234 118.817-180 0 0 11.38 34.28l61.27 99.01" transform="translate(12.8473 -4.22146)"/>
    </g>
    <g transform="matrix(-.79547347579 -.60598840588 -.60598840588 .79547347579 771.4775293263 -239.71172638653)">
      <path d="m85.42 550.41-58.2-119.71a207.644 244.062 0 0 1 -16.97-57.95 4.51881 5.31135-180 1 0 -8.89-1.9 155.454 182.719-180 0 0 71.12 178.61 6.77532 7.96362-180 0 0 12.94.95z" class="emblem-body" fill="#fff"/>
      <path d="m0 422.57a100.872 118.564-180 0 0 10.51 34.2l56.58 98.8" transform="translate(11.8639 -4.21247)"/>
    </g>
    <g transform="matrix(-.90333529138 -.42893513866 -.42893513866 .90333529138 665.86053337913 -322.91987715449)">
      <path d="m97.56 551.47-66.47-95.05a237.176 193.8 0 0 1 -19.39-46.02 5.16148 4.21751-180 1 0 -10.15-1.51 177.563 145.089-180 0 0 81.24 141.83 7.73891 6.32357-180 0 0 14.77.75z" class="emblem-body" fill="#fff"/>
      <path d="m0 449.96a115.218 94.1464-180 0 0 12 27.15l64.63 78.46" transform="translate(13.5512 -3.34494)"/>
    </g>
    <g transform="matrix(.10973431689 -.99396096066 -.99396096066 -.10973431689 906.21840133518 325.03387234552)">
      <path d="m0 491.17a34.7878 44.913-180 0 0 7.27 25.89 117.809 152.098-180 0 0 31.58 38.51l8.27-8.42-29.32-43.36a28.029 36.187-180 0 0 -17.8-12.62z" class="emblem-body" fill="#fff"/>
      <path d="m0 555.57h55.28" transform="matrix(.58943184 .80781812 -.80781812 .58943184 458.575 179.556)"/>
    </g>
    <g transform="matrix(.19080899988 -.98162718721 -.98162718721 -.19080899988 879.22671600887 383.71796565339)">
      <path d="m0 490.32a49.1146 45.5043-180 0 0 10.26 26.23 166.326 154.1-180 0 0 44.59 39.02l11.68-8.53-41.4-43.93a39.5723 36.6635-180 0 0 -25.13-12.79z" class="emblem-body" fill="#fff"/>
      <path d="m0 555.57h64.53" transform="matrix(.71296169 .70120299 -.70120299 .71296169 403.369 110.288)"/>
    </g>
    <g transform="matrix(.37945616563 -.92520971882 -.92520971882 -.37945616563 834.54730692219 486.0953689163)">
      <path d="m0 492.07a35.23 44.2821-180 0 0 7.36 25.53 119.306 149.961-180 0 0 31.99 37.97l8.37-8.3-29.7-42.75a28.3853 35.6787-180 0 0 -18.02-12.45z" class="emblem-body" fill="#fff"/>
      <path d="m0 555.57h55.03" transform="matrix(.59972354 .80020727 -.80020727 .59972354 454.47 174.52)"/>
    </g>
    <g transform="matrix(.37460660041 -.92718385172 -.92718385172 -.37460660041 821.11410974137 481.94113224034)">
      <path d="m0 504.78a30.61 35.4182-180 0 0 6.4 20.42 103.661 119.944-180 0 0 27.79 30.37l7.28-6.64-25.81-34.19a24.6629 28.537-180 0 0 -15.66-9.96z" class="emblem-body" fill="#fff"/>
      <path d="m0 555.57h45.41" transform="matrix(.63135956 .77549023 -.77549023 .63135956 439.44 166.524)"/>
    </g>
    <g transform="matrix(-.93169122713 -.36325123362 -.36325123362 .93169122713 566.1558883928 -372.09242376006)">
      <path d="m28.66 552.74a113.306 91.7019 0 0 0 -9.63-29.77 32.1988 26.0595 0 0 1 -2.47-22.59 19.4154 15.7135-180 0 0 -15.07 21.59 270.285 218.75-180 0 0 11.36 28.38 9.04563 7.32091-180 0 0 15.81 2.39z" class="emblem-body" fill="#fff"/>
      <path d="m0 555.57h27.15" transform="matrix(.35475452 .93495948 -.93495948 .35475452 529.323 324.876)"/>
    </g>
    <g transform="matrix(-.93169122713 -.36325123362 -.36325123362 .93169122713 585.89707120224 -353.73427275184)">
      <path d="m37.8 540.38a88.7987 61.2402-180 0 0 -16.52-23.98 55.0034 37.9332 0 0 1 -10.15-24.99 11.6729 8.05022-180 0 0 -11.01 8.6 100.103 69.0365-180 0 0 8.99 32.18 158.876 109.57-180 0 0 19.7 23.38 15.7579 10.8675-180 0 0 8.99-15.19z" class="emblem-body" fill="#fff"/>
      <path d="m0 555.57h32.76" transform="matrix(-.53962332 -.84190657 .84190657 -.53962332 -438.058 844.971)"/>
    </g>
    <g transform="matrix(-.97591676706 -.21814325016 -.21814325016 .97591676706 514.47700102395 -369.86452865966)">
      <path d="m0 515.86a34.3413 27.6935-180 0 0 7.18 15.96 116.297 93.7841-180 0 0 31.17 23.75l8.17-5.19-28.95-26.74a27.6693 22.3131-180 0 0 -17.57-7.78z" class="emblem-body" fill="#fff"/>
      <path d="m0 555.57h42.34" transform="matrix(.75966757 .65031161 -.65031161 .75966757 370.943 103.589)"/>
    </g>
    <g transform="matrix(-.9515944049 -.30735662676 -.30735662676 .9515944049 567.9101051812 -343.46823922808)">
      <path d="m0 515.87a34.3364 27.6846-180 0 0 7.17 15.96 116.28 93.754-180 0 0 31.18 23.74l8.16-5.19-28.94-26.73a27.6653 22.3059-180 0 0 -17.57-7.78z" class="emblem-body" fill="#fff"/>
      <path d="m0 555.57h42.34" transform="matrix(.75972545 .65024399 -.65024399 .75972545 370.905 103.567)"/>
    </g>
    <g transform="matrix(-.88620357832 -.46329604134 -.46329604134 .88620357832 649.54545564406 -286.06093595964)">
      <path d="m0 512.31a36.7271 30.1686-180 0 0 7.67 17.39 124.376 102.166-180 0 0 33.35 25.87l8.73-5.65-30.96-29.13a29.5915 24.3072-180 0 0 -18.79-8.48z" class="emblem-body" fill="#fff"/>
      <path d="m0 555.57h45.64" transform="matrix(.75370564 .65721214 -.65721214 .75370564 375.448 104.227)"/>
    </g>
    <g transform="matrix(-.75011107272 -.66131187228 -.66131187228 .75011107272 745.29941725261 -198.65982178329)">
      <path d="m0 514.12a33.0045 28.9034-180 0 0 6.9 16.67 111.77 97.8814-180 0 0 29.96 24.78l7.85-5.42-27.83-27.9a26.5922 23.2879-180 0 0 -16.88-8.13z" class="emblem-body" fill="#fff"/>
      <path d="m0 555.57h42.21" transform="matrix(.73240507 .68086916 -.68086916 .73240507 387.544 117.428)"/>
    </g>
    <g transform="matrix(-.54024031197 -.84151078542 -.84151078542 .54024031197 830.19344655259 -68.0132191499)">
      <path d="m0 511.71a31.2978 30.5897-180 0 0 6.54 17.63 105.99 103.592-180 0 0 28.41 26.23l7.45-5.73-26.39-29.54a25.217 24.6465-180 0 0 -16.01-8.59z" class="emblem-body" fill="#fff"/>
      <path d="m0 555.57h42.25" transform="matrix(.69396753 .72000629 -.72000629 .69396753 408.808 136.96)"/>
    </g>
    <g transform="matrix(-.30735661282 -.95159441102 -.95159441102 .30735661282 877.96110866553 73.02674920152)">
      <path d="m0 509.25a29.6394 32.3039-180 0 0 6.19 18.62 100.374 109.397-180 0 0 26.91 27.7l7.05-6.05-24.99-31.19a23.8809 26.0277-180 0 0 -15.16-9.08z" class="emblem-body" fill="#fff"/>
      <path d="m0 555.57h42.46" transform="matrix(.65391988 .75656381 -.75656381 .65391988 428.652 157.357)"/>
    </g>
    <g transform="matrix(-.04536297923 -.99897056895 -.99897056895 .04536297923 878.96949515478 224.50396326802)">
      <path d="m0 507.23a31.0454 33.7147-180 0 0 6.49 19.43 105.135 114.175-180 0 0 28.18 28.91l7.39-6.32-26.18-32.55a25.0137 27.1644-180 0 0 -15.88-9.47z" class="emblem-body" fill="#fff"/>
      <path d="m0 555.57h44.38" transform="matrix(.65526702 .75539733 -.75539733 .65526702 428.4 155.083)"/>
    </g>
    <g transform="matrix(.15126082662 -.98849389017 -.98849389017 -.15126082662 855.40612121106 329.01245587621)">
      <path d="m0 506.43a27.7695 34.2692-180 0 0 5.8 19.75 94.0416 116.053-180 0 0 25.21 29.39l6.61-6.42-23.41-33.09a22.3743 27.6112-180 0 0 -14.21-9.63z" class="emblem-body" fill="#fff"/>
      <path d="m0 555.57h42.87" transform="matrix(.60677531 .7948734 -.7948734 .60677531 449.411 181.425)"/>
    </g>
    <g transform="matrix(.15126082662 -.98849389017 -.98849389017 -.15126082662 844.28625403111 335.18162434551)">
      <path d="m0 506.43a27.7695 34.2692-180 0 0 5.8 19.75 94.0416 116.053-180 0 0 25.21 29.39l6.61-6.42-23.41-33.09a22.3743 27.6112-180 0 0 -14.21-9.63z" class="emblem-body" fill="#fff"/>
      <path d="m0 555.57h42.87" transform="matrix(.60677531 .7948734 -.7948734 .60677531 449.411 181.425)"/>
    </g>
    <g transform="matrix(.31564904508 -.94887601559 -.94887601559 -.31564904508 805.37598694053 424.09950898552)">
      <path d="m0 506.34a27.6895 34.3298-180 0 0 5.79 19.79 93.7703 116.258-180 0 0 25.14 29.44l6.58-6.43-23.34-33.15a22.3098 27.66-180 0 0 -14.17-9.65z" class="emblem-body" fill="#fff"/>
      <path d="m0 555.57h42.87" transform="matrix(.60498969 .7962333 -.7962333 .60498969 450.143 182.351)"/>
    </g>
    <path d="m85.95 512.45a11.9192 9.55712 0 0 1 -8.15-.12 47.9914 38.4806-180 0 0 8.15.12 11.9192 9.55712-180 0 0 8.02-8.33 6.43238 5.15764 0 0 1 -.22.01 1055.68 846.468-180 0 0 -16.95-1.2l17.2.8a11.9192 9.55712 0 0 1 -.03.39 6.43238 5.15764-180 0 0 5.02-7.78l-21.19-2.6a3937.94 3157.54-180 0 0 26.92 1 6.16085 4.93992-180 0 0 -1.5-9.79l-17.69-1 17.44.8a9.43203 7.56283-180 0 0 5.74-14.39l-11.78 1.03a65.5196 52.5352 0 0 1 -1.93.17l1.93-.17a65.5196 52.5352-180 0 0 18.26-4.03 7.1217 5.71035-180 0 0 .25-10.99l-4.52.72a18.1583 14.5597 0 0 1 -6.7 1.07l6.7-1.07a18.1583 14.5597-180 0 0 11.25-14.71 48.0804 38.5521-180 0 0 -15.78 4.1 31.6449 25.3736 0 0 1 -.67.29 48.0804 38.5521 0 0 1 .67-.29 31.6449 25.3736-180 0 0 16.27-22.49 9.17115 7.35365-180 0 0 -9.97-.8l-9.47 9.99 9.23-10.19a17.9863 14.4218-180 0 0 -1.75-11.39 12.1676 9.75624-180 0 0 -9.47.8l-4.99 9.99 4.99-9.99a6.36969 5.10737-180 0 0 -10.97-5.2v-.2a7.78696 6.24377-180 0 0 -14.45-4.6 38.3405 30.7423-180 0 0 8.97 40.78 23.7936 19.0783 0 0 1 -7.98 25.58 23.4854 18.8311-180 0 0 -13.96 16.78 24.5358 19.6734 0 0 1 -11.96 11.2 116.274 94.3101-177.58 0 0 -34.25-4.75 34.3621 34.3621-180 0 0 11.76 63.27 35.6559 28.5931-15.83 0 0 44.18-34.34 12.1562 9.74711-180 0 0 15.2-8.59 47.9914 38.4806 0 0 1 -1.82.12z" class="emblem-body" fill="#fff" transform="matrix(.93169122713 .36325123362 -.36325123362 .93169122713 414.43321864408 -270.71655291736)"/>
    <path d="m21.12 508.6a35.9345 35.9345-175.64 0 0 -19.84 42.24 29.4348 29.4348-175.73 0 0 15.75-14.9 21.9987 21.9987-9.06 0 0 4.09 17.66 34.6037 34.6037-180 0 0 20.81-17.44 15.3301 15.3301-180 0 0 7.31 19.41 32.214 32.214-180 0 0 18.56-25.03 35.5529 35.5529-180 0 0 -46.68-21.94z" class="emblem-body" fill="#fff" transform="translate(149.6363 -306.19572)"/>
    <path d="m17.92 505a35.0802 35.0802-180 0 0 -15.75 42.75 30.5404 30.5404-174.56 0 0 16.46-15.34 27.4341 27.4341-178.83 0 0 .72 22.6 36.0112 36.0112-180 0 0 21.22-18.66 20.9814 20.9814-3.83 0 0 8.59 19.22 45.3175 45.3175-45 0 0 36.56-24.19 50.1434 50.1434-180 0 0 -67.8-26.38z" class="emblem-body" fill="#fff" transform="translate(154.62931 -324.42072)"/>
    <path d="m26.16 506.91a42.3838 42.3838-180 0 0 -26.16 29.25 41.8147 41.8147-5.2 0 0 18.13-10.79 26.2937 26.2937-22.55 0 0 -4.5 23.07 63.3256 63.3256-7.1 0 0 26.87-17.91 19.4477 19.4477-17.92 0 0 -1.56 20.72 37.8663 37.8663-11.1 0 0 22.65-19.03 17.0023 17.0023-180 0 0 -1.12 20.25 24.751 24.751-180 0 0 19.69-17.44 18.6746 18.6746-180 0 0 2.81 16.31 32.8994 32.8994-180 0 0 16.87-18 24.9798 24.9798-180 0 0 -1.12 18 11.221 11.221-174.36 0 0 5.06-5.62 15.1867 15.1867-175.89 0 0 14.63 9.84 51.64 51.64-176.77 0 0 -3.38-29.53 17.1827 17.1827-180 0 0 12.94 14.63 46.6118 46.6118-71.85 0 0 -1.69-20.25 8.44233 8.44233 0 0 1 6.75 8.43 21.8001 21.8001-180 0 0 6.19-28.4z" class="emblem-body" fill="#fff" transform="translate(165.2606 -337.07152)"/>
    <path d="m42.75 516.19a166.365 165.034-110.22 0 0 -42.75 15.75 23.1899 23.1899-180 0 0 25.87 0 46.2468 46.2468-180 0 0 -16.31 14.91 30.0325 30.0325-180 0 0 31.78-11.53 18.9615 18.9615-180 0 0 -5.34 16.87 24.4711 24.4711-180 0 0 24.75-18 26.6083 26.6083-180 0 0 -.56 21.38 29.254 29.254-180 0 0 16.87-20.81 15.4704 15.4704-180 0 0 5.06 17.43 55.5525 55.5525-180 0 0 17.44-24.46 11.8401 11.8401-180 0 0 6.75 10.12 33.1656 33.1656-180 0 0 7.88-15.75 17.8827 17.8827-180 0 0 10.68 8.16 34.1068 34.1068-180 0 0 -11.25-32.07 294.684 294.684 0 0 1 -70.87 18z" class="emblem-body" fill="#fff" transform="translate(185.0738 -359.18322)"/>
    <path d="m38.81 515.63a72.4608 72.4608 91.57 0 1 -38.81 26.44 21.9775 21.9775-180 0 0 34.87-.28 16.5748 16.5748-180 0 0 -.56 13.78 40.6266 40.6266-180 0 0 16.88-15.75 13.4155 13.4155-180 0 0 2.25 15.19 21.2527 21.2527-180 0 0 -14.63-39.38z" class="emblem-body" fill="#fff" transform="translate(212.3952 -382.37432)"/>
    <path d="m19.12 525.76a17.4001 17.4001 0 0 1 -19.12 12.37 19.4609 19.4609-180 0 0 31.5-11.25 35.2488 35.2488-180 0 0 0 22.5 31.0295 31.0295-180 0 0 14.06-23.06 35.9905 35.9905-180 0 0 5.63 29.25 33.5187 33.5187-180 0 0 5.06-27.56 21.0591 21.0591-180 0 0 13.5 15.75 64.2061 64.2061-180 0 0 -1.69-21.94l6.19 15.75a10.1849 10.1849-180 0 0 15.75-1.69 11.4487 11.4487 175.58 0 1 -9-12.37 35.2394 35.2394-180 0 0 -61.87 2.25z" class="emblem-body" fill="#fff" transform="translate(227.7434 -392.74032)"/>
    <path d="m64.09 479.63a442.008 579.391 0 0 1 -61.7 61.61 6.08837 7.98073-180 1 0 7.84 12.2 199.013 260.87-180 0 0 63.65-57.12 8.10462 10.6237-180 0 0 -9.79-16.69z" class="emblem-handBeak" fill="#ff0" transform="matrix(.8660254 .5 -.5 .8660254 352.5823 -217.80642)"/>
    <path d="m59.97 517.39 21.93 4.61a9.15598 10.8565-180 0 0 17.11-5.36 9.09282 10.7816-180 0 0 -13.38-9.51l-25.23-5.28-37.98-16.26a9.09282 10.7816-180 0 0 -16.36 6.49 9.09282 10.7816-180 0 0 14.17 8.94l10.69 4.62-16.74 3.86a9.09282 10.7816-180 0 0 -14.18 8.93 9.09282 10.7816-180 0 0 16.53 6.21l24-5.54-12.14 14.91a9.09282 10.7816-180 0 0 -9.19 10.78 9.09282 10.7816-180 0 0 18.18.34z" class="emblem-handBeak" fill="#ff0" transform="matrix(.18566662224 .98261280155 -.98261280155 .18566662224 574.45968367465 113.12767559262)"/>
    <path d="m30.81 540.64a23.7899 35.1597-180 0 0 -30.81 14.93 33.283 49.1898 0 0 1 26.77-5.97 3.87667 5.72943-180 0 0 4.04-8.96z" class="emblem-clawTongue" fill="#f00" transform="matrix(.18566662224 .98261280155 -.98261280155 .18566662224 625.74307037051 85.6197810901)"/>
    <path d="m31.2 540.79a24.0858 34.7908-180 0 0 -31.2 14.78 33.6971 48.6737 0 0 1 27.11-5.91 3.9249 5.66931-180 0 0 4.09-8.87z" class="emblem-clawTongue" fill="#f00" transform="matrix(.43365909801 .90107702712 -.90107702712 .43365909801 542.84499283569 -47.27869688135)"/>
    <path d="m33.68 541.81a25.9991 32.406-180 0 0 -33.68 13.76 36.3738 45.3374 0 0 1 29.26-5.51 4.23667 5.28071-180 0 0 4.42-8.25z" class="emblem-clawTongue" fill="#f00" transform="matrix(.8260983015 .56352604668 -.56352604668 .8260983015 322.31331532436 -229.3245961191)"/>
    <path d="m33.68 541.81a25.9991 32.406-180 0 0 -33.68 13.76 36.3738 45.3374 0 0 1 29.26-5.51 4.23667 5.28071-180 0 0 4.42-8.25z" class="emblem-clawTongue" fill="#f00" transform="matrix(.56352604668 -.8260983015 -.8260983015 -.56352604668 516.06233649195 632.98585137174)"/>
    <path d="m27.37 477.1a29.509 28.5656-65.36 0 0 20.81-21.94 50.0693 48.4685-84.82 0 0 -45.61 66.41 169.238 174.827-180 0 0 22.15 34 17.4313 16.874-85.41 0 0 2.09-23.34 73.5487 71.1972-54.2 0 0 23.06 21.37 54.2581 52.5234-27.29 0 0 -13.5-29.25 59.3401 57.4429-61.99 0 0 34.87 17.44 49.2114 47.6381-45.67 0 0 -31.5-24.75 50.1695 48.5655-69.54 0 0 36.57-.56 65.7484 63.6463-104.35 0 0 -38.25-10.13 84.6405 81.9344-87.35 0 0 36.56-12.37 87.8952 85.085-103.55 0 0 -38.81-3.38 68.1545 65.9755-96.42 0 0 29.81-18.56 94.6213 91.5961-118.31 0 0 -38.25 5.06z" class="emblem-body" fill="#fff" transform="translate(186.9918 -260.12697)"/>
    <path d="m31.58 482.44a48.2597 48.2597-163.2 0 0 4.17-11.81 39.6875 39.6875-84.15 0 0 -32.29 55.69 150.421 150.421-180 0 0 19.68 29.25 15.2047 15.2047-81.91 0 0 .23-24.19 36.8439 36.8439-90.59 0 0 27-5.62 38.3438 38.3438-83.84 0 0 -20.81-11.25 28.3516 28.3516-83.72 0 0 20.81-7.88 47.937 47.937-88.3 0 0 -20.81-6.75 28.5452 28.5452-89.24 0 0 21.94-10.12 32.1346 32.1346-108.18 0 0 -19.92-7.32z" class="emblem-body" fill="#fff" transform="translate(167.366 -260.40822)"/>
    <path d="m40.5 549.8a28.0738 28.0738-180 0 0 -23.62-9 19.3569 19.3569 0 0 1 -16.88-9 24.6635 24.6635-180 0 0 40.5 18z" class="emblem-body" fill="#fff" transform="translate(118.73676 -315.95112)"/>
    <path d="m40.5 549.8a28.0738 28.0738-180 0 0 -23.62-9 19.3569 19.3569 0 0 1 -16.88-9 24.6635 24.6635-180 0 0 40.5 18z" class="emblem-body" fill="#fff" transform="matrix(.98480775 -.17364818 .17364818 .98480775 22.7132 -291.34092)"/>
    <path d="m40.5 549.8a28.0738 28.0738-180 0 0 -23.62-9 19.3569 19.3569 0 0 1 -16.88-9 24.6635 24.6635-180 0 0 40.5 18z" class="emblem-body" fill="#fff" transform="matrix(.7193398 -.69465837 .69465837 .7193398 -255.0267 -118.96172)"/>
    <path d="m40.5 549.8a28.0738 28.0738-180 0 0 -23.62-9 19.3569 19.3569 0 0 1 -16.88-9 24.6635 24.6635-180 0 0 40.5 18z" class="emblem-body" fill="#fff" transform="matrix(.5 -.8660254 .8660254 .5 -337.1317 17.33928)"/>
    <path d="m32.54 550.93a22.5541 22.5541-180 0 0 -18.98-7.23 15.5511 15.5511 0 0 1 -13.56-7.23 19.8143 19.8143-180 0 0 32.54 14.46z" class="emblem-body" fill="#fff" transform="matrix(.06975647 -.99756405 .99756405 .06975647 -391.3977 259.41428)"/>
    <path d="m31.83 482.44a29.6093 29.6093-180 0 0 -28.12 43.88 150.421 150.421-180 0 0 19.69 29.25 19.039 19.039-84.1 0 0 -3.43-30.09 27.1342 27.1342-92.56 0 0 19.74-4.79 29.4565 29.4565-180 0 0 -16.88-6.75 25.6405 25.6405-180 0 0 18-9 45.0332 45.0332-180 0 0 -19.68-5.9 26.7996 26.7996-180 0 0 21.37-7.6 14.1747 14.1747-180 0 0 -10.69-9z" class="emblem-body" fill="#fff" transform="translate(149.393 -260.12697)"/>
    <path d="m47.44 542.07a45.2962 45.2962-109.03 0 0 -47.44 13.5 91.651 91.651 84.49 0 1 46.88-4.5 4.51678 4.51678-180 0 0 .56-9z" class="emblem-clawTongue" fill="#f00" transform="translate(200.99041 -445.47072)"/>
    <path d="m54.24 535.88a29.5398 29.5398-180 0 0 -26.44-3.94 13.8861 13.8861-180 0 0 -24.75 10.13 29.2409 29.2409 0 0 1 28.13-42.19 41.3634 41.3634 0 0 1 25.87 55.69 51.6241 51.6241-180 0 0 -43.87-4.5 57.302 57.302 0 0 1 41.06-15.19z" class="emblem-handBeak" fill="#ff0" transform="translate(193.0613 -433.09572)"/>
    <path d="m0 499.25a40.0791 40.0791 0 0 1 0 55.69 20.8685 20.8685-180 0 0 25.87-18.56 21.2914 21.2914-180 0 0 10.69 19.12 20.8865 20.8865-180 0 0 9.56-21.37 25.258 25.258-180 0 0 32.63 17.44 34.4999 34.4999 0 0 1 -21.38-21.94 13.7918 13.7918-180 0 0 18.57.56 12.4961 12.4961 0 0 1 -11.25-7.31 45.4832 45.4832-180 0 0 -64.69-23.3z" class="emblem-body" fill="#fff" transform="translate(240.3113 -420.72072)"/>
    <path d="m0 546.29a11.0615 9.27715 0 1 1 22.12 0 11.0615 9.27715 0 0 1 -22.12 0z" class="emblem-eyeWhite" fill="#fff" transform="matrix(.76604444 .64278761 -.64278761 .76604444 597.0983 -344.29872)"/>
    <path d="m0 553.89a4.86387 1.68286 0 0 1 9.73 0 4.86387 1.68286 0 0 1 -9.73 0z" transform="matrix(.5 .8660254 -.8660254 .5 730.5643 -202.08172)"/>
    <path d="m0 546.54a14.8253 14.8253 0 0 1 19.69-11.25l12.37 1.13a19.5576 19.5576-180 0 0 19.13-7.88 33.393 33.393 0 0 1 -21.38 24.19 23.6388 23.6388 92.37 0 1 -29.81-6.19z" class="emblem-body" fill="#fff" transform="translate(275.3738 -476.94472)"/>
    <path d="m64.12 551.57-24.18-16.88a13.685 13.685-180 0 0 -18.57.56 17.9343 17.9343 0 0 1 -21.37-12.93 20.0077 20.0077 0 0 1 22.5-12.94 247.555 247.555 1.13 0 1 36 10.69 21.0182 21.0182-180 0 0 13.5-1.13 21.1052 21.1052 0 0 1 -12.38 11.25 45.1732 45.1732 0 0 1 28.13 1.13 37.0316 37.0316-180 0 0 18-6.19 13.6231 13.6231 96.59 0 1 10.33-2.53 43.9261 43.9261-90.42 0 0 -10.89 13.78 25.3272 25.3272 0 0 1 -25.95 11.53 8.12446 8.12446 0 0 1 -15.11 3.66z" class="emblem-body" fill="#fff" transform="translate(221.9363 -455.53032)"/>
    <path d="m29.18 547.64-24.33-1.13a4.53293 4.53293-105.33 1 0 2.39 8.16 100.67 100.67 0 0 1 21.94-7.03z" class="emblem-body" fill="#fff" transform="translate(287.8144 -465.58012)"/>
  </g>
</svg>
