<?xml version="1.0" encoding="UTF-8" standalone="no"?>
<!-- Created with Inkscape (http://www.inkscape.org/) -->
<!-- Mukai [CC BY-SA 3.0 (https://creativecommons.org/licenses/by-sa/3.0)] -->
<!-- https://commons.wikimedia.org/wiki/File:Japanese_Crest_Oda_ka.svg -->
<svg height="688" viewBox="0 0 688 688" width="688" xmlns="http://www.w3.org/2000/svg">
  <path class="emblem-main" fill="#000" d="m273.74689 616.9976c-2.21078-.221-5.49229-.9795-9.69189-2.2402-52.41703-15.7355-98.98589-46.5323-133.82732-88.5023-8.84303-10.6523-17.18159-22.4409-19.42384-27.4604-8.08774-18.1051-6.30703-38.7051 4.7856-55.3618 5.01507-7.5307 13.21953-15.0186 20.48093-18.6924 1.18494-.5994 54.14835-19.9907 55.82818-20.4401.5143-.1376.46953.1634-.31205 2.0984-.6694 1.6573-.95002 3.11-1.0534 5.4534l-.14093 3.1943 2.81331 5.7987c8.68202 17.8951 19.22788 32.6594 33.15165 46.4128 6.28746 6.2105 7.79179 7.5572 13.75945 12.3178 22.69022 18.1007 52.00301 30.6854 79.86843 34.2895 2.46784.3192 5.02873.7503 5.69086.9579 2.80687.8803 7.67301-.7508 10.96737-3.6763l1.76142-1.5641-.22899 4.8363c-.12594 2.66-.55681 15.4166-.9575 28.3481-.63032 20.3429-.82981 24.0441-1.4801 27.4604-3.93411 20.6681-18.61906 37.5477-38.3752 44.1101-4.63496 1.5396-7.97532 2.233-13.0943 2.7182-4.45717.4225-5.78571.4151-10.52168-.0583zm129.52934.0428c-4.03821-.3887-9.44787-1.5698-13.25128-2.8932-3.45387-1.2017-9.99434-4.3872-12.55019-6.1124-10.96973-7.4049-19.09237-17.9739-23.14912-30.1211-2.23693-6.6981-2.31172-7.5375-3.29135-36.9413-.4966-14.9057-.90152-27.943-.89981-28.9715l.0031-1.8702 2.34219 1.7728c2.64084 1.9989 6.58693 3.4343 8.52658 3.1018.636-.1091 3.01398-.4602 5.2844-.7802 37.79848-5.3281 71.41367-22.2735 97.64372-49.2221 12.23606-12.5713 21.41748-25.5757 30.01671-42.5151l3.53916-6.9717-.00833-3.5896c-.00732-3.1483-.12933-3.8501-.99231-5.7083-.5412-1.1653-.94126-2.1521-.88907-2.193.19983-.1565 55.45723 20.1922 56.98995 20.9868 2.57962 1.3373 6.57893 4.1417 9.96539 6.988 9.204 7.7358 16.11723 19.4545 18.82364 31.908.67843 3.1218.79699 4.7869.80995 11.3748.01702 8.6629-.45738 11.7237-2.90854 18.7656-1.75168 5.0325-2.91209 7.1966-7.06819 13.1818-7.63969 11.0018-15.35491 20.5509-25.23203 31.2294-32.83102 35.4951-76.72154 62.6104-123.72855 76.4388-8.1006 2.383-12.53394 2.8584-19.97602 2.1419zm-84.4455-111.6394c-25.94486-4.1754-50.69664-14.872-71.71444-30.9917-5.17931-3.9723-8.71375-7.0679-14.12653-12.3728-12.72115-12.4674-21.89872-24.9267-30.5044-41.412-2.28117-4.3699-2.39274-4.6998-2.39274-7.076 0-8.7984 8.50944-15.1993 16.89568-12.7092 5.56959 1.6538 9.64932 6.7959 9.65091 12.1642.00078 2.6369-.83679 4.6189-2.60963 6.1755-1.19635 1.0504-3.22837 1.897-4.55315 1.897-1.19354 0-3.26789-.7916-4.25844-1.6251-2.09274-1.7609-1.99834-.9712.38273 3.2019 19.26107 33.7571 52.28511 59.0987 90.02592 69.0829 5.70238 1.5086 11.48265 2.6957 11.76252 2.4159.12833-.1284-.44598-.8322-1.27625-1.5642-5.10832-4.5034-2.30527-11.7285 4.97132-12.814 5.36396-.8001 11.42187 2.681 13.91243 7.9948.8201 1.7497.96203 2.5292.96203 5.2832s-.14193 3.5334-.96203 5.2832c-2.005 4.2778-6.75619 7.8626-10.31278 7.781-.90625-.0207-3.54016-.3423-5.85315-.7146zm41.99041.209c-3.43802-1.2628-6.39768-4.3095-7.84116-8.0716-1.09655-2.8579-.86768-7.3287.52043-10.1659 2.61079-5.3362 8.73339-8.4956 14.43954-7.451 2.86582.5246 4.74511 1.8833 5.99932 4.3376.84022 1.6442.96873 2.2398.77292 3.5826-.3176 2.178-.94538 3.2843-2.73072 4.8125-.829.7096-1.40907 1.3884-1.28902 1.5084.53426.5343 13.37554-2.7031 21.26388-5.3608 33.58433-11.315 62.45151-35.0546 80.37466-66.0981 2.51735-4.3601 2.62231-5.0204.5164-3.2484-2.82759 2.3793-6.95918 1.9283-9.56928-1.0444-4.0217-4.5805-.69871-13.7845 6.11218-16.9297 1.95967-.9049 2.67805-1.0413 5.48562-1.0413 2.86955 0 3.49141.1241 5.56386 1.1108 4.40221 2.0958 7.42942 6.376 7.80324 11.033.17496 2.1798.12262 2.3469-2.16585 6.9138-22.9898 45.8786-66.95659 78.1165-117.18537 85.9243-5.42083.8426-6.23736.8616-8.07065.1882zm-86.06499-39.6376c-4.67222-.8625-8.66264-2.6827-12.9291-5.8975-10.75372-8.1031-13.5116-22.2797-6.56148-33.7287.69864-1.1509 1.12962-2.216.95774-2.367-.17189-.151-1.20362-.6262-2.29273-1.0561-7.59019-2.9957-12.98173-10.5877-13.53012-19.0521-.47831-7.3828 3.05764-14.9856 9.01001-19.3728 1.00862-.7434 2.19667-1.5447 2.64011-1.7806.82556-.4392 68.85508-22.6606 69.37405-22.6606.15783 0 .68985.6865 1.18228 1.5256.49242.839 1.58615 2.3095 2.43051 3.2677 1.22165 1.3864 1.45913 1.8629 1.16275 2.3332-.20485.3251-6.85607 9.5356-14.7805 20.4677-15.89234 21.9242-15.51002 21.2544-13.35879 23.4056 1.26552 1.2655 2.85849 1.3828 4.3506.3203.56304-.4009 7.52406-9.6945 15.46894-20.6524 11.17082-15.4073 14.5722-19.8662 15.00539-19.6704.8979.4059 5.49402 1.8696 6.57273 2.0932l.98714.2047-.01252 35.2608c-.01409 39.6619.03231 38.8485-2.50892 43.9769-2.63705 5.3218-7.16588 9.3403-12.67737 11.2487-3.70688 1.2836-6.75909 1.5959-10.22524 1.0463-5.48516-.8699-9.82339-3.2237-13.66186-7.4127l-2.21659-2.419-.61001.8716c-2.97566 4.2521-8.61645 8.0697-13.97577 9.4584-2.64484.6853-7.65051.9863-9.80125.5892zm131.55855-.0416c-5.53961-.863-9.88483-3.1661-14.34355-7.6026l-3.2158-3.1998-.71046 1.0135c-2.30268 3.285-6.81473 6.481-11.1367 7.8884-3.69478 1.2031-9.22503 1.3554-12.59172.3468-7.05096-2.1124-12.6815-7.4196-15.21122-14.3376l-.94194-2.5759v-37.1251-37.1251l1.83078-.4124c1.00694-.2268 2.74921-.7852 3.87171-1.2408 1.12251-.4556 2.09619-.7668 2.16373-.6916.06754.0751 6.54197 9.0209 14.38762 19.8794s14.69006 20.1054 15.20981 20.5486c2.22799 1.9 5.44536.38 5.41846-2.5599-.01251-1.3666-1.04275-2.8937-13.83074-20.5014-7.59947-10.4637-14.23502-19.6261-14.74566-20.3609l-.92844-1.336 1.42782-1.7151c.7853-.9434 1.89447-2.4516 2.46482-3.3518l1.03701-1.6366 34.38309 11.2122c18.91071 6.1666 35.08761 11.625 35.94872 12.1296 6.8026 3.9866 11.0708 11.3142 11.10088 19.058.01576 4.0614-.52673 6.3819-2.3855 10.2041-1.99926 4.111-5.4742 7.6157-9.59713 9.6793-1.62045.8111-3.16031 1.4747-3.42196 1.4747-.95939 0-.8662.7208.33624 2.6005 2.75138 4.3012 3.95016 8.4867 3.93308 13.7321-.02642 8.1196-3.72772 15.2156-10.59091 20.3043-6.42626 4.7648-13.26757 6.7285-19.86204 5.7011zm-289.14165-56.5825c-.49357-.081-2.27042-.3753-3.94855-.6541-15.611993-2.5931-30.415463-12.5963-38.776502-26.2023-3.530403-5.745-6.419476-13.1687-7.753196-19.9222-1.194803-6.0501-.794118-28.0681.783881-43.0751 4.51823-42.969 18.97799-84.302 42.229977-120.7138 6.50739-10.1903 14.85983-21.4859 18.17875-24.5844 17.8261-16.642 43.11741-20.5277 64.84655-9.9628 4.25561 2.0692 8.7544 5.1017 12.72718 8.5792 2.76272 2.4183 5.76769 6.0855 20.88409 25.4861 9.71136 12.4638 17.77871 22.8229 17.92744 23.0203.17569.2332-.94514.359-3.19919.359-2.46989 0-4.1252.2066-5.74491.7172-2.13689.6735-2.61822 1.0556-7.9129 6.2818-8.22247 8.116-14.38234 15.3427-20.34733 23.8715-15.53908 22.2178-25.36691 47.7214-28.84082 74.843-2.17026 16.9438-1.55259 37.5317 1.57058 52.3498.30534 1.4487.46681 2.777.35884 2.9517-.10798.1747.24388 1.2508.7819 2.3914 1.14617 2.4299 4.29959 5.7234 6.52132 6.8111l1.54643.7571-1.18747.3811c-.65311.2097-13.06004 3.7925-27.57097 7.962-16.41329 4.7161-27.67217 7.7687-29.79361 8.0778-3.13656.457-11.15924.6229-13.28149.2746zm440.80191-.1955c-2.07403-.2653-33.77806-9.1128-56.48399-15.7627l-2.46059-.7207 1.5632-.7654c3.43807-1.6834 7.18367-6.5879 7.30517-9.5655.02876-.7053.40154-3.3015.82841-5.7694 3.93258-22.7365 3.08285-46.0765-2.48953-68.3817-6.38218-25.5468-18.64538-49.2229-35.78981-69.0981-4.60103-5.3339-14.81554-15.3769-16.37507-16.1002-2.39368-1.1102-5.11054-1.5919-7.95009-1.4097l-2.65371.1703 1.19472-1.4716c.65708-.8093 8.5106-10.8404 17.45221-22.2912 8.9416-11.4508 17.24741-21.8414 18.45732-23.0902 2.60748-2.6913 7.02874-6.1992 10.27639-8.1533 19.26638-11.5931 43.02729-11.125 61.56151 1.2126 5.37017 3.5748 8.17669 6.2326 12.34704 11.693 26.38056 34.5406 44.00083 73.6891 52.27972 116.1543 3.43736 17.6314 4.92427 33.3414 4.96039 52.408.02455 12.9772-.17916 14.7629-2.48957 21.8231-8.51609 26.0241-34.54375 42.5704-61.53372 39.1184zm-360.84522-23.2612c-1.96826-.4936-4.57153-1.9096-6.02831-3.2792-2.54799-2.3955-3.09727-3.4733-3.72004-7.2996-4.44598-27.3165-2.18748-54.0323 6.7064-79.33 5.32027-15.133 13.53577-30.5134 23.00885-43.0751 5.84465-7.7504 16.59415-19.468 18.97265-20.6814 4.68092-2.388 11.25114-1.2094 15.18448 2.7239 5.35638 5.3564 5.23735 13.9239-.26495 19.0707-4.30389 4.0258-9.44841 4.3764-12.6249.8604-1.69658-1.8779-2.22196-3.8989-1.66295-6.3968.23563-1.0529.31559-2.0229.1777-2.1557-.32902-.3168-3.63149 3.2966-8.30932 9.0916-17.56814 21.7637-28.49732 47.9588-31.90014 76.4583-1.11324 9.3237-1.04433 26.4186.13962 34.6396.26391 1.8324.7552 1.8556 1.37087.0648.8831-2.5688 3.96008-4.7155 6.75887-4.7155 2.97317 0 5.88362 2.2154 7.50022 5.7093.60919 1.3166.75584 2.33.75584 5.2231 0 3.2815-.09242 3.7702-1.07687 5.6939-1.40342 2.7423-4.56294 5.6805-7.14852 6.6479-2.33704.8744-5.96052 1.221-7.8395.7498zm288.66987.0073c-3.70658-.6276-7.68277-3.6139-9.44673-7.0949-3.77715-7.4538.09326-16.9105 6.93498-16.9443 3.12916-.0156 5.84296 2.0376 6.85268 5.1844.38139 1.1886.49899 1.3069.71347.7179 1.34631-3.6975 1.71711-26.4429.58205-35.7038-3.63005-29.618-14.50834-55.2834-33.01545-77.8942-5.50529-6.726-8.38066-9.4036-7.11483-6.6254.65805 1.4444.50725 4.3239-.31042 5.9266-.86912 1.7036-3.16538 3.4602-4.96452 3.7977-3.1971.5998-7.86835-1.6064-10.23884-4.8356-6.47301-8.818-.48058-21.1689 10.36717-21.3677 4.61198-.0845 5.2076.2535 11.21177 6.3623 12.12564 12.337 21.06301 24.8513 28.79449 40.3185 13.16705 26.3414 18.6186 54.8661 16.14375 84.4704-.4693 5.6136-2.02643 15.7277-2.62664 17.0607-1.26149 2.8019-4.78242 5.5212-8.35288 6.4512-2.22763.5802-2.99881.6048-5.53005.1762zm-244.36646-11.3161c-5.99197-1.3006-12.16484-6.1523-14.88943-11.7026-3.41261-6.9519-3.08624-15.1321.86255-21.6192.73758-1.2117 1.23387-2.3127 1.10286-2.4467-.13101-.1339-1.09686-.58-2.14633-.9912-3.85347-1.5099-8.12514-4.8307-10.66559-8.2915-4.58148-6.2412-6.07005-14.633-3.92226-22.1117 2.94767-10.264 9.40041-16.798 19.06135-19.3014 2.83453-.7345 8.97531-.7517 11.73509-.0328 1.13697.2961 2.22086.5384 2.40866.5384.18779 0 .34144-.6972.34144-1.5494 0-2.886.75738-5.7973 2.38789-9.1791 5.22815-10.8433 18.06323-15.4838 28.98912-10.4809 2.68077 1.2276 6.15412 3.8168 7.75551 5.7815.65785.807 10.34117 14.0177 21.5185 29.357l20.32241 27.8897-1.45394 1.7948c-.79966.9871-1.91016 2.574-2.46776 3.5264-.57151.9762-1.2069 1.6576-1.45636 1.5619-4.45406-1.7092-46.71047-14.9623-47.7026-14.9612-1.90864.0021-3.12458 1.2598-3.12458 3.2321 0 1.0491.23066 1.6945.80766 2.2598.56945.558 7.80786 3.0576 24.54272 8.4753l23.73507 7.6839-.08593 4.3205-.08592 4.3204-32.8026 10.7042c-18.04143 5.8874-33.9035 10.9446-35.24905 11.2383-2.97623.6496-6.47763.6436-9.51848-.0165zm194.3162-.3378c-1.77685-.4962-17.51453-5.5703-34.97262-11.2759l-31.742-10.3738-.06328-4.256-.06328-4.256 23.71976-7.7176c15.02925-4.89 24.04885-7.9996 24.61794-8.4872.68371-.5858.89817-1.1167.89817-2.2233 0-2.0193-1.21259-3.2889-3.14125-3.2889-.86509 0-10.49819 2.9363-24.72971 7.5381-12.82194 4.146-23.42292 7.538-23.55774 7.5378-.13481-.0002-.7133-.8339-1.28553-1.8527-.57222-1.0189-1.58179-2.4516-2.24349-3.1841-.6617-.7324-1.20308-1.4557-1.20308-1.6074 0-.1516 9.62313-13.4941 21.38474-29.65 18.93765-26.0129 21.63843-29.5664 23.60157-31.0534 5.74897-4.3545 13.10251-5.7949 19.69487-3.8578 9.03726 2.6554 16.08464 11.5537 16.08464 20.309 0 2.3457-.10259 2.2942 3.05115 1.5327 4.66069-1.1254 11.5083-.4738 16.01705 1.524 4.56251 2.0217 8.993 5.9538 11.45144 10.1632 2.10397 3.6025 3.94658 9.4124 4.1934 13.222.33685 5.1993-1.11773 10.737-4.00638 15.2527-2.62704 4.1068-7.84663 8.3059-12.14477 9.7704-.92996.3169-1.69081.7657-1.69081.9975 0 .2317.3988 1.0083.88623 1.7256 2.4219 3.5641 3.58227 7.7172 3.54347 12.6824-.04552 5.8228-2.10759 10.6561-6.43176 15.0755-4.01851 4.1069-8.92958 6.2536-14.86902 6.4994-3.23588.1339-4.2261.0283-6.99971-.7462zm-96.34022-7.9351c-6.05231-1.6277-11.3575-6.816-13.15346-12.8636-.69918-2.3544-.67616-7.469.04467-9.926 1.69018-5.7612 6.60654-10.777 12.29862-12.5474 2.71017-.8429 7.23658-.9385 9.97055-.2105 6.17548 1.6443 11.60079 7.1075 13.21585 13.3082 1.57015 6.0282-.3322 12.6344-4.9753 17.2775-4.66317 4.6631-11.38465 6.5797-17.40093 4.9618zm-27.85966-69.0704c-13.28362-18.2971-21.23029-29.5605-21.95415-31.1174-1.4169-3.0473-1.91664-5.4888-1.91664-9.3637 0-14.0766 13.06232-24.4072 27.10129-21.4335 1.38191.2927 2.60984.5322 2.72873.5322.11888 0 .31314-1.2519.43169-2.7819.82634-10.6654 8.39184-19.6488 18.86038-22.3951 3.852-1.0105 10.63824-1.0048 14.51661.0122 8.9432 2.3451 15.94917 9.3488 18.21531 18.2093.38863 1.5196.70661 3.7062.70661 4.8592 0 1.1529.12115 2.0962.26922 2.096s1.4807-.2585 2.96141-.574c7.35469-1.5675 15.158.7018 20.49008 5.9587 4.33343 4.2723 6.58603 9.6187 6.57895 15.6147-.00472 3.9929-.59644 6.4896-2.37763 10.0321-.60079 1.1949-10.38435 14.988-21.74123 30.6514-17.75845 24.4924-20.75426 28.4539-21.40169 28.3002-.41404-.0983-1.93938-.597-3.38964-1.1083-1.45026-.5112-2.94025-.9295-3.31109-.9295-.65243 0-.67746-.824-.77327-25.4573l-.09902-25.4574-.85274-.9075c-1.04367-1.1108-2.4559-1.461-3.81186-.9455-2.04164.7762-1.95239-.4591-1.96473 27.1919l-.01142 25.5758-.98714.0048c-.54292.0026-2.36015.4851-4.03829 1.0721-1.67813.587-3.13192 1.0606-3.23063 1.0525-.09871-.0082-9.54831-12.9196-20.99911-28.692zm-37.44796-64.9778c-4.08105-.8539-7.68085-3.6392-9.59626-7.4249-1.4317-2.8297-1.65669-7.2502-.52218-10.2596 1.68002-4.4565 3.9495-6.0889 15.61903-11.2351 15.7762-6.9571 31.42773-11.0786 49.17741-12.9499 7.32415-.7722 23.24032-.7663 30.62854.0113 17.43152 1.8347 33.29308 6.0279 49.10483 12.9813 7.34069 3.2282 12.51383 6.0717 13.55607 7.4514 4.25632 5.6343 3.82697 12.7417-1.06526 17.6339-5.05818 5.0582-12.90082 5.3518-18.09961.6776-1.97272-1.7736-2.99113-3.4566-3.37634-5.5796-.7322-4.0354 2.94652-8.1423 7.31258-8.1638 1.36048-.0067 1.52311-.0803 1.07688-.4877-.2891-.2638-2.22171-1.2213-4.2947-2.1276-33.21315-14.5209-70.46615-16.4413-104.99557-5.4127-7.46286 2.3837-18.97884 7.1548-18.63035 7.7186.10248.1658.82811.3015 1.61251.3015 5.55506 0 9.06154 6.1726 6.13128 10.7932-2.89152 4.5594-8.63895 7.1182-13.63886 6.0721zm-36.14455-41.4847c-8.88101-13.1185-16.75054-25.1011-17.48784-26.6279-1.57173-3.2548-3.56777-9.1939-4.37121-13.0064-2.63331-12.4955-.85463-25.8108 5.01077-37.5112 4.16018-8.2988 11.17513-16.327201 18.61044-21.299101 5.02158-3.35783 6.10452-3.88749 12.78309-6.25212 23.06521-8.16651 47.15456-13.09752 73.40562-15.02587 7.5237-.55268 28.52082-.55783 36.25488-.0089 25.52676 1.81179 50.5766 6.89629 73.0482 14.82697 6.36399 2.24598 8.15172 3.12464 13.14498 6.46072 9.84385 6.5767 18.10759 17.548201 21.98995 29.195401 2.16621 6.4985 2.6969 10.0304 2.6969 17.9479 0 7.9421-.5085 11.3035-2.70142 17.8579-2.2837 6.8257-3.65934 9.1105-20.25076 33.6341l-16.09375 23.7879-.4472-2.1923c-.24595-1.2057-.89194-3.0094-1.43551-4.0081-.96632-1.7755-4.35805-5.5671-4.68628-5.2389-.09104.091-1.16353-.401-2.38328-1.0935-9.12297-5.1794-21.9105-10.5319-33.17804-13.8874-37.04672-11.0326-77.24354-8.8482-112.9743 6.1394-4.91851 2.0631-17.71095 8.407-19.17092 9.507-2.15004 1.6199-5.05695 6.7802-5.07234 9.0043-.00303.4368-.12682.985-.2751 1.2181-.16582.2608-6.48481-8.7568-16.41688-23.428z"/>
</svg>
