<?xml version="1.0" encoding="UTF-8" standalone="no"?>
<!-- Created with Inkscape (http://www.inkscape.org/) -->
<!-- giraluna [Public domain] -->
<svg height="220" viewBox="0 0 205.62681 220" width="205.6268" xmlns="http://www.w3.org/2000/svg" xmlns:xlink="http://www.w3.org/1999/xlink">
  <g class="emblem-main" fill="#888" stroke="#000" stroke-width="3" fill-rule="evenodd" transform="matrix(.34856392 0 0 .34856428 123.72723772242 -168.18097027348)">
    <g id="g4181" transform="translate(-416.25997 339.48371)">
      <path d="m90.714286 377.71935c29.564614 159.76598 122.848544 198.51776 247.600154 161.48536 20.20305 23.12611 40.40611 35.02926 60.60916 43.43656-195.16712 87.09808-314.371461-65.84795-308.209314-204.92192z"/>
      <path d="m415.1727 462.43312c40.24139 31.8198 62.07098 31.8198 62.12438 31.8198 39.39882-97.66154 23.22255-185.34807-42.42641-264.15489-17.00418 10.07053-30.78014 24.61843-44.95179 45.45687 32.00945 53.96633 60.60552 109.13737 25.25382 186.87822z"/>
    </g>
    <use id="use4396" height="100%" transform="matrix(-.5 -.8660254 .8660254 -.5 -703.82485 1161.1947)" width="100%" xlink:href="#g4181"/>
    <use height="100%" transform="matrix(-.5 -.8660254 .8660254 -.5 -703.82485 1161.1947)" width="100%" xlink:href="#use4396"/>
  </g>
</svg>
